<?xml version="1.0" encoding="UTF-8"?>
<svg id="Capa_1" data-name="Capa 1" xmlns="http://www.w3.org/2000/svg" viewBox="0 0 503.78 162.01">
  <defs>
    <style>
      .cls-1 {
        fill: #f8c3bd;
      }

      .cls-2 {
        fill: #383f92;
      }

      .cls-3 {
        fill: #d0cde8;
      }

      .cls-4 {
        fill: #50504f;
      }

      .cls-5 {
        fill: #3d3d3d;
      }

      .cls-6 {
        fill: none;
      }

      .cls-7 {
        fill: #e84624;
      }

      .cls-8 {
        fill: #010101;
      }

      .cls-9 {
        fill: #b6b6b5;
      }
    </style>
  </defs>
  <path class="cls-8" d="M14.42,123.58h487.91c1.93,0,1.93-3,0-3H14.42c-1.93,0-1.93,3,0,3h0Z"/>
  <path class="cls-8" d="M90.8,131.85v-9.77c0-.78-.69-1.54-1.5-1.5s-1.5.66-1.5,1.5v9.77c0,.78.69,1.54,1.5,1.5s1.5-.66,1.5-1.5h0Z"/>
  <path class="cls-8" d="M260.77,131.85v-9.77c0-.78-.69-1.54-1.5-1.5s-1.5.66-1.5,1.5v9.77c0,.78.69,1.54,1.5,1.5s1.5-.66,1.5-1.5h0Z"/>
  <path class="cls-8" d="M430.99,131.85v-9.77c0-.78-.69-1.54-1.5-1.5s-1.5.66-1.5,1.5v9.77c0,.78.69,1.54,1.5,1.5s1.5-.66,1.5-1.5h0Z"/>
  <g>
    <rect class="cls-1" x="181.67" y="65.11" width="149.75" height="46.39" rx="7.06" ry="7.06"/>
    <path class="cls-7" d="M181.67,103.36h149.75v1.07c0,3.9-3.17,7.06-7.06,7.06h-135.62c-3.9,0-7.06-3.17-7.06-7.06v-1.07h0Z"/>
  </g>
  <g>
    <rect class="cls-6" x="195.81" y="75.69" width="118.52" height="21.38"/>
    <path class="cls-5" d="M196.19,82.95l.35-.52c.29.21.59.36.89.45.3.09.64.14,1.03.14.47,0,.86-.13,1.16-.38.3-.25.45-.6.45-1.05,0-.37-.12-.67-.37-.9-.24-.23-.64-.45-1.2-.64-.7-.24-1.21-.53-1.54-.84-.33-.32-.49-.73-.49-1.22,0-.6.21-1.08.62-1.45s.96-.54,1.65-.54c.3,0,.6.04.9.11.29.07.59.19.9.36l-.28.55c-.26-.14-.51-.24-.76-.3s-.52-.09-.81-.09c-.45,0-.82.12-1.1.35-.28.23-.42.55-.42.95,0,.35.13.63.38.86.25.22.67.44,1.24.64.7.24,1.2.52,1.51.85s.46.75.46,1.28c0,.63-.21,1.14-.62,1.53-.42.39-.99.59-1.72.59-.43,0-.82-.06-1.18-.17s-.71-.29-1.06-.53Z"/>
    <path class="cls-5" d="M206.25,80.98h-3.83c0,.71.18,1.23.51,1.58.33.34.77.52,1.32.52.25,0,.5-.04.75-.12.25-.08.5-.21.74-.38l.33.48c-.29.21-.59.36-.89.45-.3.1-.63.14-.99.14-.72,0-1.31-.23-1.76-.69s-.68-1.15-.68-2.07c0-.81.22-1.48.67-2,.45-.52,1.03-.79,1.74-.79.67,0,1.19.23,1.56.68.37.46.55,1.08.55,1.88v.32ZM205.57,80.41c-.01-.55-.15-.97-.4-1.28-.25-.31-.6-.46-1.05-.46s-.83.15-1.13.46c-.3.31-.49.73-.55,1.28h3.13Z"/>
    <path class="cls-5" d="M214.85,83.52h-.66v-3.11c0-.63-.1-1.07-.29-1.34-.19-.27-.51-.4-.95-.4-.39,0-.72.17-1,.52-.28.34-.42.77-.42,1.27v3.06h-.66v-3.18c0-.55-.11-.97-.32-1.25-.21-.28-.53-.42-.95-.42s-.74.17-1,.5c-.26.34-.4.77-.4,1.31v3.03h-.66v-5.29h.66v.86h.02c.19-.33.42-.58.69-.74.27-.16.58-.25.94-.25s.69.11.97.32c.27.21.46.49.55.83.18-.37.42-.66.72-.85.3-.2.64-.3,1.02-.3.58,0,1.02.18,1.31.54.29.36.43.9.43,1.61v3.27Z"/>
    <path class="cls-5" d="M216.77,76.94c-.14,0-.27-.05-.36-.15s-.15-.22-.15-.36.05-.26.15-.36c.1-.1.22-.14.36-.14s.27.05.37.14c.1.1.15.22.15.36s-.05.27-.15.36c-.1.1-.22.15-.37.15ZM217.1,83.52h-.66v-5.29h.66v5.29Z"/>
    <path class="cls-5" d="M223.04,83.52h-.66v-3.05c0-.6-.11-1.05-.33-1.35-.22-.3-.54-.45-.98-.45-.46,0-.85.17-1.15.52-.3.35-.45.78-.45,1.3v3.03h-.66v-5.29h.66v.92h.02c.2-.35.44-.61.74-.79.3-.17.64-.26,1.03-.26.58,0,1.02.19,1.32.57.3.38.46.92.46,1.62v3.23Z"/>
    <path class="cls-5" d="M228.32,83.52h-.66v-.95h-.02c-.18.34-.41.6-.71.79-.29.19-.63.28-1,.28-.5,0-.9-.14-1.2-.43-.3-.29-.45-.66-.45-1.11s.15-.82.45-1.11c.3-.29.77-.48,1.41-.57l1.52-.22v-.14c-.01-.48-.13-.82-.34-1.05-.21-.22-.51-.34-.89-.34-.3,0-.57.05-.83.16-.26.11-.5.27-.73.49l-.4-.41c.28-.28.59-.48.91-.61.32-.13.68-.2,1.08-.2.61,0,1.08.17,1.39.5.31.33.47.83.47,1.48v3.44ZM227.66,81.28v-.52l-1.37.2c-.48.07-.82.19-1.03.36-.21.17-.31.42-.31.75,0,.31.1.56.29.75s.45.28.77.28c.48,0,.88-.17,1.18-.51.3-.34.46-.77.46-1.3Z"/>
    <path class="cls-5" d="M232.45,78.8c-.08-.03-.15-.05-.21-.06-.06-.01-.14-.02-.21-.02-.44,0-.79.2-1.05.6-.26.4-.39.93-.39,1.59v2.59h-.66v-5.29h.66v1.11h.02c.12-.39.31-.68.57-.89.26-.21.56-.31.91-.31.09,0,.17,0,.25.02s.15.03.22.05l-.1.6Z"/>
    <path class="cls-5" d="M233.78,76.94c-.14,0-.27-.05-.36-.15s-.15-.22-.15-.36.05-.26.15-.36c.1-.1.22-.14.36-.14s.27.05.37.14c.1.1.15.22.15.36s-.05.27-.15.36c-.1.1-.22.15-.37.15ZM234.11,83.52h-.66v-5.29h.66v5.29Z"/>
    <path class="cls-5" d="M237.99,83.64c-.78,0-1.4-.25-1.85-.75-.46-.5-.69-1.16-.69-1.97,0-.88.24-1.57.72-2.07s1.11-.75,1.91-.75c.77,0,1.38.25,1.82.74s.66,1.17.66,2.03-.23,1.5-.69,2.01c-.46.51-1.09.76-1.88.76ZM238.03,83.07c.59,0,1.05-.19,1.37-.58.32-.38.48-.92.48-1.61s-.16-1.25-.48-1.63-.77-.57-1.36-.57-1.05.2-1.39.59c-.34.4-.52.94-.52,1.64,0,.66.17,1.18.51,1.57.34.39.8.59,1.38.59Z"/>
    <path class="cls-5" d="M248.48,82.59c-.19.34-.44.6-.76.78-.32.18-.69.27-1.11.27-.66,0-1.19-.24-1.59-.71-.4-.47-.61-1.12-.61-1.95s.22-1.56.67-2.09c.44-.53,1.03-.79,1.76-.79.38,0,.71.08.98.23s.49.38.66.69h.02v-3.33h.66v7.83h-.66v-.93h-.02ZM245.09,80.94c0,.67.15,1.19.46,1.57.31.38.71.56,1.2.56.54,0,.96-.18,1.28-.54.31-.36.47-.8.47-1.33v-.88c0-.46-.15-.85-.45-1.17s-.69-.48-1.17-.48c-.54,0-.97.2-1.3.6-.33.4-.49.96-.49,1.66Z"/>
    <path class="cls-5" d="M255,80.98h-3.83c0,.71.18,1.23.51,1.58.33.34.77.52,1.32.52.25,0,.5-.04.75-.12.25-.08.5-.21.74-.38l.33.48c-.29.21-.59.36-.89.45-.3.1-.63.14-.99.14-.72,0-1.31-.23-1.76-.69s-.68-1.15-.68-2.07c0-.81.22-1.48.67-2,.45-.52,1.03-.79,1.74-.79.67,0,1.19.23,1.56.68.37.46.55,1.08.55,1.88v.32ZM254.32,80.41c-.01-.55-.15-.97-.4-1.28-.25-.31-.6-.46-1.05-.46s-.83.15-1.13.46c-.3.31-.49.73-.55,1.28h3.13Z"/>
    <path class="cls-5" d="M262.96,83.52h-3.66v-7.41h.69v6.78h2.97v.62Z"/>
    <path class="cls-5" d="M264.43,76.94c-.14,0-.27-.05-.36-.15-.1-.1-.15-.22-.15-.36s.05-.26.15-.36c.1-.1.22-.14.36-.14s.27.05.37.14c.1.1.15.22.15.36s-.05.27-.15.36-.22.15-.37.15ZM264.76,83.52h-.66v-5.29h.66v5.29Z"/>
    <path class="cls-5" d="M270.09,83.22c-.24.15-.48.26-.72.32-.24.07-.5.1-.79.1-.73,0-1.33-.24-1.79-.72s-.69-1.13-.69-1.95.24-1.54.73-2.08c.49-.53,1.13-.8,1.93-.8.24,0,.47.03.7.09.22.06.46.15.69.27l-.27.51c-.19-.1-.37-.17-.55-.22s-.38-.07-.59-.07c-.61,0-1.08.21-1.43.63-.35.42-.52.95-.52,1.61s.17,1.2.51,1.58c.34.38.78.57,1.33.57.2,0,.39-.03.58-.08.19-.05.39-.14.58-.26l.3.5Z"/>
    <path class="cls-5" d="M275.4,80.98h-3.83c0,.71.17,1.23.51,1.58.33.34.77.52,1.32.52.25,0,.5-.04.75-.12.25-.08.5-.21.74-.38l.33.48c-.29.21-.59.36-.89.45-.3.1-.63.14-1,.14-.72,0-1.31-.23-1.76-.69s-.68-1.15-.68-2.07c0-.81.22-1.48.67-2,.45-.52,1.03-.79,1.74-.79.67,0,1.19.23,1.56.68.37.46.55,1.08.55,1.88v.32ZM274.72,80.41c-.01-.55-.15-.97-.4-1.28-.25-.31-.6-.46-1.05-.46s-.83.15-1.13.46c-.3.31-.49.73-.55,1.28h3.13Z"/>
    <path class="cls-5" d="M280.93,83.52h-.66v-3.05c0-.6-.11-1.05-.33-1.35-.22-.3-.54-.45-.98-.45-.46,0-.85.17-1.15.52-.3.35-.46.78-.46,1.3v3.03h-.66v-5.29h.66v.92h.02c.2-.35.44-.61.74-.79.3-.17.64-.26,1.03-.26.58,0,1.01.19,1.32.57.3.38.46.92.46,1.62v3.23Z"/>
    <path class="cls-5" d="M286.13,83.22c-.24.15-.48.26-.72.32-.24.07-.5.1-.79.1-.73,0-1.33-.24-1.79-.72s-.69-1.13-.69-1.95.24-1.54.73-2.08c.49-.53,1.13-.8,1.93-.8.24,0,.47.03.7.09.22.06.46.15.69.27l-.27.51c-.19-.1-.37-.17-.55-.22s-.38-.07-.59-.07c-.61,0-1.08.21-1.43.63-.35.42-.52.95-.52,1.61s.17,1.2.51,1.58c.34.38.78.57,1.33.57.2,0,.39-.03.58-.08.19-.05.39-.14.58-.26l.3.5Z"/>
    <path class="cls-5" d="M287.64,76.94c-.14,0-.27-.05-.36-.15-.1-.1-.15-.22-.15-.36s.05-.26.15-.36c.1-.1.22-.14.36-.14s.27.05.37.14c.1.1.15.22.15.36s-.05.27-.15.36-.22.15-.37.15ZM287.96,83.52h-.66v-5.29h.66v5.29Z"/>
    <path class="cls-5" d="M293.36,83.52h-.66v-.95h-.02c-.18.34-.41.6-.71.79-.29.19-.63.28-1,.28-.5,0-.9-.14-1.2-.43-.3-.29-.45-.66-.45-1.11s.15-.82.45-1.11c.3-.29.77-.48,1.41-.57l1.52-.22v-.14c-.01-.48-.13-.82-.34-1.05-.21-.22-.51-.34-.89-.34-.3,0-.57.05-.83.16-.26.11-.5.27-.73.49l-.4-.41c.28-.28.59-.48.91-.61.32-.13.68-.2,1.08-.2.61,0,1.08.17,1.39.5.31.33.47.83.47,1.48v3.44ZM292.7,81.28v-.52l-1.37.2c-.48.07-.82.19-1.03.36-.21.17-.31.42-.31.75,0,.31.1.56.29.75s.45.28.77.28c.48,0,.88-.17,1.18-.51s.46-.77.46-1.3Z"/>
    <path class="cls-5" d="M297.3,83.43c-.13.07-.27.11-.4.15s-.29.05-.46.05c-.38,0-.68-.11-.89-.34-.22-.23-.32-.57-.32-1.01v-3.47h-.93v-.58h.93v-1.34l.66-.22v1.56h1.36v.58h-1.36v3.39c0,.3.06.52.17.66.11.14.28.2.49.2.11,0,.22-.01.32-.04.1-.03.18-.06.26-.1l.19.52Z"/>
    <path class="cls-5" d="M302.45,83.52h-.66v-.9h-.02c-.18.34-.41.6-.69.77-.28.17-.61.26-.98.26-.63,0-1.1-.19-1.41-.58-.31-.38-.47-.96-.47-1.73v-3.11h.66v2.98c0,.64.11,1.11.34,1.41s.57.45,1.04.45.82-.17,1.11-.5c.29-.33.43-.77.43-1.32v-3.02h.66v5.29Z"/>
    <path class="cls-5" d="M306.68,78.8c-.08-.03-.15-.05-.21-.06s-.13-.02-.21-.02c-.44,0-.79.2-1.05.6-.26.4-.39.93-.39,1.59v2.59h-.66v-5.29h.66v1.11h.02c.12-.39.31-.68.57-.89.26-.21.56-.31.91-.31.09,0,.17,0,.25.02.08.01.15.03.22.05l-.1.6Z"/>
    <path class="cls-5" d="M311.44,83.52h-.66v-.95h-.02c-.18.34-.41.6-.71.79-.29.19-.63.28-1,.28-.5,0-.9-.14-1.2-.43-.3-.29-.45-.66-.45-1.11s.15-.82.45-1.11c.3-.29.77-.48,1.41-.57l1.52-.22v-.14c-.01-.48-.12-.82-.34-1.05-.21-.22-.51-.34-.89-.34-.3,0-.57.05-.83.16-.26.11-.5.27-.73.49l-.4-.41c.28-.28.59-.48.91-.61.32-.13.68-.2,1.08-.2.61,0,1.08.17,1.39.5s.47.83.47,1.48v3.44ZM310.78,81.28v-.52l-1.37.2c-.48.07-.82.19-1.03.36-.21.17-.31.42-.31.75,0,.31.1.56.29.75s.46.28.78.28c.48,0,.88-.17,1.18-.51.3-.34.46-.77.46-1.3Z"/>
    <path class="cls-5" d="M197.46,93.29h-.69v-7.41h.69v7.41Z"/>
    <path class="cls-5" d="M206.22,88l-2.6,6.49c-.15.38-.36.69-.63.93-.27.24-.58.36-.95.36-.1,0-.19,0-.27-.02s-.17-.03-.25-.05l.14-.59c.06.02.12.04.17.05.05.01.11.02.18.02.21,0,.4-.07.56-.2.16-.13.28-.31.38-.53l.5-1.18-2.04-5.26h.74l1.51,4.19c.02.06.04.11.05.18.02.06.04.14.06.21h.03s.03-.1.05-.17c.02-.06.04-.13.07-.21l1.6-4.21h.7Z"/>
    <path class="cls-5" d="M210.83,93.29h-.69v-7.41h.69v7.41Z"/>
    <path class="cls-5" d="M213.44,93.29h-.69v-7.41h.69v7.41Z"/>
  </g>
  <g>
    <rect class="cls-1" x="352.58" y="65.11" width="149.75" height="46.39" rx="7.06" ry="7.06"/>
    <path class="cls-7" d="M352.58,103.36h149.75v1.07c0,3.9-3.17,7.06-7.06,7.06h-135.62c-3.9,0-7.06-3.17-7.06-7.06v-1.07h0Z"/>
  </g>
  <g>
    <rect class="cls-6" x="366.72" y="75.69" width="118.52" height="21.38"/>
    <path class="cls-5" d="M368.38,80.71v2.81h-.69v-7.41h1.91c.78,0,1.38.19,1.79.57.42.38.63.92.63,1.62s-.23,1.29-.7,1.74c-.47.45-1.11.68-1.92.68h-1.02ZM368.38,76.74v3.35h.98c.63,0,1.12-.15,1.45-.45.33-.3.5-.73.5-1.29s-.15-.94-.45-1.21c-.3-.27-.76-.4-1.37-.4h-1.1Z"/>
    <path class="cls-5" d="M375.94,78.8c-.08-.03-.15-.05-.21-.06-.06-.01-.13-.02-.21-.02-.44,0-.79.2-1.05.6s-.39.93-.39,1.59v2.59h-.66v-5.29h.66v1.11h.02c.12-.39.31-.68.57-.89.26-.21.56-.31.91-.31.09,0,.17,0,.25.02.08.01.15.03.23.05l-.1.6Z"/>
    <path class="cls-5" d="M379.17,83.64c-.78,0-1.4-.25-1.85-.75-.46-.5-.69-1.16-.69-1.97,0-.88.24-1.57.72-2.07.48-.5,1.12-.75,1.91-.75.77,0,1.38.25,1.82.74s.66,1.17.66,2.03-.23,1.5-.69,2.01c-.46.51-1.09.76-1.88.76ZM379.21,83.07c.59,0,1.05-.19,1.37-.58.32-.38.48-.92.48-1.61s-.16-1.25-.48-1.63-.77-.57-1.36-.57-1.05.2-1.39.59c-.34.4-.52.94-.52,1.64,0,.66.17,1.18.51,1.57.34.39.8.59,1.38.59Z"/>
    <path class="cls-5" d="M387.1,78.23l-2.6,6.49c-.15.38-.36.69-.63.93-.27.24-.58.36-.95.36-.1,0-.19,0-.27-.02-.08-.01-.17-.03-.25-.05l.14-.59c.06.02.12.04.17.05.06.01.11.02.18.02.21,0,.4-.07.56-.2.16-.13.28-.31.38-.53l.5-1.18-2.04-5.26h.74l1.51,4.19c.02.06.04.11.05.18.02.06.04.14.06.21h.03s.03-.1.05-.17.04-.13.07-.21l1.6-4.21h.7Z"/>
    <path class="cls-5" d="M392.16,80.98h-3.83c0,.71.18,1.23.51,1.58.33.34.77.52,1.32.52.25,0,.5-.04.75-.12.25-.08.5-.21.74-.38l.33.48c-.29.21-.59.36-.89.45-.3.1-.63.14-.99.14-.72,0-1.31-.23-1.76-.69s-.68-1.15-.68-2.07c0-.81.22-1.48.67-2,.45-.52,1.03-.79,1.74-.79.67,0,1.19.23,1.56.68.37.46.55,1.08.55,1.88v.32ZM391.48,80.41c-.01-.55-.15-.97-.4-1.28-.25-.31-.6-.46-1.05-.46s-.83.15-1.13.46c-.3.31-.49.73-.55,1.28h3.13Z"/>
    <path class="cls-5" d="M397.07,83.22c-.24.15-.48.26-.72.32-.24.07-.5.1-.79.1-.73,0-1.33-.24-1.78-.72-.46-.48-.69-1.13-.69-1.95s.25-1.54.73-2.08c.49-.53,1.13-.8,1.93-.8.24,0,.47.03.7.09s.46.15.69.27l-.27.51c-.19-.1-.38-.17-.56-.22s-.38-.07-.59-.07c-.61,0-1.08.21-1.43.63-.35.42-.52.95-.52,1.61s.17,1.2.51,1.58c.34.38.78.57,1.33.57.2,0,.39-.03.58-.08.19-.05.39-.14.58-.26l.3.5Z"/>
    <path class="cls-5" d="M400.57,83.43c-.13.07-.27.11-.4.15s-.29.05-.46.05c-.38,0-.68-.11-.89-.34-.21-.23-.32-.57-.32-1.01v-3.47h-.93v-.58h.93v-1.34l.66-.22v1.56h1.36v.58h-1.36v3.39c0,.3.06.52.17.66.11.14.28.2.49.2.11,0,.22-.01.32-.04.1-.03.18-.06.26-.1l.19.52Z"/>
    <path class="cls-5" d="M403.78,83.64c-.78,0-1.4-.25-1.85-.75-.46-.5-.69-1.16-.69-1.97,0-.88.24-1.57.72-2.07.48-.5,1.12-.75,1.91-.75.77,0,1.38.25,1.82.74s.66,1.17.66,2.03-.23,1.5-.69,2.01c-.46.51-1.09.76-1.88.76ZM403.81,83.07c.59,0,1.05-.19,1.37-.58.32-.38.48-.92.48-1.61s-.16-1.25-.48-1.63-.77-.57-1.36-.57-1.05.2-1.39.59c-.34.4-.52.94-.52,1.64,0,.66.17,1.18.51,1.57.34.39.8.59,1.38.59Z"/>
    <path class="cls-5" d="M414.26,82.59c-.19.34-.44.6-.76.78-.32.18-.69.27-1.11.27-.66,0-1.19-.24-1.59-.71-.41-.47-.61-1.12-.61-1.95s.22-1.56.67-2.09c.44-.53,1.03-.79,1.76-.79.38,0,.71.08.98.23.27.15.49.38.66.69h.02v-3.33h.66v7.83h-.66v-.93h-.02ZM410.88,80.94c0,.67.15,1.19.46,1.57.3.38.71.56,1.2.56.54,0,.96-.18,1.28-.54s.47-.8.47-1.33v-.88c0-.46-.15-.85-.45-1.17s-.69-.48-1.17-.48c-.54,0-.97.2-1.3.6-.33.4-.49.96-.49,1.66Z"/>
    <path class="cls-5" d="M420.79,80.98h-3.83c0,.71.18,1.23.51,1.58.33.34.77.52,1.32.52.25,0,.5-.04.75-.12.25-.08.5-.21.74-.38l.33.48c-.29.21-.59.36-.89.45-.3.1-.63.14-.99.14-.72,0-1.31-.23-1.76-.69s-.68-1.15-.68-2.07c0-.81.22-1.48.67-2,.45-.52,1.03-.79,1.74-.79.67,0,1.19.23,1.56.68.37.46.55,1.08.55,1.88v.32ZM420.11,80.41c-.01-.55-.15-.97-.4-1.28-.25-.31-.6-.46-1.05-.46s-.83.15-1.13.46c-.3.31-.49.73-.55,1.28h3.13Z"/>
    <path class="cls-5" d="M429.34,76.74h-2.14v6.78h-.69v-6.78h-2.14v-.62h4.96v.62Z"/>
    <path class="cls-5" d="M430.79,76.94c-.14,0-.27-.05-.36-.15-.1-.1-.15-.22-.15-.36s.05-.26.15-.36c.1-.1.22-.14.36-.14s.27.05.37.14c.1.1.15.22.15.36s-.05.27-.15.36c-.1.1-.22.15-.37.15ZM431.11,83.52h-.66v-5.29h.66v5.29Z"/>
    <path class="cls-5" d="M435.15,83.43c-.13.07-.27.11-.4.15s-.29.05-.46.05c-.38,0-.68-.11-.89-.34-.21-.23-.32-.57-.32-1.01v-3.47h-.93v-.58h.93v-1.34l.66-.22v1.56h1.36v.58h-1.36v3.39c0,.3.06.52.17.66.11.14.28.2.49.2.11,0,.22-.01.32-.04.1-.03.18-.06.26-.1l.19.52Z"/>
    <path class="cls-5" d="M440.3,83.52h-.66v-.9h-.02c-.18.34-.41.6-.69.77-.28.17-.61.26-.98.26-.63,0-1.1-.19-1.41-.58-.31-.38-.47-.96-.47-1.73v-3.11h.66v2.98c0,.64.11,1.11.34,1.41.22.3.57.45,1.04.45s.82-.17,1.11-.5c.29-.33.43-.77.43-1.32v-3.02h.66v5.29Z"/>
    <path class="cls-5" d="M442.01,83.52v-7.83h.66v7.83h-.66Z"/>
    <path class="cls-5" d="M446.55,83.64c-.78,0-1.4-.25-1.85-.75-.46-.5-.69-1.16-.69-1.97,0-.88.24-1.57.72-2.07.48-.5,1.12-.75,1.91-.75.77,0,1.38.25,1.82.74s.66,1.17.66,2.03-.23,1.5-.69,2.01c-.46.51-1.09.76-1.88.76ZM446.58,83.07c.59,0,1.05-.19,1.37-.58.32-.38.48-.92.48-1.61s-.16-1.25-.48-1.63-.77-.57-1.36-.57-1.05.2-1.39.59c-.34.4-.52.94-.52,1.64,0,.66.17,1.18.51,1.57.34.39.8.59,1.38.59Z"/>
    <path class="cls-5" d="M368.37,93.29h-.69v-7.41h.69v7.41Z"/>
    <path class="cls-5" d="M377.13,88l-2.6,6.49c-.15.38-.36.69-.63.93-.27.24-.58.36-.95.36-.1,0-.19,0-.27-.02-.08-.01-.17-.03-.25-.05l.14-.59c.06.02.12.04.17.05.06.01.11.02.18.02.21,0,.4-.07.56-.2.16-.13.28-.31.38-.53l.5-1.18-2.04-5.26h.74l1.51,4.19c.02.06.04.11.05.18.02.06.04.14.06.21h.03s.03-.1.05-.17.04-.13.07-.21l1.6-4.21h.7Z"/>
    <path class="cls-5" d="M381.74,93.29h-.69v-7.41h.69v7.41Z"/>
    <path class="cls-5" d="M384.35,93.29h-.69v-7.41h.69v7.41Z"/>
  </g>
  <g>
    <rect class="cls-3" x="181.67" width="149.75" height="54.53" rx="7.06" ry="7.06"/>
    <path class="cls-2" d="M181.67,44.96h149.75v2.5c0,3.9-3.17,7.06-7.06,7.06h-135.62c-3.9,0-7.06-3.17-7.06-7.06v-2.5h0Z"/>
  </g>
  <g>
    <rect class="cls-6" x="196.81" y="10.67" width="118.52" height="30.03"/>
    <path class="cls-5" d="M201.56,18.5h-3.78v-7.41h3.61v.62h-2.92v2.72h2.71v.63h-2.71v2.82h3.09v.62Z"/>
    <path class="cls-5" d="M202.99,18.5v-7.83h.66v7.83h-.66Z"/>
    <path class="cls-5" d="M209.5,15.95h-3.83c0,.71.18,1.23.51,1.58.33.34.77.52,1.32.52.25,0,.5-.04.75-.12.25-.08.5-.21.74-.38l.33.48c-.29.21-.59.36-.89.45-.3.1-.63.14-.99.14-.72,0-1.31-.23-1.76-.69s-.68-1.15-.68-2.07c0-.81.22-1.48.67-2,.45-.52,1.03-.79,1.74-.79.67,0,1.19.23,1.56.68.37.46.55,1.08.55,1.88v.32ZM208.82,15.39c-.01-.55-.15-.97-.4-1.28-.25-.31-.6-.46-1.05-.46s-.83.15-1.13.46c-.3.31-.49.73-.55,1.28h3.13Z"/>
    <path class="cls-5" d="M214.41,18.2c-.24.15-.48.26-.72.32-.24.07-.5.1-.79.1-.73,0-1.32-.24-1.78-.72s-.69-1.13-.69-1.95.24-1.54.73-2.08c.49-.53,1.13-.8,1.93-.8.24,0,.47.03.7.09.23.06.46.15.69.27l-.27.51c-.19-.1-.37-.17-.56-.22s-.38-.07-.59-.07c-.61,0-1.08.21-1.43.63-.35.42-.52.95-.52,1.61s.17,1.2.51,1.58.78.57,1.33.57c.2,0,.39-.03.58-.08s.39-.14.58-.26l.3.5Z"/>
    <path class="cls-5" d="M217.91,18.41c-.13.07-.27.11-.4.15s-.29.05-.46.05c-.38,0-.68-.11-.89-.34s-.32-.57-.32-1.01v-3.47h-.93v-.58h.93v-1.34l.66-.22v1.56h1.36v.58h-1.36v3.39c0,.3.06.52.17.66.11.14.28.2.49.2.11,0,.22-.01.32-.04.1-.03.18-.06.26-.1l.19.52Z"/>
    <path class="cls-5" d="M219.28,11.91c-.14,0-.27-.05-.36-.15s-.15-.22-.15-.36.05-.26.15-.36c.1-.1.22-.14.36-.14s.27.05.37.14c.1.1.15.22.15.36s-.05.27-.15.36c-.1.1-.22.15-.37.15ZM219.6,18.5h-.66v-5.29h.66v5.29Z"/>
    <path class="cls-5" d="M225.31,13.21l-2.1,5.29h-.64l-2.03-5.29h.73l1.46,4.02c.04.12.08.23.11.34.03.11.05.21.07.3h.02c.02-.12.04-.23.07-.34.03-.1.05-.2.09-.29l1.52-4.04h.7Z"/>
    <path class="cls-5" d="M228.41,18.62c-.78,0-1.4-.25-1.85-.75-.46-.5-.69-1.16-.69-1.97,0-.88.24-1.57.72-2.07s1.11-.75,1.91-.75c.77,0,1.38.25,1.82.74s.66,1.17.66,2.03-.23,1.5-.69,2.01c-.46.51-1.09.76-1.88.76ZM228.45,18.05c.59,0,1.05-.19,1.37-.58.32-.38.48-.92.48-1.61s-.16-1.25-.48-1.63-.77-.57-1.36-.57-1.05.2-1.39.59c-.34.4-.52.94-.52,1.64,0,.66.17,1.18.51,1.57.34.39.8.59,1.38.59Z"/>
    <path class="cls-5" d="M242.54,18.5h-.68v-5.11c0-.13,0-.3.02-.51.01-.21.03-.46.05-.75h-.02c-.05.15-.09.28-.13.4s-.08.21-.11.28l-2.58,5.7h-.29l-2.58-5.66c-.04-.09-.08-.19-.12-.31-.04-.12-.08-.26-.11-.42h-.03c.01.16.02.33.03.54,0,.2.01.43.01.68v5.17h-.68v-7.41h.81l2.52,5.56c.06.13.12.27.17.39s.09.25.12.36h.03c.06-.17.11-.31.16-.44.05-.13.09-.24.14-.34l2.52-5.53h.77v7.41Z"/>
    <path class="cls-5" d="M248.5,15.95h-3.83c0,.71.18,1.23.51,1.58.33.34.77.52,1.32.52.25,0,.5-.04.75-.12.25-.08.5-.21.74-.38l.33.48c-.29.21-.59.36-.89.45-.3.1-.63.14-.99.14-.72,0-1.31-.23-1.76-.69s-.68-1.15-.68-2.07c0-.81.22-1.48.67-2,.45-.52,1.03-.79,1.74-.79.67,0,1.19.23,1.56.68.37.46.55,1.08.55,1.88v.32ZM247.82,15.39c-.01-.55-.15-.97-.4-1.28-.25-.31-.6-.46-1.05-.46s-.83.15-1.13.46c-.3.31-.49.73-.55,1.28h3.13Z"/>
    <path class="cls-5" d="M254.02,18.5h-.66v-3.05c0-.6-.11-1.05-.33-1.35-.22-.3-.54-.45-.98-.45-.46,0-.85.17-1.15.52-.3.35-.45.78-.45,1.3v3.03h-.66v-5.29h.66v.92h.02c.2-.35.44-.61.74-.79.3-.17.64-.26,1.03-.26.58,0,1.02.19,1.32.57.3.38.46.92.46,1.62v3.23Z"/>
    <path class="cls-5" d="M259.23,18.2c-.24.15-.48.26-.72.32-.24.07-.5.1-.79.1-.73,0-1.32-.24-1.78-.72-.46-.48-.69-1.13-.69-1.95s.24-1.54.73-2.08c.49-.53,1.13-.8,1.93-.8.24,0,.47.03.7.09s.46.15.69.27l-.27.51c-.19-.1-.38-.17-.56-.22s-.38-.07-.59-.07c-.61,0-1.08.21-1.43.63-.35.42-.52.95-.52,1.61s.17,1.2.51,1.58c.34.38.78.57,1.33.57.2,0,.39-.03.58-.08.19-.05.39-.14.58-.26l.3.5Z"/>
    <path class="cls-5" d="M260.73,11.91c-.14,0-.27-.05-.36-.15-.1-.1-.15-.22-.15-.36s.05-.26.15-.36c.1-.1.22-.14.36-.14s.27.05.37.14c.1.1.15.22.15.36s-.05.27-.15.36c-.1.1-.22.15-.37.15ZM261.06,18.5h-.66v-5.29h.66v5.29Z"/>
    <path class="cls-5" d="M264.94,18.62c-.78,0-1.4-.25-1.85-.75-.46-.5-.69-1.16-.69-1.97,0-.88.24-1.57.71-2.07.48-.5,1.12-.75,1.91-.75.77,0,1.38.25,1.82.74.44.49.66,1.17.66,2.03s-.23,1.5-.69,2.01c-.46.51-1.09.76-1.88.76ZM264.98,18.05c.59,0,1.05-.19,1.37-.58.32-.38.48-.92.48-1.61s-.16-1.25-.48-1.63-.77-.57-1.36-.57-1.05.2-1.39.59c-.34.4-.52.94-.52,1.64,0,.66.17,1.18.51,1.57.34.39.8.59,1.38.59ZM264.95,12.2h-.56l1.18-1.69h.7l-1.32,1.69Z"/>
    <path class="cls-5" d="M273.07,18.5h-.66v-3.05c0-.6-.11-1.05-.33-1.35-.22-.3-.54-.45-.98-.45-.46,0-.85.17-1.15.52-.3.35-.46.78-.46,1.3v3.03h-.66v-5.29h.66v.92h.02c.2-.35.44-.61.74-.79.3-.17.64-.26,1.03-.26.58,0,1.01.19,1.32.57.3.38.46.92.46,1.62v3.23Z"/>
    <path class="cls-5" d="M283.03,11.09l-2.81,7.41h-.67l-2.7-7.41h.77l2.1,5.92c.04.11.07.22.1.33s.05.23.07.35h.02c.01-.1.04-.2.07-.32.03-.12.07-.24.12-.37l2.18-5.91h.74Z"/>
    <path class="cls-5" d="M290.97,13.21l-2.6,6.49c-.15.38-.36.69-.63.93-.27.24-.58.36-.95.36-.1,0-.19,0-.27-.02-.08-.01-.17-.03-.25-.05l.14-.59c.06.02.12.04.17.05.05.01.11.02.17.02.21,0,.4-.07.56-.2.16-.13.28-.31.38-.53l.5-1.18-2.04-5.26h.74l1.51,4.19c.02.06.04.11.05.18.02.06.04.14.06.21h.03s.03-.1.05-.17c.02-.06.04-.13.07-.21l1.6-4.21h.7Z"/>
    <path class="cls-5" d="M302.13,18.5h-.68v-5.11c0-.13,0-.3.02-.51,0-.21.03-.46.05-.75h-.02c-.05.15-.09.28-.13.4-.04.11-.08.21-.11.28l-2.58,5.7h-.29l-2.58-5.66c-.04-.09-.08-.19-.12-.31s-.08-.26-.11-.42h-.03c.01.16.02.33.03.54,0,.2.01.43.01.68v5.17h-.68v-7.41h.81l2.52,5.56c.06.13.12.27.17.39.05.13.09.25.12.36h.03c.06-.17.11-.31.16-.44.05-.13.09-.24.14-.34l2.52-5.53h.77v7.41Z"/>
    <path class="cls-5" d="M304.25,14.1c-.14,0-.27-.05-.36-.14-.1-.1-.15-.22-.15-.36s.05-.26.15-.36c.1-.09.22-.14.36-.14s.26.05.36.14c.1.09.15.21.15.36s-.05.26-.15.36c-.1.1-.22.14-.36.14ZM304.25,18.6c-.14,0-.27-.05-.36-.15-.1-.1-.15-.21-.15-.36s.05-.26.15-.36c.1-.1.22-.14.36-.14s.26.05.36.14c.1.1.15.22.15.36s-.05.26-.15.36c-.1.1-.22.15-.36.15Z"/>
    <path class="cls-5" d="M197.77,28.26v-7.41h1.95c1.27,0,2.22.3,2.87.91.65.6.97,1.5.97,2.7s-.35,2.08-1.06,2.77-1.67,1.03-2.88,1.03h-1.85ZM198.47,21.48v6.16h1.13c1.04,0,1.84-.27,2.4-.82.56-.55.85-1.33.85-2.34s-.26-1.77-.79-2.26c-.53-.49-1.32-.74-2.38-.74h-1.21Z"/>
    <path class="cls-5" d="M205.28,21.68c-.14,0-.27-.05-.36-.15s-.15-.22-.15-.36.05-.26.15-.36c.1-.1.22-.14.36-.14s.27.05.37.14c.1.1.15.22.15.36s-.05.27-.15.36c-.1.1-.22.15-.37.15ZM205.6,28.26h-.66v-5.29h.66v5.29Z"/>
    <path class="cls-5" d="M206.81,27.87l.32-.52c.2.14.42.25.64.34s.47.13.74.13c.4,0,.7-.08.9-.25.2-.17.3-.4.3-.71,0-.23-.08-.43-.25-.59s-.47-.31-.91-.44c-.6-.17-1.01-.38-1.24-.62s-.34-.54-.34-.89c0-.43.16-.79.48-1.06.32-.27.74-.41,1.28-.41.26,0,.51.03.76.1s.5.18.75.34l-.31.51c-.2-.12-.4-.22-.6-.28s-.4-.09-.61-.09c-.35,0-.63.07-.82.22-.19.15-.28.35-.28.6s.08.44.25.57c.17.13.47.27.9.39.55.17.96.37,1.21.61s.38.56.38.97c0,.49-.17.88-.5,1.17s-.78.43-1.36.43c-.31,0-.6-.04-.89-.13-.29-.09-.55-.21-.81-.39Z"/>
    <path class="cls-5" d="M215.75,25.72h-3.83c0,.71.18,1.23.51,1.58.33.34.77.52,1.32.52.25,0,.5-.04.75-.12.25-.08.5-.21.74-.38l.33.48c-.29.21-.59.36-.89.45-.3.1-.63.14-.99.14-.72,0-1.31-.23-1.76-.69s-.68-1.15-.68-2.07c0-.81.22-1.48.67-2,.45-.52,1.03-.79,1.74-.79.67,0,1.19.23,1.56.68.37.46.55,1.08.55,1.88v.32ZM215.07,25.16c-.01-.55-.15-.97-.4-1.28-.25-.31-.6-.46-1.05-.46s-.83.15-1.13.46c-.3.31-.49.73-.55,1.28h3.13Z"/>
    <path class="cls-5" d="M221.28,28.26h-.66v-3.05c0-.6-.11-1.05-.33-1.35-.22-.3-.54-.45-.98-.45-.46,0-.85.17-1.15.52-.3.35-.45.78-.45,1.3v3.03h-.66v-5.29h.66v.92h.02c.2-.35.44-.61.74-.79.3-.17.64-.26,1.03-.26.58,0,1.02.19,1.32.57.3.38.46.92.46,1.62v3.23ZM220.83,20.82c0,.36-.08.65-.25.87-.17.22-.39.33-.67.33-.12,0-.24-.03-.38-.08-.13-.06-.28-.14-.43-.25-.12-.09-.23-.15-.34-.19-.1-.04-.2-.06-.28-.06-.17,0-.29.05-.37.16-.08.11-.12.27-.12.5h-.43c0-.36.08-.65.25-.86.17-.22.39-.32.68-.32.12,0,.24.03.37.08.13.05.27.13.42.24.12.09.24.16.34.2.1.04.2.07.29.07.14,0,.25-.06.34-.17.08-.11.13-.28.13-.51h.44Z"/>
    <path class="cls-5" d="M225.04,28.39c-.78,0-1.4-.25-1.85-.75-.46-.5-.69-1.16-.69-1.97,0-.88.24-1.57.72-2.07s1.11-.75,1.91-.75c.77,0,1.38.25,1.82.74s.66,1.17.66,2.03-.23,1.5-.69,2.01c-.46.51-1.09.76-1.88.76ZM225.07,27.81c.59,0,1.05-.19,1.37-.58.32-.38.48-.92.48-1.61s-.16-1.25-.48-1.63-.77-.57-1.36-.57-1.05.2-1.39.59c-.34.4-.52.94-.52,1.64,0,.66.17,1.18.51,1.57.34.39.8.59,1.38.59Z"/>
    <path class="cls-5" d="M235.87,22.97l-2.6,6.49c-.15.38-.36.69-.63.93-.27.24-.58.36-.95.36-.1,0-.19,0-.27-.02s-.17-.03-.25-.05l.14-.59c.06.02.12.04.17.05.05.01.11.02.18.02.21,0,.4-.07.56-.2.16-.13.28-.31.38-.53l.5-1.18-2.04-5.26h.74l1.51,4.19c.02.06.04.11.05.18.02.06.04.14.06.21h.03s.03-.1.05-.17c.02-.06.04-.13.07-.21l1.6-4.21h.7Z"/>
    <path class="cls-5" d="M244.9,27.93c-.34.16-.68.28-1,.35-.33.07-.68.11-1.06.11-1.06,0-1.91-.34-2.54-1.02-.63-.68-.95-1.57-.95-2.67,0-1.21.35-2.17,1.04-2.89.7-.72,1.59-1.08,2.69-1.08.32,0,.62.03.91.09.29.06.58.15.89.28l-.24.57c-.27-.11-.53-.19-.77-.24-.25-.05-.52-.08-.81-.08-.89,0-1.61.3-2.16.89-.55.59-.82,1.4-.82,2.4s.26,1.72.79,2.27c.52.56,1.2.84,2.03.84.3,0,.6-.03.88-.09.28-.06.58-.16.88-.3l.26.57Z"/>
    <path class="cls-5" d="M250.36,28.26h-.66v-.9h-.02c-.18.34-.41.6-.69.77s-.61.26-.98.26c-.63,0-1.1-.19-1.41-.58-.31-.38-.47-.96-.47-1.73v-3.11h.66v2.98c0,.64.11,1.11.34,1.41.22.3.57.45,1.04.45s.82-.17,1.11-.5c.29-.33.43-.77.43-1.32v-3.02h.66v5.29Z"/>
    <path class="cls-5" d="M252.07,28.26v-7.83h.66v7.83h-.66Z"/>
    <path class="cls-5" d="M256.76,28.17c-.13.07-.27.11-.4.15s-.29.05-.46.05c-.38,0-.68-.11-.89-.34s-.32-.57-.32-1.01v-3.47h-.93v-.58h.93v-1.34l.66-.22v1.56h1.36v.58h-1.36v3.39c0,.3.06.52.17.66.11.14.28.2.49.2.11,0,.22-.01.32-.04.1-.03.18-.06.26-.1l.19.52Z"/>
    <path class="cls-5" d="M261.92,28.26h-.66v-.9h-.02c-.18.34-.41.6-.69.77-.28.17-.61.26-.98.26-.63,0-1.1-.19-1.41-.58-.31-.38-.47-.96-.47-1.73v-3.11h.66v2.98c0,.64.11,1.11.34,1.41s.57.45,1.04.45.82-.17,1.11-.5c.29-.33.43-.77.43-1.32v-3.02h.66v5.29Z"/>
    <path class="cls-5" d="M266.15,23.55c-.08-.03-.15-.05-.21-.06s-.13-.02-.21-.02c-.44,0-.79.2-1.05.6-.26.4-.39.93-.39,1.59v2.59h-.66v-5.29h.66v1.11h.02c.12-.39.31-.68.57-.89.26-.21.56-.31.91-.31.09,0,.17,0,.25.02.08.01.15.03.22.05l-.1.6Z"/>
    <path class="cls-5" d="M270.91,28.26h-.66v-.95h-.02c-.18.34-.41.6-.71.79-.29.19-.63.28-1,.28-.5,0-.9-.14-1.2-.43-.3-.29-.45-.66-.45-1.11s.15-.82.45-1.11c.3-.29.77-.48,1.41-.57l1.52-.22v-.14c-.01-.48-.13-.82-.34-1.05-.21-.22-.51-.34-.89-.34-.3,0-.57.05-.83.16-.26.11-.5.27-.73.49l-.4-.41c.28-.28.59-.48.91-.61.32-.13.68-.2,1.08-.2.61,0,1.08.17,1.39.5s.47.83.47,1.48v3.44ZM270.25,26.02v-.52l-1.37.2c-.48.07-.82.19-1.03.36-.21.17-.31.42-.31.75,0,.31.1.56.29.75s.46.28.78.28c.48,0,.88-.17,1.18-.51.3-.34.46-.77.46-1.3Z"/>
    <path class="cls-5" d="M280.89,20.85l-2.81,7.41h-.67l-2.7-7.41h.77l2.1,5.92c.04.11.07.22.1.33s.05.23.07.35h.02c.01-.1.04-.2.07-.32.03-.12.07-.24.12-.37l2.18-5.91h.74Z"/>
    <path class="cls-5" d="M282.22,21.68c-.14,0-.27-.05-.36-.15-.1-.1-.15-.22-.15-.36s.05-.26.15-.36c.1-.1.22-.14.36-.14s.27.05.37.14c.1.1.15.22.15.36s-.05.27-.15.36c-.1.1-.22.15-.37.15ZM282.55,28.26h-.66v-5.29h.66v5.29Z"/>
    <path class="cls-5" d="M283.76,27.87l.32-.52c.2.14.42.25.64.34s.47.13.74.13c.4,0,.7-.08.9-.25.2-.17.3-.4.3-.71,0-.23-.08-.43-.25-.59-.16-.16-.47-.31-.91-.44-.6-.17-1.01-.38-1.24-.62-.23-.24-.34-.54-.34-.89,0-.43.16-.79.47-1.06.32-.27.74-.41,1.28-.41.26,0,.51.03.76.1s.5.18.75.34l-.31.51c-.2-.12-.4-.22-.6-.28-.2-.06-.4-.09-.61-.09-.35,0-.63.07-.82.22-.19.15-.28.35-.28.6s.08.44.25.57c.17.13.47.27.9.39.55.17.96.37,1.21.61s.38.56.38.97c0,.49-.17.88-.5,1.17-.33.28-.78.43-1.36.43-.31,0-.6-.04-.89-.13-.29-.09-.55-.21-.81-.39Z"/>
    <path class="cls-5" d="M292.67,28.26h-.66v-.9h-.02c-.18.34-.41.6-.69.77-.28.17-.61.26-.98.26-.63,0-1.1-.19-1.41-.58-.31-.38-.47-.96-.47-1.73v-3.11h.66v2.98c0,.64.11,1.11.34,1.41.22.3.57.45,1.04.45s.82-.17,1.11-.5c.29-.33.43-.77.43-1.32v-3.02h.66v5.29Z"/>
    <path class="cls-5" d="M298.08,28.26h-.66v-.95h-.02c-.18.34-.41.6-.71.79-.29.19-.63.28-1,.28-.5,0-.9-.14-1.2-.43-.3-.29-.45-.66-.45-1.11s.15-.82.45-1.11c.3-.29.77-.48,1.41-.57l1.52-.22v-.14c-.01-.48-.13-.82-.34-1.05-.21-.22-.51-.34-.89-.34-.3,0-.57.05-.83.16-.26.11-.5.27-.73.49l-.4-.41c.28-.28.59-.48.91-.61.32-.13.68-.2,1.08-.2.61,0,1.08.17,1.39.5s.47.83.47,1.48v3.44ZM297.42,26.02v-.52l-1.37.2c-.48.07-.82.19-1.03.36-.21.17-.31.42-.31.75,0,.31.1.56.29.75s.46.28.78.28c.48,0,.88-.17,1.18-.51.3-.34.46-.77.46-1.3Z"/>
    <path class="cls-5" d="M299.68,28.26v-7.83h.66v7.83h-.66Z"/>
    <path class="cls-5" d="M201.81,35.49h-3.83c0,.71.18,1.23.51,1.58.33.34.77.52,1.32.52.25,0,.5-.04.75-.12.25-.08.5-.21.74-.38l.33.48c-.29.21-.59.36-.89.45-.3.1-.63.14-.99.14-.72,0-1.31-.23-1.76-.69s-.68-1.15-.68-2.07c0-.81.22-1.48.67-2,.45-.52,1.03-.79,1.74-.79.67,0,1.19.23,1.56.68.37.46.55,1.08.55,1.88v.32ZM201.13,34.92c-.01-.55-.15-.97-.4-1.28-.25-.31-.6-.46-1.05-.46s-.83.15-1.13.46c-.3.31-.49.73-.55,1.28h3.13Z"/>
    <path class="cls-5" d="M207.34,38.03h-.66v-3.05c0-.6-.11-1.05-.33-1.35-.22-.3-.54-.45-.98-.45-.46,0-.85.17-1.15.52-.3.35-.45.78-.45,1.3v3.03h-.66v-5.29h.66v.92h.02c.2-.35.44-.61.74-.79.3-.17.64-.26,1.03-.26.58,0,1.02.19,1.32.57.3.38.46.92.46,1.62v3.23Z"/>
    <path class="cls-5" d="M217.04,37.7c-.34.16-.68.28-1,.35-.33.07-.68.11-1.06.11-1.06,0-1.91-.34-2.54-1.02-.63-.68-.95-1.57-.95-2.67,0-1.21.35-2.17,1.04-2.89.7-.72,1.59-1.08,2.69-1.08.32,0,.62.03.91.09.29.06.58.15.89.28l-.24.57c-.27-.11-.53-.19-.77-.24-.25-.05-.52-.08-.81-.08-.89,0-1.61.3-2.16.89-.55.59-.82,1.4-.82,2.4s.26,1.72.79,2.27c.52.56,1.2.84,2.03.84.3,0,.6-.03.88-.09.28-.06.58-.16.88-.3l.26.57Z"/>
    <path class="cls-5" d="M222.62,38.03h-.66v-3.11c0-.59-.11-1.03-.32-1.31s-.55-.43-.99-.43-.81.17-1.12.51c-.31.34-.47.8-.47,1.37v2.97h-.66v-7.83h.66v3.46h.02c.21-.35.46-.61.75-.78.3-.17.64-.26,1.02-.26.59,0,1.03.18,1.32.55s.45.9.45,1.6v3.27Z"/>
    <path class="cls-5" d="M224.54,31.45c-.14,0-.27-.05-.36-.15s-.15-.22-.15-.36.05-.26.15-.36c.1-.1.22-.14.36-.14s.27.05.37.14c.1.1.15.22.15.36s-.05.27-.15.36c-.1.1-.22.15-.37.15ZM224.87,38.03h-.66v-5.29h.66v5.29Z"/>
    <path class="cls-5" d="M226.57,38.03v-7.83h.66v7.83h-.66Z"/>
    <path class="cls-5" d="M233.09,35.49h-3.83c0,.71.18,1.23.51,1.58.33.34.77.52,1.32.52.25,0,.5-.04.75-.12.25-.08.5-.21.74-.38l.33.48c-.29.21-.59.36-.89.45-.3.1-.63.14-.99.14-.72,0-1.31-.23-1.76-.69s-.68-1.15-.68-2.07c0-.81.22-1.48.67-2,.45-.52,1.03-.79,1.74-.79.67,0,1.19.23,1.56.68.37.46.55,1.08.55,1.88v.32ZM232.4,34.92c-.01-.55-.15-.97-.4-1.28-.25-.31-.6-.46-1.05-.46s-.83.15-1.13.46c-.3.31-.49.73-.55,1.28h3.13Z"/>
  </g>
  <g>
    <path class="cls-4" d="M67.58,146.74c-.42.2-.83.34-1.22.43-.4.09-.83.13-1.29.13-1.24,0-2.22-.35-2.93-1.05-.71-.7-1.06-1.69-1.06-2.98,0-1.22.39-2.22,1.17-3.02.78-.8,1.8-1.2,3.07-1.2.43,0,.82.03,1.16.1.34.07.69.17,1.05.31l-.53,1.41c-.27-.11-.53-.19-.79-.24s-.54-.07-.83-.07c-.67,0-1.25.23-1.73.7-.48.47-.73,1.1-.73,1.9s.21,1.46.64,1.92c.42.46,1.01.7,1.74.7.21,0,.46-.03.75-.1.29-.07.59-.18.89-.33l.65,1.4Z"/>
    <path class="cls-4" d="M69.56,140.54c-.3,0-.54-.09-.73-.27-.19-.18-.28-.4-.28-.67s.09-.5.28-.68c.19-.17.43-.26.73-.26s.54.09.73.26c.19.17.28.4.28.68s-.09.5-.28.68c-.19.18-.43.26-.73.26ZM70.39,147.16h-1.7v-5.84h1.7v5.84Z"/>
    <path class="cls-4" d="M76.74,146.77c-.3.18-.6.32-.91.4-.31.08-.64.13-1,.13-.97,0-1.72-.27-2.27-.81-.55-.54-.82-1.25-.82-2.11,0-.99.29-1.77.87-2.34.58-.57,1.36-.86,2.32-.86.36,0,.67.04.94.11.27.07.54.18.81.33l-.64,1.15c-.17-.1-.34-.17-.51-.21-.17-.04-.35-.06-.54-.06-.48,0-.85.16-1.12.46-.27.31-.41.75-.41,1.31s.14.96.43,1.27c.29.3.65.46,1.09.46.13,0,.29-.03.48-.08s.39-.14.58-.26l.67,1.13Z"/>
    <path class="cls-4" d="M77.79,147.16v-8.43h1.7v8.43h-1.7Z"/>
    <path class="cls-4" d="M83.86,147.3c-.96,0-1.72-.27-2.27-.82-.55-.55-.83-1.29-.82-2.21,0-.97.29-1.73.86-2.27s1.34-.82,2.32-.82,1.71.27,2.25.81c.55.54.82,1.27.82,2.17,0,.96-.28,1.72-.85,2.29-.57.57-1.34.85-2.31.85ZM83.92,145.99c.45,0,.79-.15,1.02-.45.23-.3.34-.75.34-1.34s-.11-.99-.34-1.28c-.23-.29-.57-.43-1.03-.43s-.79.15-1.04.46-.37.74-.37,1.29.12,1.01.36,1.31.59.44,1.07.44Z"/>
    <path class="cls-4" d="M91.61,147.16v-7.98h2.86c.88,0,1.55.17,2.02.5.47.34.71.81.71,1.43,0,.43-.13.8-.38,1.12-.25.32-.58.55-.98.68v.02c.52.07.93.27,1.23.61.31.34.46.75.46,1.24,0,.73-.26,1.3-.78,1.73s-1.23.64-2.12.64h-3.02ZM93.34,140.47v1.99h.81c.38,0,.68-.09.9-.27.22-.18.33-.43.33-.76s-.11-.56-.33-.72-.56-.24-1-.24h-.7ZM93.34,143.77v2.1h.99c.43,0,.76-.1,1-.3.24-.2.36-.47.36-.81,0-.31-.12-.56-.36-.73-.24-.18-.57-.26-1-.26h-.99Z"/>
    <path class="cls-4" d="M103.58,147.16h-1.62v-.85h-.02c-.19.33-.44.57-.73.74-.29.17-.62.25-1,.25-.52,0-.96-.16-1.31-.47s-.53-.74-.53-1.29.18-.99.53-1.32c.35-.34.9-.56,1.65-.66l1.43-.2v-.11c0-.3-.09-.53-.28-.68-.19-.15-.44-.23-.77-.23-.24,0-.51.04-.8.12-.29.08-.58.22-.87.4l-.6-1.01c.38-.23.77-.41,1.16-.52.39-.11.82-.17,1.27-.17.85,0,1.47.2,1.88.61.41.41.61,1.02.61,1.84v3.53ZM101.16,140.42h-1.24l1.44-1.8h1.52l-1.72,1.8ZM101.98,144.78v-.41l-1.11.14c-.31.04-.54.13-.7.27-.15.14-.23.33-.23.56,0,.21.07.39.22.53.15.14.35.21.6.21.36,0,.65-.12.87-.36.22-.24.34-.55.34-.93Z"/>
    <path class="cls-4" d="M104.56,146.67l.71-1.14c.2.15.43.28.7.39.27.11.56.16.89.16.25,0,.45-.04.61-.14.16-.09.24-.23.24-.41,0-.15-.06-.27-.18-.35-.12-.09-.35-.17-.68-.24-.72-.16-1.24-.37-1.56-.65-.31-.28-.47-.67-.47-1.17,0-.59.23-1.05.7-1.4.47-.35,1.04-.52,1.72-.52.35,0,.68.04.99.14s.61.23.88.4l-.64,1.1c-.24-.15-.46-.26-.66-.33-.21-.07-.42-.1-.64-.1-.25,0-.45.05-.61.14-.15.1-.23.22-.23.37,0,.17.07.29.21.37.14.08.41.16.8.24.67.14,1.15.36,1.45.64.29.29.44.68.44,1.18,0,.59-.22,1.06-.67,1.42-.44.36-1.03.54-1.76.54-.4,0-.79-.05-1.15-.15-.36-.1-.72-.26-1.08-.48Z"/>
    <path class="cls-4" d="M111.2,140.54c-.3,0-.54-.09-.73-.27-.19-.18-.28-.4-.28-.67s.09-.5.28-.68c.19-.17.43-.26.73-.26s.54.09.73.26c.19.17.28.4.28.68s-.09.5-.28.68c-.19.18-.43.26-.73.26ZM112.03,147.16h-1.7v-5.84h1.7v5.84Z"/>
    <path class="cls-4" d="M118.37,146.77c-.3.18-.6.32-.91.4-.31.08-.64.13-1,.13-.97,0-1.72-.27-2.27-.81-.55-.54-.82-1.25-.82-2.11,0-.99.29-1.77.87-2.34.58-.57,1.36-.86,2.32-.86.36,0,.67.04.94.11.27.07.54.18.81.33l-.64,1.15c-.17-.1-.34-.17-.51-.21-.17-.04-.35-.06-.54-.06-.48,0-.85.16-1.12.46-.27.31-.41.75-.41,1.31s.14.96.43,1.27c.29.3.65.46,1.09.46.13,0,.29-.03.48-.08s.39-.14.58-.26l.67,1.13Z"/>
    <path class="cls-4" d="M122.18,147.3c-.96,0-1.72-.27-2.27-.82-.55-.55-.83-1.29-.82-2.21,0-.97.29-1.73.86-2.27s1.34-.82,2.32-.82,1.71.27,2.25.81c.55.54.82,1.27.82,2.17,0,.96-.28,1.72-.85,2.29-.57.57-1.34.85-2.31.85ZM122.25,145.99c.45,0,.79-.15,1.02-.45.23-.3.34-.75.34-1.34s-.11-.99-.34-1.28c-.23-.29-.57-.43-1.03-.43s-.79.15-1.04.46-.37.74-.37,1.29.12,1.01.36,1.31.59.44,1.07.44Z"/>
    <path class="cls-4" d="M82.1,158.55h-1.74v-7.98h1.74v7.98Z"/>
    <path class="cls-4" d="M91.81,158.55h-1.62v-.85h-.02c-.19.33-.44.57-.73.74-.29.17-.62.25-1,.25-.52,0-.96-.16-1.31-.47s-.53-.74-.53-1.29.18-.99.53-1.32c.35-.34.9-.56,1.65-.66l1.43-.2v-.11c0-.3-.09-.53-.28-.68-.19-.15-.44-.23-.77-.23-.24,0-.51.04-.8.12-.29.08-.58.22-.87.4l-.6-1.01c.38-.23.77-.41,1.16-.52.39-.11.82-.17,1.27-.17.85,0,1.47.2,1.88.61.41.41.61,1.02.61,1.84v3.53ZM90.2,156.18v-.41l-1.11.14c-.31.04-.54.13-.7.27-.15.14-.23.33-.23.56,0,.21.07.39.22.53.15.14.35.21.6.21.36,0,.65-.12.87-.36.22-.24.34-.55.34-.93Z"/>
    <path class="cls-4" d="M98.38,158.55h-1.74v-7.98h1.74v7.98Z"/>
    <path class="cls-4" d="M106.92,150.57l-2.76,7.98h-1.97l-2.73-7.98h1.88l1.7,5.61c.04.14.07.28.1.41.03.13.05.26.06.38h.03c.01-.13.04-.26.07-.39.03-.13.07-.28.11-.42l1.7-5.59h1.82Z"/>
  </g>
  <g>
    <path class="cls-4" d="M214.11,146.74c-.42.2-.83.34-1.22.43-.4.09-.83.13-1.29.13-1.24,0-2.22-.35-2.93-1.05-.71-.7-1.06-1.69-1.06-2.98,0-1.22.39-2.22,1.17-3.02.78-.8,1.8-1.2,3.07-1.2.43,0,.82.03,1.16.1.34.07.69.17,1.05.31l-.53,1.41c-.27-.11-.53-.19-.79-.24s-.54-.07-.83-.07c-.67,0-1.25.23-1.73.7-.48.47-.73,1.1-.73,1.9s.21,1.46.64,1.92c.42.46,1.01.7,1.74.7.21,0,.46-.03.75-.1.29-.07.59-.18.89-.33l.65,1.4Z"/>
    <path class="cls-4" d="M216.09,140.54c-.3,0-.54-.09-.73-.27-.19-.18-.28-.4-.28-.67s.09-.5.28-.68c.19-.17.43-.26.73-.26s.54.09.73.26c.19.17.28.4.28.68s-.09.5-.28.68c-.19.18-.43.26-.73.26ZM216.92,147.16h-1.7v-5.84h1.7v5.84Z"/>
    <path class="cls-4" d="M223.27,146.77c-.3.18-.6.32-.91.4-.31.08-.64.13-1,.13-.97,0-1.72-.27-2.27-.81-.55-.54-.82-1.25-.82-2.11,0-.99.29-1.77.87-2.34.58-.57,1.36-.86,2.32-.86.36,0,.67.04.94.11.27.07.54.18.81.33l-.64,1.15c-.17-.1-.34-.17-.51-.21-.17-.04-.35-.06-.54-.06-.48,0-.85.16-1.12.46-.27.31-.41.75-.41,1.31s.14.96.43,1.27c.29.3.65.46,1.09.46.13,0,.29-.03.48-.08s.39-.14.58-.26l.67,1.13Z"/>
    <path class="cls-4" d="M224.32,147.16v-8.43h1.7v8.43h-1.7Z"/>
    <path class="cls-4" d="M230.39,147.3c-.96,0-1.72-.27-2.27-.82-.55-.55-.83-1.29-.82-2.21,0-.97.29-1.73.86-2.27s1.34-.82,2.32-.82,1.71.27,2.25.81c.55.54.82,1.27.82,2.17,0,.96-.28,1.72-.85,2.29-.57.57-1.34.85-2.31.85ZM230.46,145.99c.45,0,.79-.15,1.02-.45.23-.3.34-.75.34-1.34s-.11-.99-.34-1.28c-.23-.29-.57-.43-1.03-.43s-.79.15-1.04.46-.37.74-.37,1.29.12,1.01.36,1.31.59.44,1.07.44Z"/>
    <path class="cls-4" d="M242.88,147.16h-4.75v-7.98h4.56v1.42h-2.83v1.84h2.63v1.42h-2.63v1.89h3.01v1.41Z"/>
    <path class="cls-4" d="M243.57,146.67l.71-1.14c.2.15.43.28.7.39.27.11.56.16.89.16.25,0,.45-.04.61-.14.16-.09.24-.23.24-.41,0-.15-.06-.27-.18-.35-.12-.09-.35-.17-.68-.24-.72-.16-1.24-.37-1.56-.65-.31-.28-.47-.67-.47-1.17,0-.59.23-1.05.7-1.4.47-.35,1.04-.52,1.72-.52.35,0,.68.04.99.14s.61.23.88.4l-.64,1.1c-.24-.15-.46-.26-.66-.33-.21-.07-.42-.1-.64-.1-.25,0-.45.05-.61.14-.15.1-.23.22-.23.37,0,.17.07.29.21.37.14.08.41.16.8.24.67.14,1.15.36,1.45.64.29.29.44.68.44,1.18,0,.59-.22,1.06-.67,1.42-.44.36-1.03.54-1.76.54-.4,0-.79-.05-1.15-.15-.36-.1-.72-.26-1.08-.48Z"/>
    <path class="cls-4" d="M251.06,146.46h-.02v3.32h-1.7v-8.46h1.7v.9h.02c.22-.35.49-.61.81-.78.32-.17.68-.26,1.08-.26.76,0,1.34.26,1.76.78.41.52.62,1.23.62,2.12,0,.97-.24,1.75-.72,2.34-.48.59-1.12.88-1.92.88-.36,0-.67-.07-.94-.21-.27-.14-.5-.35-.69-.63ZM251.01,144.07v.51c0,.41.11.75.34,1.01.22.27.52.4.88.4.43,0,.76-.17,1-.5.24-.33.36-.8.36-1.4,0-.53-.1-.93-.31-1.2-.21-.27-.52-.4-.93-.4s-.71.14-.96.43c-.25.29-.37.67-.37,1.15Z"/>
    <path class="cls-4" d="M261.79,144.72h-3.84c.03.45.18.79.44,1.01.26.22.63.34,1.09.34.17,0,.4-.05.7-.15.29-.1.58-.25.87-.46l.74.99c-.4.3-.8.51-1.21.65-.41.14-.87.21-1.36.21-.93,0-1.65-.26-2.17-.78-.52-.52-.77-1.25-.77-2.19s.27-1.69.82-2.28c.54-.58,1.24-.87,2.07-.87s1.45.24,1.93.73c.48.49.71,1.19.71,2.11v.69ZM260.21,143.65c0-.46-.09-.79-.27-1-.18-.21-.45-.31-.8-.31-.31,0-.57.12-.79.35s-.36.55-.4.95h2.27Z"/>
    <path class="cls-4" d="M267.62,146.77c-.3.18-.6.32-.91.4-.31.08-.64.13-1,.13-.97,0-1.72-.27-2.27-.81-.54-.54-.82-1.25-.82-2.11,0-.99.29-1.77.87-2.34s1.36-.86,2.32-.86c.36,0,.67.04.94.11.27.07.54.18.81.33l-.64,1.15c-.17-.1-.34-.17-.51-.21-.17-.04-.35-.06-.54-.06-.48,0-.85.16-1.12.46-.27.31-.41.75-.41,1.31s.14.96.43,1.27c.29.3.65.46,1.09.46.13,0,.29-.03.48-.08.19-.05.39-.14.58-.26l.67,1.13Z"/>
    <path class="cls-4" d="M269.54,140.54c-.3,0-.54-.09-.73-.27-.19-.18-.28-.4-.28-.67s.09-.5.28-.68c.19-.17.43-.26.73-.26s.54.09.73.26c.19.17.28.4.28.68s-.09.5-.28.68c-.19.18-.43.26-.73.26ZM270.38,147.16h-1.7v-5.84h1.7v5.84Z"/>
    <path class="cls-4" d="M276.86,147.16h-1.62v-.85h-.02c-.19.33-.44.57-.73.74-.29.17-.62.25-1,.25-.52,0-.96-.16-1.31-.47-.36-.31-.53-.74-.53-1.29s.18-.99.53-1.32c.35-.34.9-.56,1.65-.66l1.43-.2v-.11c0-.3-.09-.53-.28-.68-.19-.15-.44-.23-.77-.23-.25,0-.51.04-.8.12-.29.08-.58.22-.87.4l-.6-1.01c.38-.23.77-.41,1.16-.52.39-.11.82-.17,1.27-.17.85,0,1.47.2,1.88.61.41.41.61,1.02.61,1.84v3.53ZM275.26,144.78v-.41l-1.11.14c-.31.04-.54.13-.7.27-.15.14-.23.33-.23.56,0,.21.07.39.22.53.15.14.35.21.6.21.36,0,.65-.12.87-.36.22-.24.34-.55.34-.93Z"/>
    <path class="cls-4" d="M278.39,147.16v-8.43h1.7v8.43h-1.7Z"/>
    <path class="cls-4" d="M282.57,140.54c-.3,0-.54-.09-.73-.27-.19-.18-.28-.4-.28-.67s.09-.5.28-.68c.19-.17.43-.26.73-.26s.54.09.73.26c.19.17.28.4.28.68s-.09.5-.28.68c-.19.18-.43.26-.73.26ZM283.4,147.16h-1.7v-5.84h1.7v5.84Z"/>
    <path class="cls-4" d="M289.66,142.14l-2.86,3.76h2.88v1.26h-5.19v-.69l3-3.88h-2.7v-1.26h4.87v.82Z"/>
    <path class="cls-4" d="M295.54,147.16h-1.62v-.85h-.02c-.19.33-.44.57-.73.74-.29.17-.62.25-1,.25-.52,0-.96-.16-1.31-.47-.36-.31-.53-.74-.53-1.29s.18-.99.53-1.32c.35-.34.9-.56,1.65-.66l1.43-.2v-.11c0-.3-.09-.53-.28-.68-.19-.15-.44-.23-.77-.23-.25,0-.51.04-.8.12-.29.08-.58.22-.87.4l-.6-1.01c.38-.23.77-.41,1.16-.52.39-.11.82-.17,1.27-.17.85,0,1.47.2,1.88.61.41.41.61,1.02.61,1.84v3.53ZM293.94,144.78v-.41l-1.11.14c-.31.04-.54.13-.7.27-.15.14-.23.33-.23.56,0,.21.07.39.22.53.15.14.35.21.6.21.36,0,.65-.12.87-.36.22-.24.34-.55.34-.93Z"/>
    <path class="cls-4" d="M300.98,146.34c-.21.32-.46.56-.77.72-.3.16-.66.25-1.06.25-.73,0-1.31-.26-1.76-.78-.45-.52-.67-1.24-.67-2.16,0-.97.25-1.74.74-2.32.49-.58,1.13-.87,1.93-.87.38,0,.7.07.96.21.27.14.48.35.63.62h.02v-3.28h1.7v8.43h-1.7v-.82h-.02ZM298.45,144.32c0,.54.11.95.34,1.24.23.29.54.43.94.43s.7-.15.94-.45c.24-.3.36-.7.36-1.19v-.48c0-.39-.12-.72-.34-.98-.23-.26-.53-.39-.9-.39-.42,0-.75.16-.98.49-.24.32-.35.77-.35,1.34Z"/>
    <path class="cls-4" d="M307.07,147.3c-.96,0-1.72-.27-2.27-.82-.55-.55-.83-1.29-.82-2.21,0-.97.29-1.73.86-2.27s1.34-.82,2.32-.82,1.71.27,2.25.81c.55.54.82,1.27.82,2.17,0,.96-.28,1.72-.85,2.29-.57.57-1.34.85-2.31.85ZM307.13,145.99c.45,0,.79-.15,1.02-.45.23-.3.34-.75.34-1.34s-.11-.99-.34-1.28c-.23-.29-.57-.43-1.03-.43s-.79.15-1.04.46c-.25.31-.37.74-.37,1.29s.12,1.01.36,1.31.59.44,1.07.44Z"/>
    <path class="cls-4" d="M246.98,150.57l-2.76,7.98h-1.97l-2.73-7.98h1.88l1.7,5.61c.04.14.07.28.1.41.03.13.05.26.06.38h.03c.01-.13.04-.26.07-.39.03-.13.07-.28.11-.42l1.7-5.59h1.82Z"/>
    <path class="cls-4" d="M255.83,158.55h-1.62v-.85h-.02c-.19.33-.44.57-.73.74-.29.17-.62.25-1,.25-.52,0-.96-.16-1.31-.47s-.53-.74-.53-1.29.18-.99.53-1.32c.35-.34.9-.56,1.65-.66l1.43-.2v-.11c0-.3-.09-.53-.28-.68-.19-.15-.44-.23-.77-.23-.24,0-.51.04-.8.12-.29.08-.58.22-.87.4l-.6-1.01c.38-.23.77-.41,1.16-.52.39-.11.82-.17,1.27-.17.85,0,1.47.2,1.88.61.41.41.61,1.02.61,1.84v3.53ZM254.23,156.18v-.41l-1.11.14c-.31.04-.54.13-.7.27-.15.14-.23.33-.23.56,0,.21.07.39.22.53.15.14.35.21.6.21.36,0,.65-.12.87-.36.22-.24.34-.55.34-.93Z"/>
    <path class="cls-4" d="M267.26,150.57l-2.76,7.98h-1.97l-2.73-7.98h1.88l1.7,5.61c.04.14.07.28.1.41.03.13.05.26.06.38h.03c.01-.13.04-.26.07-.39.03-.13.07-.28.11-.42l1.7-5.59h1.82Z"/>
    <path class="cls-4" d="M270.08,158.55h-1.74v-7.98h1.74v7.98Z"/>
    <path class="cls-4" d="M273.77,158.55h-1.74v-7.98h1.74v7.98Z"/>
    <path class="cls-4" d="M277.45,158.55h-1.74v-7.98h1.74v7.98Z"/>
  </g>
  <g>
    <path class="cls-4" d="M390.64,146.74c-.42.2-.83.34-1.22.43-.4.09-.83.13-1.29.13-1.24,0-2.22-.35-2.93-1.05-.71-.7-1.07-1.69-1.07-2.98,0-1.22.39-2.22,1.17-3.02.78-.8,1.8-1.2,3.07-1.2.43,0,.82.03,1.16.1.34.07.69.17,1.05.31l-.53,1.41c-.27-.11-.53-.19-.79-.24s-.54-.07-.83-.07c-.67,0-1.25.23-1.73.7-.48.47-.73,1.1-.73,1.9s.21,1.46.64,1.92c.42.46,1.01.7,1.74.7.21,0,.46-.03.75-.1s.59-.18.89-.33l.65,1.4Z"/>
    <path class="cls-4" d="M392.62,140.54c-.3,0-.54-.09-.73-.27-.19-.18-.28-.4-.28-.67s.09-.5.28-.68c.19-.17.43-.26.73-.26s.54.09.73.26c.19.17.28.4.28.68s-.09.5-.28.68-.43.26-.73.26ZM393.45,147.16h-1.7v-5.84h1.7v5.84Z"/>
    <path class="cls-4" d="M399.8,146.77c-.3.18-.6.32-.91.4s-.64.13-1,.13c-.97,0-1.72-.27-2.27-.81-.54-.54-.82-1.25-.82-2.11,0-.99.29-1.77.87-2.34s1.36-.86,2.32-.86c.36,0,.67.04.94.11s.54.18.82.33l-.64,1.15c-.17-.1-.34-.17-.51-.21-.17-.04-.35-.06-.54-.06-.48,0-.85.16-1.12.46s-.41.75-.41,1.31.14.96.43,1.27c.29.3.65.46,1.09.46.13,0,.29-.03.48-.08.19-.05.39-.14.58-.26l.67,1.13Z"/>
    <path class="cls-4" d="M400.85,147.16v-8.43h1.7v8.43h-1.7Z"/>
    <path class="cls-4" d="M406.92,147.3c-.96,0-1.72-.27-2.27-.82s-.83-1.29-.82-2.21c0-.97.29-1.73.86-2.27s1.34-.82,2.32-.82,1.71.27,2.25.81c.54.54.82,1.27.82,2.17,0,.96-.28,1.72-.85,2.29-.57.57-1.34.85-2.31.85ZM406.98,145.99c.45,0,.79-.15,1.02-.45.23-.3.34-.75.34-1.34s-.11-.99-.34-1.28c-.23-.29-.57-.43-1.03-.43s-.79.15-1.04.46-.37.74-.37,1.29.12,1.01.36,1.31.59.44,1.07.44Z"/>
    <path class="cls-4" d="M416.4,144.52v2.64h-1.74v-7.98h2.77c1,0,1.75.22,2.25.65.5.43.75,1.08.75,1.95,0,.82-.29,1.48-.86,1.99-.57.5-1.34.76-2.29.76h-.87ZM416.4,140.53v2.67h.72c.49,0,.86-.11,1.1-.34.25-.22.37-.56.37-1.01s-.12-.77-.37-.99c-.24-.22-.61-.33-1.1-.33h-.73Z"/>
    <path class="cls-4" d="M425.15,142.74c-.07-.02-.15-.03-.23-.04-.08,0-.16-.01-.26-.01-.46,0-.81.15-1.05.44-.24.29-.35.7-.35,1.23v2.8h-1.7v-5.84h1.7v1.09h.02c.14-.4.34-.69.6-.89s.57-.3.95-.3c.09,0,.18,0,.26.02.08.01.17.03.26.04l-.19,1.46Z"/>
    <path class="cls-4" d="M428.99,147.3c-.96,0-1.72-.27-2.27-.82s-.83-1.29-.82-2.21c0-.97.29-1.73.86-2.27s1.34-.82,2.32-.82,1.71.27,2.25.81c.54.54.82,1.27.82,2.17,0,.96-.28,1.72-.85,2.29-.57.57-1.34.85-2.31.85ZM429.05,145.99c.45,0,.79-.15,1.02-.45.23-.3.34-.75.34-1.34s-.11-.99-.34-1.28c-.23-.29-.57-.43-1.03-.43s-.79.15-1.04.46-.37.74-.37,1.29.12,1.01.36,1.31.59.44,1.07.44Z"/>
    <path class="cls-4" d="M436.95,139.98c-.11-.05-.2-.09-.29-.11-.09-.02-.18-.03-.29-.03-.25,0-.44.07-.58.22s-.2.36-.2.63v.62h1.33v1.26h-1.33v4.58h-1.69v-4.58h-.99v-1.26h.99v-.72c0-.62.21-1.12.63-1.5.42-.38.97-.56,1.65-.56.25,0,.46.01.62.04.17.03.34.07.53.13l-.4,1.27Z"/>
    <path class="cls-4" d="M443.12,144.72h-3.84c.03.45.18.79.44,1.01.26.22.63.34,1.09.34.17,0,.4-.05.7-.15.29-.1.58-.25.87-.46l.74.99c-.4.3-.8.51-1.21.65-.41.14-.87.21-1.36.21-.93,0-1.65-.26-2.17-.78-.52-.52-.77-1.25-.77-2.19s.27-1.69.82-2.28,1.24-.87,2.07-.87,1.45.24,1.93.73c.48.49.71,1.19.71,2.11v.69ZM441.54,143.65c0-.46-.09-.79-.27-1-.18-.21-.45-.31-.8-.31-.31,0-.57.12-.79.35s-.36.55-.4.95h2.27Z"/>
    <path class="cls-4" d="M443.75,146.67l.71-1.14c.2.15.43.28.7.39.26.11.56.16.89.16.25,0,.45-.04.61-.14.16-.09.24-.23.24-.41,0-.15-.06-.27-.18-.35-.12-.09-.35-.17-.68-.24-.72-.16-1.24-.37-1.56-.65-.32-.28-.47-.67-.47-1.17,0-.59.23-1.05.7-1.4.47-.35,1.04-.52,1.72-.52.35,0,.68.04.99.14s.61.23.88.4l-.64,1.1c-.24-.15-.46-.26-.67-.33s-.42-.1-.64-.1c-.25,0-.46.05-.61.14-.15.1-.23.22-.23.37,0,.17.07.29.21.37.14.08.41.16.8.24.67.14,1.15.36,1.45.64.29.29.44.68.44,1.18,0,.59-.22,1.06-.67,1.42-.45.36-1.03.54-1.76.54-.4,0-.79-.05-1.15-.15-.36-.1-.72-.26-1.08-.48Z"/>
    <path class="cls-4" d="M450.38,140.54c-.3,0-.54-.09-.73-.27-.19-.18-.28-.4-.28-.67s.09-.5.28-.68c.19-.17.43-.26.73-.26s.54.09.73.26c.19.17.28.4.28.68s-.09.5-.28.68-.43.26-.73.26ZM451.22,147.16h-1.7v-5.84h1.7v5.84Z"/>
    <path class="cls-4" d="M455.66,147.3c-.96,0-1.72-.27-2.27-.82s-.83-1.29-.82-2.21c0-.97.29-1.73.86-2.27s1.34-.82,2.32-.82,1.71.27,2.25.81c.54.54.82,1.27.82,2.17,0,.96-.28,1.72-.85,2.29-.57.57-1.34.85-2.31.85ZM455.73,145.99c.45,0,.79-.15,1.02-.45.23-.3.34-.75.34-1.34s-.11-.99-.34-1.28c-.23-.29-.57-.43-1.03-.43s-.79.15-1.04.46-.37.74-.37,1.29.12,1.01.36,1.31.59.44,1.07.44Z"/>
    <path class="cls-4" d="M465.64,147.16h-1.7v-3.25c0-.47-.08-.82-.25-1.06s-.42-.35-.76-.35-.6.13-.81.38c-.22.25-.32.57-.32.96v3.33h-1.7v-5.84h1.7v.93h.02c.21-.36.48-.63.79-.81s.68-.27,1.09-.27c.65,0,1.13.2,1.46.6.32.4.49,1,.49,1.8v3.58Z"/>
    <path class="cls-4" d="M471.95,147.16h-1.62v-.85h-.02c-.19.33-.44.57-.73.74s-.62.25-1,.25c-.52,0-.96-.16-1.31-.47s-.53-.74-.53-1.29.18-.99.53-1.32.9-.56,1.65-.66l1.43-.2v-.11c0-.3-.09-.53-.28-.68-.19-.15-.44-.23-.77-.23-.24,0-.51.04-.8.12-.29.08-.58.22-.87.4l-.6-1.01c.38-.23.77-.41,1.16-.52.39-.11.82-.17,1.27-.17.85,0,1.47.2,1.88.61.41.41.61,1.02.61,1.84v3.53ZM470.35,144.78v-.41l-1.11.14c-.31.04-.54.13-.7.27-.15.14-.23.33-.23.56,0,.21.07.39.22.53.15.14.35.21.6.21.36,0,.65-.12.87-.36.22-.24.34-.55.34-.93Z"/>
    <path class="cls-4" d="M473.48,147.16v-8.43h1.7v8.43h-1.7Z"/>
    <path class="cls-4" d="M416.87,158.55h-1.74v-7.98h1.74v7.98Z"/>
    <path class="cls-4" d="M425.27,158.55h-2.06l-1.41-2.63s-.05-.12-.08-.21c-.03-.09-.05-.2-.08-.32h-.02c-.02.06-.04.13-.07.23-.03.09-.07.2-.12.32l-1.41,2.61h-2.08l2.55-3.99-2.34-3.98h2.12l1.17,2.42c.04.09.09.19.13.31s.08.23.12.36h.02c.03-.08.06-.18.1-.3.04-.11.09-.24.15-.39l1.3-2.4h1.94l-2.4,3.96,2.47,4.02Z"/>
    <path class="cls-4" d="M434.11,158.55h-1.62v-.85h-.02c-.19.33-.44.57-.73.74s-.62.25-1,.25c-.52,0-.96-.16-1.31-.47s-.53-.74-.53-1.29.18-.99.53-1.32.9-.56,1.65-.66l1.43-.2v-.11c0-.3-.09-.53-.28-.68-.19-.15-.44-.23-.77-.23-.24,0-.51.04-.8.12-.29.08-.58.22-.87.4l-.6-1.01c.38-.23.77-.41,1.16-.52.39-.11.82-.17,1.27-.17.85,0,1.47.2,1.88.61.41.41.61,1.02.61,1.84v3.53ZM432.5,156.18v-.41l-1.11.14c-.31.04-.54.13-.7.27-.15.14-.23.33-.23.56,0,.21.07.39.22.53.15.14.35.21.6.21.36,0,.65-.12.87-.36.22-.24.34-.55.34-.93Z"/>
    <path class="cls-4" d="M445.4,158.55h-2.06l-1.41-2.63s-.05-.12-.08-.21c-.03-.09-.05-.2-.08-.32h-.02c-.02.06-.04.13-.07.23-.03.09-.07.2-.12.32l-1.41,2.61h-2.08l2.55-3.99-2.34-3.98h2.12l1.17,2.42c.04.09.09.19.13.31s.08.23.12.36h.02c.03-.08.06-.18.1-.3.04-.11.09-.24.15-.39l1.3-2.4h1.94l-2.4,3.96,2.47,4.02Z"/>
  </g>
  <g>
    <path class="cls-9" d="M6.5,141.06l-.75-.43c.16-.26.28-.5.35-.73.07-.22.1-.47.1-.74,0-.33-.07-.58-.21-.77-.14-.19-.34-.28-.6-.28-.24,0-.43.08-.56.23-.14.15-.26.42-.38.79-.17.58-.38,1.01-.64,1.29-.26.27-.6.41-1.04.41-.47,0-.86-.18-1.18-.53s-.47-.83-.47-1.44c0-.27.03-.53.09-.79s.15-.51.28-.76l.76.38c-.11.21-.2.42-.25.62s-.08.4-.08.61c0,.3.07.53.2.71s.32.26.55.26c.21,0,.38-.08.5-.23s.24-.43.36-.81c.17-.6.39-1.02.66-1.29s.63-.39,1.1-.39c.5,0,.91.18,1.23.53.32.36.48.86.48,1.52,0,.33-.04.65-.13.97-.09.31-.21.61-.38.88Z"/>
    <path class="cls-9" d="M5.08,132.63v2.85c.39-.02.7-.13.9-.34s.31-.51.31-.89c0-.15-.03-.33-.09-.53-.06-.2-.16-.4-.3-.6l.59-.42c.19.26.32.53.41.79s.13.56.13.88c0,.65-.19,1.15-.56,1.51s-.9.54-1.57.54c-.67,0-1.21-.19-1.62-.56-.41-.37-.62-.85-.62-1.43s.18-1,.53-1.32c.35-.32.85-.48,1.49-.48h.41ZM4.43,133.53c-.36,0-.63.08-.81.24-.18.16-.27.38-.27.66,0,.27.1.5.29.69.2.19.46.3.79.35v-1.94Z"/>
    <path class="cls-9" d="M6.92,125.43v.95h-2.39c-.39,0-.68.06-.86.19s-.27.34-.27.62c0,.25.11.46.34.63.22.17.5.25.82.25h2.36v.95h-2.44c-.36,0-.63.07-.8.2-.18.14-.27.34-.27.61s.11.47.32.64c.21.16.5.24.85.24h2.35v.95H2.75v-.95h.66v-.02c-.24-.14-.42-.32-.56-.55-.13-.23-.2-.48-.2-.77s.07-.53.22-.74c.14-.21.35-.36.61-.45-.28-.16-.48-.35-.62-.58-.14-.23-.2-.5-.2-.81,0-.46.14-.8.42-1.03s.7-.34,1.26-.34h2.58Z"/>
    <path class="cls-9" d="M5.08,120.71v2.85c.39-.02.7-.13.9-.34s.31-.51.31-.89c0-.15-.03-.33-.09-.53-.06-.2-.16-.4-.3-.6l.59-.42c.19.26.32.53.41.79s.13.56.13.88c0,.65-.19,1.15-.56,1.51s-.9.54-1.57.54c-.67,0-1.21-.19-1.62-.56-.41-.37-.62-.85-.62-1.43s.18-1,.53-1.32c.35-.32.85-.48,1.49-.48h.41ZM4.43,121.62c-.36,0-.63.08-.81.24-.18.16-.27.38-.27.66,0,.27.1.5.29.69.2.19.46.3.79.35v-1.94Z"/>
    <path class="cls-9" d="M6.59,120.14l-.67-.41c.11-.16.2-.33.27-.51.07-.18.1-.38.1-.6,0-.23-.04-.42-.13-.54-.08-.13-.21-.2-.39-.2-.14,0-.25.05-.34.17-.09.11-.17.29-.23.55-.12.52-.28.88-.48,1.09-.2.21-.47.31-.79.31-.38,0-.69-.15-.93-.45s-.36-.68-.36-1.15c0-.23.03-.46.09-.67s.15-.42.28-.62l.65.37c-.11.18-.19.34-.24.49-.05.15-.07.3-.07.46,0,.22.04.4.13.53.08.13.2.19.35.19s.26-.06.34-.18c.08-.12.15-.33.22-.63.11-.45.27-.79.47-1,.2-.21.48-.32.82-.32.4,0,.72.15.96.44.24.29.36.69.36,1.19,0,.27-.04.53-.11.78-.07.25-.18.48-.32.71Z"/>
    <path class="cls-9" d="M6.86,113.81c.05.12.09.25.12.38.02.13.04.27.04.42,0,.39-.1.69-.31.9-.21.21-.51.31-.92.31h-2.3v.7h-.73v-.7h-.95l-.29-.95h1.23v-1h.73v1h2.22c.21,0,.35-.04.44-.11.09-.08.14-.19.14-.35,0-.08,0-.15-.03-.22-.02-.07-.04-.13-.07-.19l.67-.2Z"/>
    <path class="cls-9" d="M3.54,110.68c-.01.05-.02.11-.03.16,0,.05-.01.11-.01.17,0,.33.12.59.38.77.25.18.58.27.98.27h2.06v.95H2.75v-.95h.8v-.02c-.29-.1-.51-.24-.65-.43-.15-.19-.22-.42-.22-.68,0-.07,0-.14.01-.2,0-.06.02-.12.04-.17l.82.12Z"/>
    <path class="cls-9" d="M5.08,106.32v2.85c.39-.02.7-.13.9-.34s.31-.51.31-.89c0-.15-.03-.33-.09-.53-.06-.2-.16-.4-.3-.6l.59-.42c.19.26.32.53.41.79s.13.56.13.88c0,.65-.19,1.15-.56,1.51s-.9.54-1.57.54c-.67,0-1.21-.19-1.62-.56-.41-.37-.62-.85-.62-1.43s.18-1,.53-1.32c.35-.32.85-.48,1.49-.48h.41ZM4.43,107.22c-.36,0-.63.08-.81.24-.18.16-.27.38-.27.66,0,.27.1.5.29.69.2.19.46.3.79.35v-1.94Z"/>
    <path class="cls-9" d="M6.59,105.74l-.67-.41c.11-.16.2-.33.27-.51.07-.18.1-.38.1-.6,0-.23-.04-.42-.13-.54-.08-.13-.21-.2-.39-.2-.14,0-.25.05-.34.17-.09.11-.17.29-.23.55-.12.52-.28.88-.48,1.09-.2.21-.47.31-.79.31-.38,0-.69-.15-.93-.45s-.36-.68-.36-1.15c0-.23.03-.46.09-.67s.15-.42.28-.62l.65.37c-.11.18-.19.34-.24.49-.05.15-.07.3-.07.46,0,.22.04.4.13.53.08.13.2.19.35.19s.26-.06.34-.18c.08-.12.15-.33.22-.63.11-.45.27-.79.47-1,.2-.21.48-.32.82-.32.4,0,.72.15.96.44.24.29.36.69.36,1.19,0,.27-.04.53-.11.78-.07.25-.18.48-.32.71Z"/>
  </g>
</svg>