<?xml version="1.0" encoding="UTF-8"?>
<svg id="Capa_1" data-name="Capa 1" xmlns="http://www.w3.org/2000/svg" viewBox="0 0 532.59 88.75">
  <defs>
    <style>
      .cls-1, .cls-2, .cls-3 {
        fill: none;
      }

      .cls-1, .cls-3 {
        stroke: #ec6436;
        stroke-miterlimit: 10;
      }

      .cls-4 {
        fill: #ec6436;
      }

      .cls-5 {
        fill: #fff;
      }

      .cls-6 {
        fill: #202020;
      }

      .cls-3 {
        stroke-width: .5px;
      }
    </style>
  </defs>
  <rect class="cls-1" x=".5" y=".5" width="531.59" height="87.75" rx="15.6" ry="15.6"/>
  <path class="cls-4" d="M15.66.5h501.27c8.37,0,15.16,6.79,15.16,15.16v30.83H.5V15.66C.5,7.29,7.29.5,15.66.5Z"/>
  <g>
    <rect class="cls-2" x="49.85" y="64.5" width="89.77" height="12.32"/>
    <path class="cls-6" d="M53.96,71.28h-3.28v-6.42h3.13v.54h-2.53v2.35h2.35v.54h-2.35v2.44h2.68v.54Z"/>
    <path class="cls-6" d="M55.2,71.28v-6.78h.57v6.78h-.57Z"/>
    <path class="cls-6" d="M63.43,71.28h-.57v-2.64c0-.52-.09-.91-.28-1.17s-.47-.39-.85-.39c-.4,0-.74.15-1,.45s-.39.67-.39,1.13v2.62h-.57v-4.58h.57v.8h.02c.17-.3.38-.53.64-.68.26-.15.55-.23.9-.23.5,0,.88.16,1.14.49.26.33.4.8.4,1.41v2.8Z"/>
    <path class="cls-6" d="M65.09,65.58c-.13,0-.23-.04-.32-.13s-.13-.19-.13-.32.04-.23.13-.31c.08-.08.19-.13.32-.13s.23.04.32.13c.09.08.13.19.13.31s-.04.23-.13.32c-.09.08-.19.13-.32.13ZM65.38,71.28h-.57v-4.58h.57v4.58Z"/>
    <path class="cls-6" d="M70.52,71.28h-.57v-2.64c0-.52-.09-.91-.28-1.17s-.47-.39-.85-.39c-.4,0-.74.15-1,.45s-.39.67-.39,1.13v2.62h-.57v-4.58h.57v.8h.02c.17-.3.38-.53.64-.68.26-.15.55-.23.9-.23.5,0,.88.16,1.14.49.26.33.4.8.4,1.41v2.8ZM70.14,64.83c0,.31-.07.56-.22.75s-.34.28-.58.28c-.1,0-.21-.02-.33-.07s-.24-.12-.37-.21c-.1-.08-.2-.13-.29-.17-.09-.04-.17-.05-.24-.05-.14,0-.25.05-.32.14-.07.09-.1.24-.1.43h-.37c0-.31.07-.56.21-.75s.34-.28.59-.28c.1,0,.21.02.32.07.11.05.24.12.36.21.11.08.21.14.3.17.09.04.18.06.25.06.12,0,.22-.05.29-.15s.11-.24.11-.44h.39Z"/>
    <path class="cls-6" d="M73.78,71.38c-.67,0-1.21-.22-1.61-.65-.4-.43-.6-1-.6-1.71,0-.76.21-1.36.62-1.79.41-.43.97-.65,1.66-.65.67,0,1.19.21,1.58.64.38.42.57,1.01.57,1.76s-.2,1.3-.6,1.74-.94.66-1.62.66ZM73.81,70.89c.51,0,.91-.17,1.19-.5.28-.33.42-.8.42-1.4s-.14-1.09-.42-1.42c-.28-.33-.67-.5-1.18-.5s-.91.17-1.2.51c-.3.34-.45.82-.45,1.42,0,.57.15,1.02.44,1.36s.69.51,1.2.51Z"/>
    <path class="cls-6" d="M83.16,66.69l-2.25,5.62c-.13.33-.31.6-.54.8-.23.21-.5.31-.82.31-.08,0-.16,0-.23-.02s-.14-.02-.21-.04l.12-.51c.05.02.1.03.15.04.05,0,.1.01.15.01.19,0,.35-.06.48-.17.14-.11.25-.27.33-.46l.43-1.03-1.76-4.56h.64l1.31,3.63s.03.1.05.15c.02.06.03.12.05.19h.02s.02-.09.04-.14.03-.11.06-.18l1.39-3.65h.6Z"/>
    <path class="cls-6" d="M86.46,71.28v-6.78h.57v6.78h-.57Z"/>
    <path class="cls-6" d="M91.72,71.28h-.57v-.82h-.02c-.15.3-.36.52-.61.69-.26.16-.55.24-.87.24-.43,0-.78-.12-1.04-.37-.26-.25-.39-.57-.39-.96s.13-.71.39-.96c.26-.25.67-.42,1.22-.5l1.32-.19v-.12c-.01-.41-.11-.71-.29-.91-.18-.19-.44-.29-.77-.29-.26,0-.5.05-.72.14-.22.09-.43.23-.63.42l-.34-.36c.24-.24.51-.42.79-.53.28-.11.59-.17.94-.17.53,0,.93.14,1.2.43.27.29.41.72.41,1.28v2.98ZM91.14,69.33v-.45l-1.19.17c-.42.06-.71.16-.89.31-.18.15-.27.36-.27.65s.08.49.25.65c.17.16.39.24.67.24.42,0,.76-.15,1.02-.44.26-.29.4-.67.4-1.13Z"/>
    <path class="cls-6" d="M101.98,71.28h-.59v-4.43c0-.11,0-.26.01-.44,0-.18.02-.4.04-.65h-.02c-.04.13-.08.25-.12.34s-.07.18-.1.25l-2.24,4.94h-.26l-2.24-4.91c-.04-.07-.07-.16-.1-.27-.03-.11-.07-.23-.1-.36h-.02c.01.13.02.29.03.47s0,.37,0,.59v4.48h-.59v-6.42h.7l2.18,4.82c.05.12.1.23.14.34.04.11.08.21.1.31h.03c.05-.14.1-.27.14-.38.04-.11.08-.21.12-.3l2.18-4.79h.67v6.42Z"/>
    <path class="cls-6" d="M105.43,71.38c-.67,0-1.21-.22-1.61-.65-.4-.43-.6-1-.6-1.71,0-.76.21-1.36.62-1.79.41-.43.97-.65,1.66-.65.67,0,1.19.21,1.58.64.38.42.57,1.01.57,1.76s-.2,1.3-.6,1.74-.94.66-1.62.66ZM105.46,70.89c.51,0,.91-.17,1.19-.5.28-.33.42-.8.42-1.4s-.14-1.09-.42-1.42c-.28-.33-.67-.5-1.18-.5s-.91.17-1.2.51c-.3.34-.45.82-.45,1.42,0,.57.15,1.02.44,1.36s.69.51,1.2.51Z"/>
    <path class="cls-6" d="M112.47,71.28h-.57v-2.64c0-.52-.09-.91-.28-1.17s-.47-.39-.85-.39c-.4,0-.74.15-1,.45s-.39.67-.39,1.13v2.62h-.57v-4.58h.57v.8h.02c.17-.3.38-.53.64-.68.26-.15.55-.23.9-.23.5,0,.88.16,1.14.49.26.33.4.8.4,1.41v2.8Z"/>
    <path class="cls-6" d="M115.86,71.2c-.11.06-.23.1-.35.13-.12.03-.25.04-.4.04-.33,0-.59-.1-.77-.3-.19-.2-.28-.49-.28-.87v-3h-.81v-.5h.81v-1.16l.57-.19v1.35h1.18v.5h-1.18v2.94c0,.26.05.45.15.57.1.12.24.18.43.18.1,0,.19-.01.27-.04.08-.02.16-.05.22-.09l.16.45Z"/>
    <path class="cls-6" d="M119.96,71.28h-.57v-.82h-.02c-.15.3-.36.52-.61.69-.26.16-.55.24-.87.24-.43,0-.78-.12-1.04-.37-.26-.25-.39-.57-.39-.96s.13-.71.39-.96c.26-.25.67-.42,1.22-.5l1.32-.19v-.12c-.01-.41-.11-.71-.29-.91-.18-.19-.44-.29-.77-.29-.26,0-.5.05-.72.14-.22.09-.43.23-.63.42l-.34-.36c.24-.24.51-.42.79-.53.28-.11.59-.17.94-.17.53,0,.93.14,1.2.43.27.29.41.72.41,1.28v2.98ZM119.39,69.33v-.45l-1.19.17c-.42.06-.71.16-.89.31-.18.15-.27.36-.27.65s.08.49.25.65c.17.16.39.24.67.24.42,0,.76-.15,1.02-.44.26-.29.4-.67.4-1.13Z"/>
    <path class="cls-6" d="M125.02,71.28h-.57v-2.64c0-.52-.09-.91-.28-1.17s-.47-.39-.85-.39c-.4,0-.74.15-1,.45s-.39.67-.39,1.13v2.62h-.57v-4.58h.57v.8h.02c.17-.3.38-.53.64-.68.26-.15.55-.23.9-.23.5,0,.88.16,1.14.49.26.33.4.8.4,1.41v2.8ZM124.63,64.83c0,.31-.07.56-.22.75s-.34.28-.58.28c-.1,0-.21-.02-.33-.07s-.24-.12-.37-.21c-.1-.08-.2-.13-.29-.17-.09-.04-.17-.05-.24-.05-.14,0-.25.05-.32.14-.07.09-.1.24-.1.43h-.37c0-.31.07-.56.21-.75s.34-.28.59-.28c.1,0,.21.02.32.07.11.05.24.12.36.21.11.08.21.14.3.17.09.04.18.06.25.06.12,0,.22-.05.29-.15s.11-.24.11-.44h.39Z"/>
    <path class="cls-6" d="M129.6,71.28h-.57v-.82h-.02c-.15.3-.36.52-.61.69-.26.16-.55.24-.87.24-.43,0-.78-.12-1.04-.37-.26-.25-.39-.57-.39-.96s.13-.71.39-.96c.26-.25.67-.42,1.22-.5l1.32-.19v-.12c-.01-.41-.11-.71-.29-.91-.18-.19-.44-.29-.77-.29-.26,0-.5.05-.72.14-.22.09-.43.23-.63.42l-.34-.36c.24-.24.51-.42.79-.53.28-.11.59-.17.94-.17.53,0,.93.14,1.2.43.27.29.41.72.41,1.28v2.98ZM129.02,69.33v-.45l-1.19.17c-.42.06-.71.16-.89.31-.18.15-.27.36-.27.65s.08.49.25.65c.17.16.39.24.67.24.42,0,.76-.15,1.02-.44.26-.29.4-.67.4-1.13Z"/>
  </g>
  <g>
    <path class="cls-5" d="M72.8,27.56v2.44h-1.19v-7h2.19c.81,0,1.43.19,1.86.56.43.38.64.92.64,1.64s-.24,1.27-.72,1.7c-.48.44-1.13.65-1.94.65h-.84ZM72.8,23.96v2.63h.74c.5,0,.87-.11,1.13-.34.25-.23.38-.56.38-1s-.12-.76-.36-.97c-.24-.21-.61-.32-1.09-.32h-.8Z"/>
    <path class="cls-5" d="M80.3,25.85c-.06-.02-.13-.03-.19-.04s-.13-.01-.21-.01c-.41,0-.72.15-.94.46-.22.31-.33.71-.33,1.21v2.53h-1.17v-5.12h1.17v.99h.02c.12-.35.29-.62.53-.8.23-.18.51-.27.83-.27.09,0,.17,0,.24.01s.15.02.21.04l-.15,1.01Z"/>
    <path class="cls-5" d="M83.61,30.11c-.8,0-1.44-.24-1.91-.72s-.7-1.12-.7-1.93c0-.85.25-1.52.73-2,.48-.48,1.14-.72,1.97-.72.8,0,1.43.23,1.88.71.45.48.68,1.12.68,1.93s-.24,1.5-.72,1.99c-.48.49-1.12.74-1.94.74ZM83.67,29.19c.46,0,.81-.15,1.05-.46.24-.3.36-.74.36-1.32s-.12-1-.36-1.3c-.24-.3-.59-.45-1.06-.45s-.82.16-1.08.47c-.26.31-.39.75-.39,1.31s.13.99.39,1.29.62.45,1.09.45Z"/>
    <path class="cls-5" d="M91.97,24.87l-2.35,6.05c-.18.48-.43.84-.75,1.08-.32.25-.7.37-1.14.37-.13,0-.25,0-.37-.02-.12-.02-.23-.04-.34-.07l.21-.9c.07.03.14.04.21.06.06.01.13.02.21.02.19,0,.35-.05.49-.15.14-.1.25-.25.33-.44l.38-.88-2.04-5.11h1.28l1.19,3.56c.02.06.04.14.06.22s.04.19.06.3h.03c.01-.07.03-.14.05-.23s.05-.18.08-.29l1.24-3.57h1.17Z"/>
    <path class="cls-5" d="M97.15,27.73h-3.5c.02.48.16.85.42,1.11s.62.38,1.1.38c.19,0,.4-.04.65-.11.25-.08.49-.2.73-.37l.52.73c-.32.23-.65.39-.98.5-.33.1-.69.16-1.08.16-.79,0-1.41-.23-1.85-.69-.44-.46-.67-1.1-.67-1.93,0-.82.23-1.48.69-1.99.46-.51,1.05-.76,1.76-.76s1.23.22,1.62.65c.39.43.59,1.04.59,1.83v.5ZM96.04,26.93c0-.44-.1-.77-.29-1s-.46-.34-.82-.34c-.33,0-.61.12-.84.36-.23.24-.37.56-.42.97h2.38Z"/>
    <path class="cls-5" d="M102.19,29.66c-.25.16-.51.27-.76.35-.26.07-.53.11-.83.11-.79,0-1.42-.23-1.89-.69-.47-.46-.71-1.09-.71-1.87,0-.86.25-1.54.74-2.04.49-.51,1.15-.76,1.98-.76.29,0,.55.03.79.09.24.06.48.16.72.3l-.46.81c-.17-.1-.34-.17-.5-.21-.16-.04-.34-.07-.53-.07-.49,0-.88.16-1.15.49s-.4.76-.4,1.3.14.99.43,1.29c.29.3.65.45,1.09.45.14,0,.3-.02.48-.07.17-.05.35-.13.53-.25l.48.79Z"/>
    <path class="cls-5" d="M106.05,29.92c-.15.06-.3.11-.46.14s-.34.04-.52.04c-.48,0-.85-.13-1.1-.38-.26-.25-.38-.63-.38-1.13v-2.83h-.85v-.9h.85v-1.16l1.16-.35v1.51h1.23v.9h-1.23v2.72c0,.25.05.44.14.55.09.11.24.17.43.17.09,0,.18-.01.27-.03.08-.02.16-.05.23-.09l.24.83Z"/>
    <path class="cls-5" d="M109.34,30.11c-.8,0-1.44-.24-1.91-.72s-.7-1.12-.7-1.93c0-.85.25-1.52.73-2,.48-.48,1.14-.72,1.97-.72.8,0,1.43.23,1.88.71.45.48.68,1.12.68,1.93s-.24,1.5-.72,1.99c-.48.49-1.12.74-1.94.74ZM109.39,29.19c.46,0,.81-.15,1.05-.46.24-.3.36-.74.36-1.32s-.12-1-.36-1.3c-.24-.3-.59-.45-1.06-.45s-.82.16-1.08.47c-.26.31-.39.75-.39,1.31s.13.99.39,1.29.62.45,1.09.45Z"/>
  </g>
  <g>
    <path class="cls-5" d="M217.47,29.99l2.62-7h1.35l2.6,7h-1.31l-.59-1.67h-2.8l-.57,1.67h-1.3ZM219.65,27.35h2.17l-.96-2.76c-.02-.07-.04-.14-.06-.22s-.04-.16-.05-.27h-.03c-.02.09-.03.18-.05.26-.02.08-.04.15-.06.22l-.96,2.77Z"/>
    <path class="cls-5" d="M229.52,29.99h-1.16v-2.89c0-.48-.09-.83-.26-1.07-.17-.24-.43-.36-.77-.36s-.64.13-.86.4c-.23.26-.34.6-.34,1v2.92h-1.16v-5.12h1.16v.83h.02c.19-.32.42-.55.7-.71.28-.16.6-.24.96-.24.56,0,.99.18,1.28.53.29.36.44.88.44,1.57v3.13ZM228.9,22.67c0,.4-.08.71-.25.94-.17.23-.4.35-.68.35-.13,0-.26-.02-.39-.06s-.27-.1-.41-.18c-.13-.08-.25-.14-.35-.17s-.18-.05-.24-.05c-.14,0-.24.05-.31.14-.07.09-.1.23-.1.41h-.57c0-.4.08-.72.25-.95.17-.23.4-.35.7-.35.12,0,.24.02.37.06.13.04.26.11.4.19.13.07.24.13.34.16s.19.05.26.05c.13,0,.23-.05.3-.14.06-.09.1-.23.1-.42h.59Z"/>
    <path class="cls-5" d="M233.28,30.11c-.8,0-1.44-.24-1.91-.72s-.7-1.12-.7-1.93c0-.85.25-1.52.73-2,.48-.48,1.14-.72,1.97-.72.8,0,1.43.23,1.88.71.45.48.68,1.12.68,1.93s-.24,1.5-.72,1.99c-.48.49-1.12.74-1.94.74ZM233.33,29.19c.46,0,.81-.15,1.05-.46.24-.3.36-.74.36-1.32s-.12-1-.36-1.3c-.24-.3-.59-.45-1.06-.45s-.82.16-1.08.47c-.26.31-.39.75-.39,1.31s.13.99.39,1.29.62.45,1.09.45Z"/>
  </g>
  <g>
    <path class="cls-5" d="M339.48,24h-2.01v6h-1.19v-6h-2.01v-1.01h5.2v1.01Z"/>
    <path class="cls-5" d="M341.07,23.97c-.21,0-.39-.07-.53-.2-.14-.13-.21-.3-.21-.49,0-.21.07-.37.21-.5.14-.13.31-.2.53-.2s.39.07.53.2c.14.13.21.3.21.5s-.07.36-.21.5c-.14.13-.32.2-.53.2ZM341.64,29.99h-1.16v-5.12h1.16v5.12Z"/>
    <path class="cls-5" d="M344.45,29.31h-.02v2.98h-1.16v-7.42h1.16v.84h.02c.2-.32.44-.56.73-.72.29-.16.62-.24.98-.24.66,0,1.18.23,1.55.69.37.46.55,1.07.55,1.85,0,.86-.21,1.54-.63,2.06-.42.52-.99.77-1.7.77-.32,0-.6-.07-.85-.2-.25-.13-.46-.33-.63-.6ZM344.42,27.24v.57c0,.4.12.73.35.99s.54.4.91.4c.44,0,.78-.17,1.02-.5.24-.33.37-.8.37-1.41,0-.52-.11-.92-.33-1.19s-.54-.42-.94-.42-.75.15-1,.44-.38.67-.38,1.13Z"/>
    <path class="cls-5" d="M351.79,30.11c-.8,0-1.44-.24-1.91-.72s-.7-1.12-.7-1.93c0-.85.25-1.52.73-2,.48-.48,1.14-.72,1.98-.72.8,0,1.43.23,1.88.71.45.48.68,1.12.68,1.93s-.24,1.5-.72,1.99-1.12.74-1.94.74ZM351.84,29.19c.46,0,.81-.15,1.05-.46.24-.3.36-.74.36-1.32s-.12-1-.36-1.3-.59-.45-1.06-.45-.82.16-1.08.47-.39.75-.39,1.31.13.99.39,1.29.62.45,1.09.45Z"/>
  </g>
  <g>
    <path class="cls-5" d="M459.78,29.99h-1.18v-4.45c0-.2,0-.42.02-.67.01-.24.03-.5.05-.77h-.03c-.04.19-.08.35-.11.48-.03.13-.07.24-.1.32l-2.03,5.08h-.83l-2.04-5.04c-.03-.07-.06-.18-.1-.32-.04-.14-.08-.32-.11-.53h-.03c.02.24.03.5.04.76,0,.26.01.54.01.82v4.3h-1.1v-7h1.68l1.8,4.53c.07.17.13.33.18.47.05.15.08.28.11.41h.03c.06-.19.11-.36.17-.51.05-.15.1-.28.14-.39l1.82-4.51h1.63v7Z"/>
    <path class="cls-5" d="M463.75,30.11c-.8,0-1.44-.24-1.91-.72s-.7-1.12-.7-1.93c0-.85.25-1.52.73-2,.48-.48,1.14-.72,1.98-.72.8,0,1.43.23,1.88.71.45.48.68,1.12.68,1.93s-.24,1.5-.72,1.99-1.12.74-1.94.74ZM463.8,29.19c.46,0,.81-.15,1.05-.46.24-.3.36-.74.36-1.32s-.12-1-.36-1.3-.59-.45-1.06-.45-.82.16-1.08.47-.39.75-.39,1.31.13.99.39,1.29.62.45,1.09.45Z"/>
    <path class="cls-5" d="M471.13,29.2c-.18.31-.41.54-.69.69-.28.15-.61.23-.99.23-.64,0-1.16-.23-1.55-.68-.39-.46-.58-1.08-.58-1.88,0-.85.21-1.53.64-2.04.43-.51,1-.76,1.7-.76.34,0,.63.06.88.19.24.13.44.32.59.58h.02v-2.93h1.17v7.4h-1.17v-.8h-.02ZM468.51,27.5c0,.53.12.94.36,1.24.24.3.56.45.96.45s.72-.15.97-.44c.25-.3.37-.68.37-1.15v-.59c0-.38-.12-.7-.35-.95-.24-.26-.54-.38-.91-.38-.43,0-.77.16-1.02.49-.25.33-.37.77-.37,1.34Z"/>
    <path class="cls-5" d="M477.8,29.99h-1.12v-.78h-.02c-.17.3-.39.52-.65.67s-.56.23-.89.23c-.47,0-.86-.14-1.16-.41s-.45-.65-.45-1.12.15-.84.46-1.13c.3-.29.76-.48,1.37-.57l1.36-.18v-.11c0-.34-.09-.6-.27-.76-.18-.16-.43-.24-.73-.24-.24,0-.49.04-.75.13-.25.09-.5.22-.73.4l-.5-.69c.31-.24.63-.41.97-.53.34-.11.7-.17,1.1-.17.68,0,1.19.17,1.52.51.34.34.5.85.5,1.53v3.21ZM476.69,27.9v-.43l-1.1.15c-.33.05-.57.13-.73.26-.16.13-.24.32-.24.57s.08.44.23.58c.15.14.35.21.59.21.37,0,.68-.12.91-.38.23-.25.35-.57.35-.96Z"/>
    <path class="cls-5" d="M479.29,29.99v-7.4h1.16v7.4h-1.16Z"/>
    <path class="cls-5" d="M482.6,23.97c-.21,0-.39-.07-.53-.2-.14-.13-.21-.3-.21-.49,0-.21.07-.37.21-.5.14-.13.31-.2.53-.2s.39.07.53.2c.14.13.21.3.21.5s-.07.36-.21.5c-.14.13-.32.2-.53.2ZM483.17,29.99h-1.16v-5.12h1.16v5.12Z"/>
    <path class="cls-5" d="M488.28,29.2c-.18.31-.41.54-.69.69-.28.15-.61.23-.99.23-.64,0-1.16-.23-1.55-.68-.39-.46-.58-1.08-.58-1.88,0-.85.21-1.53.64-2.04.43-.51,1-.76,1.7-.76.34,0,.63.06.88.19.24.13.44.32.59.58h.02v-2.93h1.17v7.4h-1.17v-.8h-.02ZM485.66,27.5c0,.53.12.94.36,1.24.24.3.56.45.96.45s.72-.15.97-.44c.25-.3.37-.68.37-1.15v-.59c0-.38-.12-.7-.35-.95-.24-.26-.54-.38-.91-.38-.43,0-.77.16-1.02.49-.25.33-.37.77-.37,1.34Z"/>
    <path class="cls-5" d="M494.95,29.99h-1.12v-.78h-.02c-.17.3-.39.52-.65.67s-.56.23-.89.23c-.47,0-.86-.14-1.16-.41s-.45-.65-.45-1.12.15-.84.46-1.13c.3-.29.76-.48,1.37-.57l1.36-.18v-.11c0-.34-.09-.6-.27-.76-.18-.16-.43-.24-.73-.24-.24,0-.49.04-.75.13-.25.09-.5.22-.73.4l-.5-.69c.31-.24.63-.41.97-.53.34-.11.7-.17,1.1-.17.68,0,1.19.17,1.52.51.34.34.5.85.5,1.53v3.21ZM493.84,27.9v-.43l-1.1.15c-.33.05-.57.13-.73.26-.16.13-.24.32-.24.57s.08.44.23.58c.15.14.35.21.59.21.37,0,.68-.12.91-.38.23-.25.35-.57.35-.96Z"/>
    <path class="cls-5" d="M499.92,29.2c-.18.31-.41.54-.69.69-.28.15-.61.23-.99.23-.64,0-1.16-.23-1.55-.68-.39-.46-.58-1.08-.58-1.88,0-.85.21-1.53.64-2.04.43-.51,1-.76,1.7-.76.34,0,.63.06.88.19.24.13.44.32.59.58h.02v-2.93h1.17v7.4h-1.17v-.8h-.02ZM497.3,27.5c0,.53.12.94.36,1.24.24.3.56.45.96.45s.72-.15.97-.44c.25-.3.37-.68.37-1.15v-.59c0-.38-.12-.7-.35-.95-.24-.26-.54-.38-.91-.38-.43,0-.77.16-1.02.49-.25.33-.37.77-.37,1.34Z"/>
  </g>
  <g>
    <rect class="cls-2" x="289.04" y="63.79" width="113.87" height="10.41"/>
    <path class="cls-6" d="M293.15,70.57h-3.28v-6.42h3.13v.54h-2.53v2.35h2.35v.54h-2.35v2.44h2.68v.54Z"/>
    <path class="cls-6" d="M298.71,70.57h-.73l-1.48-2.45c-.04-.06-.07-.12-.1-.18s-.06-.13-.09-.2h-.02c-.03.06-.06.12-.09.19-.03.06-.07.13-.11.2l-1.51,2.45h-.72l2.08-3.23-1.94-3.19h.73l1.37,2.33c.04.07.08.14.12.21.04.07.08.15.11.23h.02c.05-.1.09-.17.13-.24s.07-.13.12-.21l1.4-2.32h.69l-1.97,3.18,2.01,3.24Z"/>
    <path class="cls-6" d="M304.45,70.57h-.59v-3h-3.5v3h-.6v-6.42h.6v2.87h3.5v-2.87h.59v6.42Z"/>
    <path class="cls-6" d="M306.71,70.57h-.6v-6.42h.6v6.42Z"/>
    <path class="cls-6" d="M308.38,70.57v-6.42h1.76c.54,0,.96.13,1.28.4.32.27.47.62.47,1.08,0,.36-.1.68-.29.95-.19.27-.46.47-.8.59v.02c.42.05.76.22,1.01.49.25.28.37.63.37,1.05,0,.54-.19.98-.56,1.33-.37.34-.85.51-1.44.51h-1.8ZM308.98,64.69v2.28h.85c.44,0,.79-.11,1.05-.33s.39-.52.39-.9c0-.35-.11-.61-.33-.79s-.55-.26-.99-.26h-.97ZM308.98,67.51v2.51h1.11c.47,0,.83-.11,1.09-.34.25-.23.38-.54.38-.95s-.14-.72-.41-.92c-.28-.2-.69-.31-1.24-.31h-.92Z"/>
    <path class="cls-6" d="M314.1,70.57h-.6v-6.42h.6v6.42Z"/>
    <path class="cls-6" d="M320.19,70.28c-.3.14-.59.24-.87.3s-.59.09-.92.09c-.92,0-1.66-.29-2.2-.88s-.82-1.36-.82-2.31c0-1.04.3-1.88.9-2.5s1.38-.94,2.33-.94c.27,0,.54.03.79.07s.51.13.77.24l-.21.5c-.23-.1-.46-.17-.67-.21-.21-.04-.45-.06-.7-.06-.77,0-1.4.26-1.87.77-.48.51-.71,1.21-.71,2.08,0,.83.23,1.49.68,1.97.45.48,1.04.72,1.75.72.26,0,.52-.03.76-.08s.5-.14.76-.26l.23.49Z"/>
    <path class="cls-6" d="M322.05,70.57h-.6v-6.42h.6v6.42Z"/>
    <path class="cls-6" d="M326.33,70.68c-.91,0-1.63-.3-2.17-.9-.54-.6-.81-1.38-.81-2.34,0-1.03.28-1.85.83-2.47.56-.61,1.31-.92,2.27-.92.88,0,1.58.3,2.12.89.54.59.81,1.37.81,2.34,0,1.05-.28,1.88-.83,2.49-.55.61-1.29.91-2.22.91ZM326.33,70.13c.75,0,1.34-.24,1.77-.73.43-.49.65-1.17.65-2.05s-.21-1.56-.63-2.04c-.42-.49-1-.73-1.74-.73s-1.29.26-1.74.77c-.45.51-.68,1.19-.68,2.02s.22,1.5.65,2.01c.43.5,1,.75,1.71.75ZM326.42,63.56h-.49l1.03-1.47h.6l-1.14,1.47Z"/>
    <path class="cls-6" d="M335.67,70.57h-.62l-3.56-5.15c-.04-.06-.08-.12-.11-.19-.04-.06-.08-.14-.12-.22h-.02c0,.05.01.13.02.23,0,.1,0,.22,0,.36v4.97h-.6v-6.42h.66l3.5,5.09c.05.08.1.16.15.23.04.07.09.14.12.2h.02c-.01-.1-.02-.21-.03-.33,0-.12,0-.26,0-.41v-4.77h.6v6.42Z"/>
    <path class="cls-6" d="M339.2,70.57l2.44-6.42h.6l2.43,6.42h-.67l-.69-1.86h-2.78l-.67,1.86h-.66ZM340.74,68.17h2.38l-1.06-2.89c-.02-.07-.04-.14-.06-.21s-.04-.16-.06-.25h-.02c-.02.1-.04.18-.06.26s-.04.14-.06.2l-1.05,2.9Z"/>
    <path class="cls-6" d="M350.03,68.06c0,.87-.2,1.52-.59,1.96-.39.44-.97.66-1.74.66s-1.32-.21-1.7-.63c-.39-.42-.58-1.05-.58-1.88v-4.01h.59v3.95c0,.67.15,1.18.44,1.52.3.34.73.51,1.3.51s.97-.16,1.25-.49c.29-.33.43-.82.43-1.47v-4.02h.6v3.91Z"/>
    <path class="cls-6" d="M351.61,70.57v-6.42h1.69c1.1,0,1.93.26,2.49.79s.84,1.3.84,2.34-.31,1.81-.92,2.4c-.61.59-1.44.89-2.49.89h-1.61ZM352.21,64.69v5.33h.98c.9,0,1.59-.24,2.08-.71s.73-1.15.73-2.03-.23-1.53-.69-1.96-1.14-.64-2.06-.64h-1.05Z"/>
    <path class="cls-6" d="M358.51,70.57h-.6v-6.42h.6v6.42Z"/>
    <path class="cls-6" d="M362.79,70.68c-.91,0-1.63-.3-2.17-.9-.54-.6-.81-1.38-.81-2.34,0-1.03.28-1.85.83-2.47.56-.61,1.31-.92,2.27-.92.88,0,1.58.3,2.12.89.54.59.81,1.37.81,2.34,0,1.05-.28,1.88-.83,2.49-.55.61-1.29.91-2.22.91ZM362.79,70.13c.75,0,1.34-.24,1.77-.73.43-.49.65-1.17.65-2.05s-.21-1.56-.63-2.04c-.42-.49-1-.73-1.74-.73s-1.29.26-1.74.77c-.45.51-.68,1.19-.68,2.02s.22,1.5.65,2.01c.43.5,1,.75,1.71.75Z"/>
    <path class="cls-6" d="M371.55,64.15l-2.43,6.42h-.58l-2.34-6.42h.67l1.82,5.13c.03.09.06.19.09.29.03.1.04.2.06.3h.02c.01-.08.03-.18.06-.28.03-.1.06-.21.11-.32l1.89-5.12h.64Z"/>
    <path class="cls-6" d="M373.11,70.57h-.6v-6.42h.6v6.42Z"/>
    <path class="cls-6" d="M374.27,70.07l.3-.45c.25.18.51.31.77.39.26.08.56.12.89.12.41,0,.74-.11,1.01-.33s.39-.52.39-.91c0-.32-.11-.58-.32-.78s-.56-.39-1.04-.55c-.61-.21-1.05-.46-1.33-.73-.28-.28-.42-.63-.42-1.06,0-.52.18-.94.54-1.25.36-.31.83-.47,1.42-.47.26,0,.52.03.78.1s.51.17.78.31l-.25.47c-.22-.12-.44-.21-.66-.26s-.45-.08-.7-.08c-.39,0-.71.1-.95.3-.24.2-.36.47-.36.82,0,.3.11.55.33.74.22.19.58.38,1.08.55.61.21,1.04.45,1.31.73.27.28.4.65.4,1.11,0,.55-.18.99-.54,1.33-.36.34-.86.51-1.49.51-.37,0-.71-.05-1.02-.15s-.61-.25-.92-.46Z"/>
    <path class="cls-6" d="M384.02,68.06c0,.87-.2,1.52-.59,1.96-.39.44-.97.66-1.74.66s-1.32-.21-1.7-.63c-.39-.42-.58-1.05-.58-1.88v-4.01h.59v3.95c0,.67.15,1.18.44,1.52.3.34.73.51,1.3.51s.97-.16,1.25-.49c.29-.33.43-.82.43-1.47v-4.02h.6v3.91Z"/>
    <path class="cls-6" d="M384.73,70.57l2.44-6.42h.6l2.43,6.42h-.67l-.69-1.86h-2.78l-.67,1.86h-.66ZM386.27,68.17h2.38l-1.06-2.89c-.02-.07-.04-.14-.06-.21s-.04-.16-.06-.25h-.02c-.02.1-.04.18-.06.26s-.04.14-.06.2l-1.05,2.9Z"/>
    <path class="cls-6" d="M394.38,70.57h-3.17v-6.42h.6v5.88h2.57v.54Z"/>
  </g>
  <g>
    <rect class="cls-2" x="451.9" y="64.36" width="41" height="9.26"/>
    <path class="cls-6" d="M455.86,65.27h-2.53v2.42h2.35v.54h-2.35v2.92h-.6v-6.42h3.13v.54Z"/>
    <path class="cls-6" d="M460.37,71.14h-3.28v-6.42h3.13v.54h-2.53v2.35h2.35v.54h-2.35v2.44h2.68v.54Z"/>
    <path class="cls-6" d="M461.2,70.65l.3-.45c.25.18.51.31.77.39.26.08.56.12.89.12.41,0,.74-.11,1.01-.33s.39-.52.39-.91c0-.32-.11-.58-.32-.78s-.56-.39-1.04-.55c-.61-.21-1.05-.46-1.33-.73-.28-.28-.42-.63-.42-1.06,0-.52.18-.94.54-1.25.36-.31.83-.47,1.42-.47.26,0,.52.03.78.1s.51.17.78.31l-.25.47c-.22-.12-.44-.21-.66-.26s-.45-.08-.7-.08c-.39,0-.71.1-.95.3-.24.2-.36.47-.36.82,0,.3.11.55.33.74.22.19.58.38,1.08.55.61.21,1.04.45,1.31.73.27.28.4.65.4,1.11,0,.55-.18.99-.54,1.33-.36.34-.86.51-1.49.51-.37,0-.71-.05-1.02-.15s-.61-.25-.92-.46Z"/>
    <path class="cls-6" d="M470.11,65.27h-1.85v5.88h-.6v-5.88h-1.85v-.54h4.3v.54Z"/>
    <path class="cls-6" d="M471.76,71.14h-.6v-6.42h.6v6.42Z"/>
    <path class="cls-6" d="M478.08,64.72l-2.43,6.42h-.58l-2.34-6.42h.67l1.82,5.13c.03.09.06.19.09.29.03.1.04.2.06.3h.02c.01-.08.03-.18.06-.28.03-.1.06-.21.11-.32l1.89-5.12h.64Z"/>
    <path class="cls-6" d="M477.86,71.14l2.44-6.42h.6l2.43,6.42h-.67l-.69-1.86h-2.78l-.67,1.86h-.66ZM479.4,68.74h2.38l-1.06-2.89c-.02-.07-.04-.14-.06-.21s-.04-.16-.06-.25h-.02c-.02.1-.04.18-.06.26s-.04.14-.06.2l-1.05,2.9Z"/>
    <path class="cls-6" d="M487.51,71.14h-3.17v-6.42h.6v5.88h2.57v.54Z"/>
  </g>
  <g>
    <rect class="cls-2" x="215.62" y="64.36" width="24.11" height="9.26"/>
    <path class="cls-6" d="M216.17,71.14v-.31c0-.29.04-.55.11-.77.07-.22.18-.41.31-.57.17-.21.37-.4.59-.58s.47-.37.76-.58c.21-.15.4-.3.57-.45s.3-.29.41-.45c.1-.14.19-.3.25-.48.06-.18.09-.37.09-.58,0-.39-.11-.7-.33-.92-.22-.23-.52-.34-.88-.34-.29,0-.56.05-.81.16-.25.11-.49.27-.72.49l-.35-.35c.27-.27.56-.47.88-.6.31-.13.66-.2,1.04-.2.55,0,.98.16,1.3.49s.47.73.47,1.21c0,.27-.04.51-.11.73s-.18.42-.31.6c-.13.18-.29.36-.47.52s-.39.33-.62.49c-.3.21-.54.39-.74.54-.2.15-.36.3-.48.44-.12.14-.21.29-.26.43-.05.15-.08.33-.08.54h3.2v.52h-3.8Z"/>
    <path class="cls-6" d="M222.81,71.25c-.62,0-1.1-.27-1.44-.82-.34-.55-.51-1.34-.51-2.36,0-1.13.18-1.99.54-2.57.36-.58.88-.88,1.56-.88s1.13.27,1.45.82c.32.55.48,1.37.48,2.47s-.18,1.92-.55,2.49c-.36.57-.87.86-1.53.86ZM222.91,65.11c-.47,0-.84.24-1.09.73-.25.48-.38,1.21-.38,2.18,0,.89.12,1.57.36,2.03s.6.7,1.06.7.81-.24,1.05-.71.36-1.16.36-2.07c0-.95-.11-1.67-.34-2.15-.23-.48-.57-.71-1.03-.71Z"/>
    <path class="cls-6" d="M225.83,71.14v-.31c0-.29.04-.55.11-.77.07-.22.18-.41.31-.57.17-.21.37-.4.59-.58s.47-.37.76-.58c.21-.15.4-.3.57-.45s.3-.29.41-.45c.1-.14.19-.3.25-.48.06-.18.09-.37.09-.58,0-.39-.11-.7-.33-.92-.22-.23-.52-.34-.88-.34-.29,0-.56.05-.81.16-.25.11-.49.27-.72.49l-.35-.35c.27-.27.56-.47.88-.6.31-.13.66-.2,1.04-.2.55,0,.98.16,1.3.49s.47.73.47,1.21c0,.27-.04.51-.11.73s-.18.42-.31.6c-.13.18-.29.36-.47.52s-.39.33-.62.49c-.3.21-.54.39-.74.54-.2.15-.36.3-.48.44-.12.14-.21.29-.26.43-.05.15-.08.33-.08.54h3.2v.52h-3.8Z"/>
    <path class="cls-6" d="M232.45,71.14h-.57v-5.68c-.15.13-.37.27-.63.41-.27.14-.53.25-.79.34l-.16-.51c.35-.11.69-.26,1.04-.46s.65-.42.91-.65h.21v6.56Z"/>
  </g>
  <line class="cls-3" x1="194.64" y1="46.33" x2="194.64" y2="88.25"/>
  <line class="cls-3" x1="256.71" y1="46.33" x2="256.71" y2="88.25"/>
  <line class="cls-3" x1="433.35" y1="46.33" x2="433.35" y2="88.25"/>
</svg>