<?xml version="1.0" encoding="UTF-8"?>
<svg id="Capa_1" data-name="Capa 1" xmlns="http://www.w3.org/2000/svg" viewBox="0 0 513.16 165.03">
  <defs>
    <style>
      .cls-1 {
        fill: #f8c3bd;
      }

      .cls-2 {
        fill: #383f92;
      }

      .cls-3 {
        fill: #d0cde8;
      }

      .cls-4 {
        fill: #50504f;
      }

      .cls-5 {
        fill: #3d3d3d;
      }

      .cls-6 {
        fill: none;
      }

      .cls-7 {
        fill: #e84624;
      }

      .cls-8 {
        fill: #010101;
      }

      .cls-9 {
        fill: #b6b6b5;
      }
    </style>
  </defs>
  <path class="cls-8" d="M14.69,125.86h497.01c1.93,0,1.93-3,0-3H14.69c-1.93,0-1.93,3,0,3h0Z"/>
  <path class="cls-8" d="M92.46,134.31v-9.95c0-.78-.69-1.54-1.5-1.5s-1.5.66-1.5,1.5v9.95c0,.78.69,1.54,1.5,1.5s1.5-.66,1.5-1.5h0Z"/>
  <path class="cls-8" d="M265.6,134.31v-9.95c0-.78-.69-1.54-1.5-1.5s-1.5.66-1.5,1.5v9.95c0,.78.69,1.54,1.5,1.5s1.5-.66,1.5-1.5h0Z"/>
  <path class="cls-8" d="M439.01,134.31v-9.95c0-.78-.69-1.54-1.5-1.5s-1.5.66-1.5,1.5v9.95c0,.78.69,1.54,1.5,1.5s1.5-.66,1.5-1.5h0Z"/>
  <rect class="cls-1" x="185.06" y="66.32" width="152.55" height="47.26" rx="7.06" ry="7.06"/>
  <path class="cls-7" d="M185.06,105.29h152.55v1.23c0,3.9-3.17,7.06-7.06,7.06h-138.42c-3.9,0-7.06-3.17-7.06-7.06v-1.23h0Z"/>
  <rect class="cls-1" x="359.16" y="66.32" width="152.55" height="47.26" rx="7.06" ry="7.06"/>
  <path class="cls-7" d="M359.16,105.29h152.55v1.23c0,3.9-3.17,7.06-7.06,7.06h-138.42c-3.9,0-7.06-3.17-7.06-7.06v-1.23h0Z"/>
  <g>
    <rect class="cls-6" x="373.56" y="77.1" width="120.74" height="21.77"/>
    <path class="cls-5" d="M375.25,82.22v2.86h-.71v-7.55h1.95c.79,0,1.4.19,1.83.58.43.38.64.93.64,1.65s-.24,1.31-.71,1.77c-.48.46-1.13.69-1.96.69h-1.04ZM375.25,78.17v3.42h1c.65,0,1.14-.15,1.47-.46.34-.31.5-.75.5-1.31s-.15-.96-.46-1.23c-.31-.27-.77-.41-1.39-.41h-1.12Z"/>
    <path class="cls-5" d="M382.95,80.27c-.08-.03-.15-.05-.21-.06-.06-.01-.14-.02-.22-.02-.45,0-.81.21-1.07.62s-.4.95-.4,1.62v2.64h-.67v-5.39h.67v1.13h.02c.12-.39.31-.7.58-.91s.57-.32.93-.32c.09,0,.18,0,.26.02.08.01.16.03.23.05l-.11.62Z"/>
    <path class="cls-5" d="M386.24,85.2c-.79,0-1.42-.26-1.89-.77-.47-.51-.7-1.18-.7-2.01,0-.9.24-1.6.73-2.11.49-.51,1.14-.76,1.95-.77.79,0,1.4.25,1.85.75s.67,1.19.67,2.07-.24,1.53-.71,2.05-1.11.78-1.91.78ZM386.28,84.62c.6,0,1.07-.2,1.39-.59s.49-.94.49-1.64-.16-1.28-.49-1.67-.79-.58-1.38-.58-1.06.2-1.42.6c-.35.4-.53.96-.53,1.67,0,.67.17,1.2.52,1.6.35.4.82.6,1.41.6Z"/>
    <path class="cls-5" d="M394.33,79.69l-2.65,6.61c-.15.39-.37.7-.64.94-.27.24-.59.37-.97.37-.1,0-.19,0-.28-.02-.09-.01-.17-.03-.25-.05l.15-.6c.06.02.12.04.17.05.06.01.12.02.18.02.22,0,.41-.07.57-.2.16-.13.29-.31.38-.54l.5-1.21-2.07-5.36h.75l1.54,4.27c.02.06.04.12.05.18s.04.14.06.22h.03s.03-.1.05-.17c.02-.06.04-.13.07-.21l1.63-4.29h.71Z"/>
    <path class="cls-5" d="M399.48,82.49h-3.9c0,.72.18,1.25.52,1.61.34.35.79.53,1.35.53.25,0,.51-.04.76-.12.25-.08.5-.21.75-.39l.34.48c-.3.21-.6.37-.91.46-.31.1-.64.15-1.01.15-.74,0-1.33-.23-1.79-.7-.46-.47-.69-1.17-.69-2.1,0-.83.23-1.51.68-2.04.46-.53,1.04-.8,1.77-.8.68,0,1.21.23,1.59.7.37.46.56,1.1.56,1.91v.32ZM398.78,81.91c-.01-.56-.15-.99-.41-1.31-.26-.31-.61-.47-1.07-.47s-.84.16-1.15.47-.5.75-.56,1.3h3.19Z"/>
    <path class="cls-5" d="M404.48,84.77c-.25.15-.49.26-.74.33-.25.07-.51.1-.8.1-.74,0-1.35-.24-1.82-.73s-.7-1.15-.7-1.99.25-1.57.75-2.12,1.15-.82,1.97-.82c.25,0,.48.03.71.09.23.06.46.15.7.27l-.28.52c-.19-.1-.38-.18-.57-.22-.18-.05-.38-.07-.6-.07-.62,0-1.1.21-1.46.64-.35.42-.53.97-.53,1.64s.17,1.23.52,1.61c.34.39.8.58,1.35.58.2,0,.4-.03.59-.08.2-.05.39-.14.59-.27l.31.51Z"/>
    <path class="cls-5" d="M408.04,84.99c-.13.07-.27.12-.41.15s-.3.05-.47.05c-.39,0-.69-.12-.91-.35-.22-.23-.33-.58-.33-1.03v-3.53h-.95v-.59h.95v-1.37l.67-.22v1.59h1.39v.59h-1.39v3.45c0,.31.06.53.17.67.11.14.28.21.5.21.12,0,.22-.01.32-.04.1-.03.19-.06.26-.11l.19.53Z"/>
    <path class="cls-5" d="M411.31,85.2c-.79,0-1.42-.26-1.89-.77-.47-.51-.7-1.18-.7-2.01,0-.9.24-1.6.73-2.11.49-.51,1.14-.76,1.95-.77.79,0,1.4.25,1.85.75s.67,1.19.67,2.07-.24,1.53-.71,2.05-1.11.78-1.91.78ZM411.34,84.62c.6,0,1.07-.2,1.39-.59s.49-.94.49-1.64-.16-1.28-.49-1.67-.79-.58-1.38-.58-1.06.2-1.42.6c-.35.4-.53.96-.53,1.67,0,.67.17,1.2.52,1.6.35.4.82.6,1.41.6Z"/>
    <path class="cls-5" d="M421.99,84.13c-.19.34-.45.61-.77.79-.32.19-.7.28-1.13.28-.67,0-1.21-.24-1.62-.72s-.62-1.14-.62-1.99.23-1.59.68-2.13c.45-.54,1.05-.81,1.79-.81.39,0,.72.08,1,.23s.5.39.67.7h.02v-3.39h.67v7.98h-.67v-.95h-.02ZM418.54,82.45c0,.68.16,1.21.47,1.59s.72.57,1.22.57c.55,0,.98-.18,1.3-.54s.48-.81.48-1.35v-.9c0-.47-.15-.86-.46-1.19s-.7-.49-1.19-.49c-.55,0-.99.21-1.32.62-.34.41-.5.98-.5,1.69Z"/>
    <path class="cls-5" d="M428.64,82.49h-3.9c0,.72.18,1.25.52,1.61.34.35.79.53,1.35.53.25,0,.51-.04.76-.12.25-.08.5-.21.75-.39l.34.48c-.3.21-.6.37-.91.46-.31.1-.64.15-1.01.15-.74,0-1.33-.23-1.79-.7-.46-.47-.69-1.17-.69-2.1,0-.83.23-1.51.68-2.04.46-.53,1.04-.8,1.77-.8.68,0,1.21.23,1.59.7.37.46.56,1.1.56,1.91v.32ZM427.94,81.91c-.01-.56-.15-.99-.41-1.31-.26-.31-.61-.47-1.07-.47s-.84.16-1.15.47-.5.75-.56,1.3h3.19Z"/>
    <path class="cls-5" d="M437.35,78.17h-2.18v6.91h-.7v-6.91h-2.18v-.64h5.06v.64Z"/>
    <path class="cls-5" d="M438.82,78.37c-.15,0-.27-.05-.37-.15-.1-.1-.15-.22-.15-.37s.05-.26.15-.36c.1-.1.22-.15.37-.15s.27.05.37.15.15.22.15.36-.05.27-.15.37-.23.15-.37.15ZM439.15,85.08h-.67v-5.39h.67v5.39Z"/>
    <path class="cls-5" d="M443.26,84.99c-.13.07-.27.12-.41.15s-.3.05-.47.05c-.39,0-.69-.12-.91-.35-.22-.23-.33-.58-.33-1.03v-3.53h-.95v-.59h.95v-1.37l.67-.22v1.59h1.39v.59h-1.39v3.45c0,.31.06.53.17.67.11.14.28.21.5.21.12,0,.22-.01.32-.04.1-.03.19-.06.26-.11l.19.53Z"/>
    <path class="cls-5" d="M448.51,85.08h-.67v-.92h-.02c-.18.35-.42.61-.7.78-.28.17-.62.26-1,.26-.64,0-1.12-.2-1.44-.59s-.48-.98-.48-1.76v-3.17h.67v3.04c0,.65.11,1.13.34,1.43.23.31.58.46,1.06.46s.83-.17,1.13-.51c.29-.34.44-.79.44-1.34v-3.08h.67v5.39Z"/>
    <path class="cls-5" d="M450.25,85.08v-7.98h.67v7.98h-.67Z"/>
    <path class="cls-5" d="M454.88,85.2c-.79,0-1.42-.26-1.89-.77-.47-.51-.7-1.18-.7-2.01,0-.9.24-1.6.73-2.11.49-.51,1.14-.76,1.95-.77.79,0,1.4.25,1.85.75s.67,1.19.67,2.07-.24,1.53-.71,2.05-1.11.78-1.91.78ZM454.91,84.62c.6,0,1.07-.2,1.39-.59s.49-.94.49-1.64-.16-1.28-.49-1.67-.79-.58-1.38-.58-1.06.2-1.42.6c-.35.4-.53.96-.53,1.67,0,.67.17,1.2.52,1.6.35.4.82.6,1.41.6Z"/>
    <path class="cls-5" d="M375.24,95.02h-.71v-7.55h.71v7.55Z"/>
    <path class="cls-5" d="M384.17,89.64l-2.65,6.61c-.15.39-.37.7-.64.95-.27.24-.59.37-.97.37-.1,0-.19,0-.28-.02-.09-.01-.17-.03-.25-.05l.15-.6c.06.02.12.04.17.05.06.01.12.02.18.02.22,0,.41-.07.57-.2.16-.13.29-.31.38-.54l.5-1.21-2.07-5.36h.75l1.54,4.27c.02.06.04.12.05.18s.04.14.06.22h.03s.03-.1.05-.17c.02-.06.04-.13.07-.21l1.63-4.29h.71Z"/>
    <path class="cls-5" d="M388.86,95.02h-.71v-7.55h.71v7.55Z"/>
    <path class="cls-5" d="M391.52,95.02h-.71v-7.55h.71v7.55Z"/>
  </g>
  <rect class="cls-3" x="185.06" width="152.55" height="55.55" rx="7.06" ry="7.06"/>
  <path class="cls-2" d="M185.06,45.8h152.55v2.68c0,3.9-3.17,7.06-7.06,7.06h-138.42c-3.9,0-7.06-3.17-7.06-7.06v-2.68h0Z"/>
  <g>
    <rect class="cls-6" x="200.49" y="13.35" width="120.74" height="22.15"/>
    <path class="cls-5" d="M206.98,21.33h-.7v-3.53h-4.11v3.53h-.71v-7.55h.71v3.38h4.11v-3.38h.7v7.55Z"/>
    <path class="cls-5" d="M213.05,18.74h-3.9c0,.72.18,1.25.52,1.61.34.35.79.53,1.35.53.25,0,.51-.04.76-.12.25-.08.5-.21.75-.39l.34.48c-.3.21-.6.37-.91.46-.31.1-.65.15-1.01.15-.74,0-1.33-.23-1.79-.7-.46-.47-.69-1.17-.69-2.1,0-.83.23-1.51.68-2.04.45-.53,1.04-.8,1.77-.8.68,0,1.21.23,1.59.7s.56,1.1.56,1.91v.32ZM212.36,18.17c-.01-.56-.15-.99-.41-1.31-.26-.31-.61-.47-1.07-.47s-.84.16-1.15.47-.5.75-.56,1.3h3.19Z"/>
    <path class="cls-5" d="M216.94,16.52c-.08-.03-.15-.05-.21-.06-.06-.01-.14-.02-.22-.02-.45,0-.81.21-1.07.62s-.4.95-.4,1.62v2.64h-.67v-5.39h.67v1.13h.02c.12-.39.31-.7.58-.91.26-.21.57-.32.93-.32.09,0,.18,0,.25.02.08.01.16.03.23.05l-.1.62Z"/>
    <path class="cls-5" d="M220.59,16.52c-.08-.03-.15-.05-.21-.06-.06-.01-.14-.02-.22-.02-.45,0-.81.21-1.07.62s-.4.95-.4,1.62v2.64h-.67v-5.39h.67v1.13h.02c.12-.39.31-.7.58-.91.26-.21.57-.32.93-.32.09,0,.18,0,.25.02.08.01.16.03.23.05l-.1.62Z"/>
    <path class="cls-5" d="M225.44,21.33h-.67v-.96h-.02c-.18.35-.42.62-.72.81-.3.19-.64.28-1.02.28-.51,0-.92-.15-1.22-.44-.31-.29-.46-.67-.46-1.13s.15-.84.46-1.13c.31-.29.78-.49,1.43-.58l1.55-.22v-.15c-.01-.48-.13-.84-.34-1.07s-.52-.34-.91-.34c-.3,0-.58.05-.85.16-.26.11-.51.27-.74.5l-.4-.42c.29-.28.6-.49.93-.62.33-.13.7-.2,1.1-.2.62,0,1.1.17,1.41.51.32.34.48.84.48,1.5v3.5ZM224.76,19.04v-.53l-1.4.2c-.49.07-.84.19-1.05.36s-.32.43-.32.76c0,.32.1.57.3.76.2.19.46.28.79.28.49,0,.89-.17,1.2-.52s.47-.79.47-1.32Z"/>
    <path class="cls-5" d="M234.52,21.33h-.67v-3.17c0-.64-.1-1.09-.3-1.36-.2-.27-.52-.4-.97-.4-.4,0-.74.18-1.02.53-.28.35-.43.78-.43,1.29v3.12h-.67v-3.24c0-.56-.11-.99-.32-1.27-.22-.28-.54-.42-.97-.42s-.75.17-1.02.51c-.27.34-.4.79-.4,1.33v3.09h-.67v-5.39h.67v.87h.02c.19-.34.43-.59.7-.76.28-.17.6-.25.96-.25s.71.11.98.33c.28.22.46.5.56.85.18-.38.43-.67.73-.87.31-.2.65-.3,1.03-.3.59,0,1.04.18,1.33.55.29.37.44.91.44,1.64v3.33Z"/>
    <path class="cls-5" d="M236.48,14.62c-.15,0-.27-.05-.37-.15s-.15-.22-.15-.37.05-.26.15-.36.22-.15.37-.15.27.05.37.15.15.22.15.36-.05.27-.15.37-.23.15-.37.15ZM236.81,21.33h-.67v-5.39h.67v5.39Z"/>
    <path class="cls-5" d="M242.77,18.74h-3.9c0,.72.18,1.25.52,1.61.34.35.79.53,1.35.53.25,0,.51-.04.76-.12.25-.08.5-.21.75-.39l.34.48c-.3.21-.6.37-.91.46-.31.1-.65.15-1.01.15-.74,0-1.33-.23-1.79-.7-.46-.47-.69-1.17-.69-2.1,0-.83.23-1.51.68-2.04.45-.53,1.04-.8,1.77-.8.68,0,1.21.23,1.59.7s.56,1.1.56,1.91v.32ZM242.08,18.17c-.01-.56-.15-.99-.41-1.31-.26-.31-.61-.47-1.07-.47s-.84.16-1.15.47-.5.75-.56,1.3h3.19Z"/>
    <path class="cls-5" d="M248.4,21.33h-.67v-3.1c0-.61-.11-1.07-.33-1.37-.22-.31-.55-.46-.99-.46-.47,0-.86.18-1.17.53s-.46.79-.46,1.32v3.08h-.67v-5.39h.67v.94h.02c.2-.36.45-.63.75-.8.3-.18.65-.27,1.05-.27.59,0,1.03.19,1.34.58.31.38.47.94.47,1.66v3.29Z"/>
    <path class="cls-5" d="M252.38,21.24c-.13.07-.27.12-.41.15-.14.03-.3.05-.47.05-.39,0-.69-.12-.91-.35s-.33-.58-.33-1.03v-3.53h-.95v-.59h.95v-1.37l.67-.22v1.59h1.39v.59h-1.39v3.45c0,.31.06.53.17.67.11.14.28.21.5.21.12,0,.22-.01.32-.04.1-.03.19-.06.26-.11l.19.53Z"/>
    <path class="cls-5" d="M257.21,21.33h-.67v-.96h-.02c-.18.35-.42.62-.72.81-.3.19-.64.28-1.02.28-.51,0-.92-.15-1.22-.44-.31-.29-.46-.67-.46-1.13s.15-.84.46-1.13c.31-.29.78-.49,1.43-.58l1.55-.22v-.15c-.01-.48-.13-.84-.34-1.07s-.52-.34-.91-.34c-.3,0-.58.05-.85.16-.26.11-.51.27-.74.5l-.4-.42c.29-.28.6-.49.93-.62.33-.13.7-.2,1.1-.2.62,0,1.1.17,1.41.51.32.34.48.84.48,1.5v3.5ZM256.53,19.04v-.53l-1.4.2c-.49.07-.84.19-1.05.36s-.32.43-.32.76c0,.32.1.57.3.76.2.19.46.28.79.28.49,0,.89-.17,1.2-.52s.47-.79.47-1.32Z"/>
    <path class="cls-5" d="M258.33,20.93l.33-.53c.21.14.43.25.66.34.23.09.48.13.75.13.41,0,.71-.09.92-.26s.31-.41.31-.72c0-.24-.08-.43-.25-.6-.17-.16-.48-.31-.93-.44-.61-.17-1.03-.38-1.27-.63-.23-.25-.35-.55-.35-.91,0-.44.16-.8.48-1.08s.76-.42,1.31-.42c.26,0,.52.03.77.1.25.07.5.18.76.34l-.32.52c-.21-.13-.41-.22-.62-.28-.2-.06-.41-.09-.62-.09-.36,0-.64.08-.83.23s-.29.36-.29.62.09.45.26.58c.17.14.48.27.92.4.56.17.98.38,1.24.63s.39.58.39.99c0,.5-.17.9-.51,1.19-.34.29-.8.43-1.38.43-.31,0-.61-.04-.91-.13-.29-.09-.56-.22-.82-.39Z"/>
    <path class="cls-5" d="M206.67,30.94c-.35.17-.69.28-1.02.36s-.69.11-1.08.11c-1.08,0-1.95-.35-2.59-1.04-.64-.69-.96-1.6-.96-2.72,0-1.23.35-2.21,1.06-2.94.71-.73,1.62-1.1,2.74-1.1.32,0,.63.03.92.09s.6.15.91.29l-.25.58c-.27-.11-.54-.19-.79-.24-.25-.05-.53-.08-.82-.08-.91,0-1.64.3-2.2.91-.56.61-.84,1.42-.84,2.45s.27,1.75.8,2.32c.53.57,1.22.85,2.06.85.31,0,.61-.03.9-.09.29-.06.59-.17.89-.31l.27.58Z"/>
    <path class="cls-5" d="M210.25,31.4c-.79,0-1.42-.26-1.89-.77-.47-.51-.7-1.18-.7-2.01,0-.9.24-1.6.73-2.11.49-.51,1.14-.76,1.95-.77.79,0,1.4.25,1.85.75.45.5.67,1.19.67,2.07s-.23,1.53-.71,2.05-1.11.78-1.91.78ZM210.29,30.82c.6,0,1.07-.2,1.39-.59s.49-.94.49-1.64-.16-1.28-.49-1.67-.79-.58-1.38-.58-1.06.2-1.42.6c-.35.4-.53.96-.53,1.67,0,.67.17,1.2.52,1.6.35.4.82.6,1.41.6Z"/>
    <path class="cls-5" d="M221.67,31.28h-.67v-3.17c0-.64-.1-1.09-.3-1.36-.2-.27-.52-.4-.97-.4-.4,0-.74.18-1.02.53-.28.35-.43.78-.43,1.29v3.12h-.67v-3.24c0-.56-.11-.99-.32-1.27-.22-.28-.54-.42-.97-.42s-.75.17-1.02.51c-.27.34-.4.79-.4,1.33v3.09h-.67v-5.39h.67v.87h.02c.19-.34.43-.59.7-.76.28-.17.6-.25.96-.25s.71.11.98.33c.28.22.46.5.56.85.18-.38.43-.67.73-.87.31-.2.65-.3,1.03-.3.59,0,1.04.18,1.33.55.29.37.44.91.44,1.64v3.33Z"/>
    <path class="cls-5" d="M223.98,30.41h-.02v3.35h-.67v-7.87h.67v1.03h.02c.2-.38.47-.66.81-.86s.71-.3,1.13-.3c.69,0,1.23.24,1.61.72s.58,1.12.58,1.93c0,.9-.22,1.63-.66,2.18-.44.55-1.03.82-1.77.82-.38,0-.71-.08-.99-.25s-.52-.41-.71-.75ZM223.96,28.32v.72c0,.49.16.91.47,1.26s.72.52,1.22.52c.54,0,.97-.22,1.29-.65.32-.44.48-1.02.48-1.76,0-.64-.15-1.14-.44-1.51-.3-.37-.7-.55-1.2-.55-.56,0-1.01.19-1.33.58-.32.39-.49.85-.49,1.4Z"/>
    <path class="cls-5" d="M233.67,31.28h-.67v-.92h-.02c-.18.35-.42.61-.7.78-.28.17-.62.26-1,.26-.64,0-1.12-.2-1.44-.59-.32-.39-.48-.98-.48-1.76v-3.17h.67v3.04c0,.65.11,1.13.34,1.43.23.31.58.46,1.06.46s.83-.17,1.13-.51c.29-.34.44-.79.44-1.34v-3.08h.67v5.39Z"/>
    <path class="cls-5" d="M237.78,31.19c-.13.07-.27.12-.41.15-.14.03-.3.05-.47.05-.39,0-.69-.12-.91-.35s-.33-.58-.33-1.03v-3.53h-.95v-.59h.95v-1.37l.67-.22v1.59h1.39v.59h-1.39v3.45c0,.31.06.53.17.67.11.14.28.21.5.21.12,0,.22-.01.32-.04.1-.03.19-.06.26-.11l.19.53Z"/>
    <path class="cls-5" d="M242.6,31.28h-.67v-.96h-.02c-.18.35-.42.62-.72.81-.3.19-.64.28-1.02.28-.51,0-.92-.15-1.22-.44-.31-.29-.46-.67-.46-1.13s.15-.84.46-1.13c.31-.29.78-.49,1.43-.58l1.55-.22v-.15c-.01-.48-.13-.84-.34-1.07s-.52-.34-.91-.34c-.3,0-.58.05-.85.16-.26.11-.51.27-.74.5l-.4-.42c.29-.28.6-.49.93-.62.33-.13.7-.2,1.1-.2.62,0,1.1.17,1.41.51.32.34.48.84.48,1.5v3.5ZM241.92,28.99v-.53l-1.4.2c-.49.07-.84.19-1.05.36s-.32.43-.32.76c0,.32.1.57.3.76.2.19.46.28.79.28.49,0,.89-.17,1.2-.52s.47-.79.47-1.32Z"/>
    <path class="cls-5" d="M247.92,30.97c-.25.15-.49.26-.74.33-.25.07-.51.1-.81.1-.74,0-1.35-.24-1.82-.73s-.7-1.15-.7-1.99.25-1.57.75-2.12c.5-.54,1.15-.82,1.97-.82.25,0,.48.03.71.09.23.06.46.15.7.27l-.28.52c-.19-.1-.38-.18-.57-.22-.18-.05-.39-.07-.6-.07-.62,0-1.1.21-1.46.64-.35.42-.53.97-.53,1.64s.17,1.23.52,1.61c.35.39.8.58,1.36.58.2,0,.4-.03.59-.08.2-.05.39-.14.59-.27l.31.51Z"/>
    <path class="cls-5" d="M249.45,24.57c-.15,0-.27-.05-.37-.15s-.15-.22-.15-.37.05-.26.15-.36.22-.15.37-.15.27.05.37.15.15.22.15.36-.05.27-.15.37-.23.15-.37.15ZM249.78,31.28h-.67v-5.39h.67v5.39Z"/>
    <path class="cls-5" d="M253.73,31.4c-.79,0-1.42-.26-1.89-.77-.47-.51-.7-1.18-.7-2.01,0-.9.24-1.6.73-2.11.49-.51,1.14-.76,1.95-.77.79,0,1.4.25,1.85.75.45.5.67,1.19.67,2.07s-.23,1.53-.71,2.05-1.11.78-1.91.78ZM253.77,30.82c.6,0,1.07-.2,1.39-.59s.49-.94.49-1.64-.16-1.28-.49-1.67-.79-.58-1.38-.58-1.06.2-1.42.6c-.35.4-.53.96-.53,1.67,0,.67.17,1.2.52,1.6.35.4.82.6,1.41.6Z"/>
    <path class="cls-5" d="M262.01,31.28h-.67v-3.1c0-.61-.11-1.07-.33-1.37-.22-.31-.55-.46-.99-.46-.47,0-.86.18-1.17.53s-.46.79-.46,1.32v3.08h-.67v-5.39h.67v.94h.02c.2-.36.45-.63.75-.8.3-.18.65-.27,1.05-.27.59,0,1.03.19,1.35.58.31.38.47.94.47,1.66v3.29Z"/>
    <path class="cls-5" d="M267.39,31.28h-.67v-.96h-.02c-.18.35-.42.62-.72.81-.3.19-.64.28-1.02.28-.51,0-.92-.15-1.22-.44-.3-.29-.46-.67-.46-1.13s.15-.84.46-1.13c.31-.29.78-.49,1.43-.58l1.55-.22v-.15c-.01-.48-.13-.84-.34-1.07s-.52-.34-.91-.34c-.3,0-.58.05-.85.16-.26.11-.51.27-.74.5l-.41-.42c.29-.28.6-.49.93-.62.33-.13.7-.2,1.1-.2.62,0,1.09.17,1.41.51.32.34.48.84.48,1.5v3.5ZM266.72,28.99v-.53l-1.4.2c-.49.07-.84.19-1.05.36-.21.17-.32.43-.32.76,0,.32.1.57.3.76s.46.28.79.28c.49,0,.89-.17,1.2-.52s.47-.79.47-1.32Z"/>
    <path class="cls-5" d="M269.03,31.28v-7.98h.67v7.98h-.67Z"/>
    <path class="cls-5" d="M275.66,28.69h-3.9c0,.72.18,1.25.52,1.61.34.35.79.53,1.35.53.25,0,.51-.04.76-.12.25-.08.5-.21.75-.39l.34.48c-.3.21-.6.37-.91.46-.31.1-.65.15-1.01.15-.74,0-1.33-.23-1.79-.7-.46-.47-.69-1.17-.7-2.1,0-.83.23-1.51.68-2.04.45-.53,1.04-.8,1.77-.8.68,0,1.21.23,1.59.7.37.46.56,1.1.56,1.91v.32ZM274.97,28.11c-.01-.56-.15-.99-.41-1.31-.26-.31-.61-.47-1.07-.47s-.84.16-1.15.47-.5.75-.56,1.3h3.19Z"/>
    <path class="cls-5" d="M276.47,30.88l.33-.53c.21.14.42.25.66.34.23.09.48.13.75.13.41,0,.71-.09.92-.26s.31-.41.31-.72c0-.24-.08-.43-.25-.6-.17-.16-.48-.31-.93-.44-.61-.17-1.03-.38-1.27-.63-.23-.25-.35-.55-.35-.91,0-.44.16-.8.48-1.08.32-.28.76-.42,1.3-.42.26,0,.52.03.77.1.25.07.5.18.76.34l-.32.52c-.21-.13-.41-.22-.62-.28-.2-.06-.41-.09-.62-.09-.36,0-.64.08-.83.23-.19.15-.29.36-.29.62s.09.45.26.58c.17.14.48.27.92.4.56.17.98.38,1.24.63s.39.58.39.99c0,.5-.17.9-.51,1.19-.34.29-.8.43-1.38.43-.31,0-.61-.04-.91-.13-.29-.09-.56-.22-.82-.39Z"/>
  </g>
  <g>
    <path class="cls-4" d="M68.84,149.48c-.43.2-.84.34-1.25.43s-.84.13-1.31.13c-1.27,0-2.26-.36-2.98-1.07s-1.08-1.72-1.08-3.04c0-1.24.4-2.27,1.19-3.08.79-.81,1.83-1.22,3.13-1.22.44,0,.83.03,1.18.1.35.07.71.17,1.07.31l-.54,1.43c-.27-.11-.54-.2-.8-.24-.26-.05-.55-.07-.85-.07-.68,0-1.27.24-1.77.71-.49.48-.74,1.12-.74,1.94s.22,1.49.65,1.96c.43.47,1.02.71,1.78.71.22,0,.47-.03.77-.1.3-.07.6-.18.91-.33l.66,1.42Z"/>
    <path class="cls-4" d="M70.86,143.16c-.3,0-.55-.09-.74-.27-.19-.18-.29-.41-.29-.68s.1-.51.29-.69.44-.27.74-.27.55.09.74.27.29.41.29.69-.1.51-.29.69c-.19.18-.44.27-.74.27ZM71.71,149.9h-1.73v-5.95h1.73v5.95Z"/>
    <path class="cls-4" d="M78.17,149.51c-.3.18-.61.32-.92.41s-.65.13-1.01.13c-.99,0-1.76-.28-2.31-.83-.56-.55-.83-1.27-.83-2.15,0-1.01.3-1.8.89-2.39s1.38-.88,2.36-.88c.36,0,.68.04.96.11.28.07.55.18.83.34l-.65,1.17c-.17-.1-.35-.17-.52-.22-.17-.04-.36-.07-.55-.07-.49,0-.87.16-1.14.47s-.41.76-.41,1.33.15.98.44,1.29c.29.31.67.46,1.11.46.13,0,.3-.03.49-.08.2-.05.39-.14.59-.27l.68,1.15Z"/>
    <path class="cls-4" d="M79.24,149.9v-8.59h1.73v8.59h-1.73Z"/>
    <path class="cls-4" d="M85.43,150.05c-.98,0-1.75-.28-2.31-.84s-.84-1.31-.84-2.26c0-.99.3-1.76.88-2.31.58-.55,1.37-.83,2.37-.83s1.74.28,2.3.83c.56.55.83,1.29.83,2.21,0,.98-.29,1.76-.86,2.33s-1.36.86-2.35.86ZM85.49,148.71c.46,0,.81-.15,1.04-.46.23-.31.35-.76.35-1.37s-.12-1.01-.35-1.3-.58-.44-1.05-.44-.81.16-1.06.47c-.25.31-.38.75-.38,1.31s.12,1.03.37,1.33.61.45,1.09.45Z"/>
    <path class="cls-4" d="M93.32,149.9v-8.13h2.91c.89,0,1.58.17,2.06.51.48.34.72.83.72,1.45,0,.43-.13.82-.39,1.14-.26.33-.59.56-1,.69v.02c.52.07.94.28,1.26.62.31.35.47.77.47,1.27,0,.74-.27,1.33-.8,1.77s-1.25.65-2.16.65h-3.07ZM95.08,143.09v2.03h.82c.39,0,.69-.09.91-.28.22-.19.33-.44.33-.77s-.11-.57-.34-.74c-.23-.16-.57-.24-1.02-.24h-.71ZM95.08,146.45v2.14h1.01c.44,0,.78-.1,1.02-.3s.36-.48.36-.82c0-.32-.12-.57-.36-.75-.24-.18-.58-.27-1.02-.27h-1.01Z"/>
    <path class="cls-4" d="M105.52,149.9h-1.65v-.86h-.02c-.2.33-.44.58-.74.75s-.64.25-1.01.25c-.53,0-.97-.16-1.34-.48s-.54-.75-.54-1.31.18-1,.54-1.35.92-.57,1.68-.67l1.46-.2v-.11c0-.31-.09-.54-.28-.69s-.45-.23-.78-.23c-.25,0-.52.04-.82.13-.29.09-.59.22-.89.41l-.61-1.03c.39-.24.78-.42,1.18-.53.4-.12.83-.17,1.3-.17.86,0,1.5.21,1.92.62.42.42.62,1.04.62,1.88v3.59ZM103.05,143.03h-1.26l1.46-1.84h1.55l-1.75,1.84ZM103.89,147.48v-.42l-1.13.15c-.32.04-.55.13-.71.28s-.23.33-.23.57c0,.22.08.4.23.54.15.14.36.21.61.21.36,0,.66-.12.89-.37s.34-.56.34-.95Z"/>
    <path class="cls-4" d="M106.51,149.4l.72-1.16c.2.15.44.29.71.39.27.11.57.16.91.16.25,0,.46-.05.62-.14s.24-.23.24-.42c0-.15-.06-.27-.19-.36-.12-.09-.36-.17-.69-.25-.74-.16-1.27-.38-1.59-.67-.32-.29-.48-.68-.48-1.19,0-.6.24-1.07.71-1.43s1.06-.53,1.75-.53c.35,0,.69.05,1.01.14.32.09.62.23.9.41l-.65,1.12c-.24-.15-.47-.26-.68-.33-.21-.07-.43-.1-.65-.1-.26,0-.46.05-.62.15-.15.1-.23.23-.23.38,0,.17.07.3.21.38.14.08.41.16.81.25.68.14,1.18.36,1.48.65.3.29.45.69.45,1.2,0,.6-.23,1.08-.68,1.45-.45.36-1.05.55-1.8.55-.41,0-.8-.05-1.17-.16-.37-.1-.74-.26-1.1-.48Z"/>
    <path class="cls-4" d="M113.27,143.16c-.3,0-.55-.09-.74-.27-.19-.18-.29-.41-.29-.68s.1-.51.29-.69.44-.27.74-.27.55.09.74.27.29.41.29.69-.1.51-.29.69c-.19.18-.44.27-.74.27ZM114.12,149.9h-1.73v-5.95h1.73v5.95Z"/>
    <path class="cls-4" d="M120.58,149.51c-.3.18-.61.32-.92.41s-.65.13-1.01.13c-.99,0-1.76-.28-2.31-.83-.56-.55-.83-1.27-.83-2.15,0-1.01.3-1.8.89-2.39s1.38-.88,2.36-.88c.36,0,.68.04.96.11.28.07.55.18.83.34l-.65,1.17c-.17-.1-.35-.17-.52-.22-.17-.04-.36-.07-.55-.07-.49,0-.87.16-1.14.47s-.41.76-.41,1.33.15.98.44,1.29c.29.31.67.46,1.11.46.13,0,.3-.03.49-.08.2-.05.39-.14.59-.27l.68,1.15Z"/>
    <path class="cls-4" d="M124.46,150.05c-.98,0-1.75-.28-2.31-.84s-.84-1.31-.84-2.26c0-.99.3-1.76.88-2.31.58-.55,1.37-.83,2.37-.83s1.74.28,2.3.83c.56.55.83,1.29.83,2.21,0,.98-.29,1.76-.86,2.33s-1.36.86-2.35.86ZM124.53,148.71c.46,0,.81-.15,1.04-.46.23-.31.35-.76.35-1.37s-.12-1.01-.35-1.3-.58-.44-1.05-.44-.81.16-1.06.47c-.25.31-.38.75-.38,1.31s.12,1.03.37,1.33.61.45,1.09.45Z"/>
    <path class="cls-4" d="M83.63,161.51h-1.77v-8.13h1.77v8.13Z"/>
    <path class="cls-4" d="M93.52,161.51h-1.65v-.86h-.02c-.2.33-.44.58-.74.75s-.64.25-1.01.25c-.53,0-.97-.16-1.34-.48s-.54-.75-.54-1.31.18-1,.54-1.35.92-.57,1.68-.67l1.46-.2v-.11c0-.31-.09-.54-.28-.69s-.45-.23-.78-.23c-.25,0-.52.04-.82.13-.29.09-.59.22-.89.41l-.61-1.03c.39-.24.78-.42,1.18-.53.4-.12.83-.17,1.3-.17.86,0,1.5.21,1.92.62.42.42.62,1.04.62,1.88v3.59ZM91.89,159.09v-.42l-1.13.15c-.32.04-.55.13-.71.28s-.23.33-.23.57c0,.22.08.4.23.54.15.14.36.21.61.21.36,0,.66-.12.89-.37s.34-.56.34-.95Z"/>
    <path class="cls-4" d="M100.22,161.51h-1.77v-8.13h1.77v8.13Z"/>
    <path class="cls-4" d="M108.92,153.38l-2.82,8.13h-2.01l-2.78-8.13h1.91l1.73,5.71c.04.15.08.29.1.42.03.13.05.26.06.38h.03c.02-.13.04-.26.07-.4s.07-.28.11-.43l1.73-5.69h1.85Z"/>
  </g>
  <g>
    <path class="cls-4" d="M218.11,149.48c-.43.2-.84.34-1.25.43s-.84.13-1.31.13c-1.27,0-2.26-.36-2.98-1.07s-1.08-1.72-1.08-3.04c0-1.24.4-2.27,1.19-3.08.79-.81,1.83-1.22,3.13-1.22.44,0,.83.03,1.18.1.35.07.71.17,1.07.31l-.54,1.43c-.27-.11-.54-.2-.8-.24-.26-.05-.55-.07-.85-.07-.68,0-1.27.24-1.77.71-.49.48-.74,1.12-.74,1.94s.22,1.49.65,1.96c.43.47,1.02.71,1.78.71.22,0,.47-.03.77-.1.3-.07.6-.18.91-.33l.66,1.42Z"/>
    <path class="cls-4" d="M220.12,143.16c-.3,0-.55-.09-.74-.27-.19-.18-.29-.41-.29-.68s.1-.51.29-.69.44-.27.74-.27.55.09.74.27.29.41.29.69-.1.51-.29.69c-.19.18-.44.27-.74.27ZM220.97,149.9h-1.73v-5.95h1.73v5.95Z"/>
    <path class="cls-4" d="M227.43,149.51c-.3.18-.61.32-.92.41s-.65.13-1.01.13c-.99,0-1.76-.28-2.31-.83-.56-.55-.83-1.27-.83-2.15,0-1.01.3-1.8.89-2.39s1.38-.88,2.36-.88c.36,0,.68.04.96.11.28.07.55.18.83.34l-.65,1.17c-.17-.1-.35-.17-.52-.22-.17-.04-.36-.07-.55-.07-.49,0-.87.16-1.14.47s-.41.76-.41,1.33.15.98.44,1.29c.29.31.67.46,1.11.46.13,0,.3-.03.49-.08.2-.05.39-.14.59-.27l.68,1.15Z"/>
    <path class="cls-4" d="M228.51,149.9v-8.59h1.73v8.59h-1.73Z"/>
    <path class="cls-4" d="M234.69,150.05c-.98,0-1.75-.28-2.31-.84s-.84-1.31-.84-2.26c0-.99.3-1.76.88-2.31.58-.55,1.37-.83,2.37-.83s1.74.28,2.3.83c.56.55.83,1.29.83,2.21,0,.98-.29,1.76-.86,2.33s-1.36.86-2.35.86ZM234.75,148.71c.46,0,.81-.15,1.04-.46.23-.31.35-.76.35-1.37s-.12-1.01-.35-1.3-.58-.44-1.05-.44-.81.16-1.06.47c-.25.31-.38.75-.38,1.31s.12,1.03.37,1.33.61.45,1.09.45Z"/>
    <path class="cls-4" d="M247.42,149.9h-4.83v-8.13h4.65v1.45h-2.88v1.87h2.68v1.45h-2.68v1.93h3.07v1.44Z"/>
    <path class="cls-4" d="M248.11,149.4l.72-1.16c.2.15.44.29.71.39.27.11.57.16.91.16.25,0,.46-.05.62-.14s.24-.23.24-.42c0-.15-.06-.27-.19-.36-.12-.09-.36-.17-.69-.25-.74-.16-1.27-.38-1.59-.67-.32-.29-.48-.68-.48-1.19,0-.6.24-1.07.71-1.43s1.06-.53,1.75-.53c.35,0,.69.05,1.01.14.32.09.62.23.9.41l-.65,1.12c-.24-.15-.47-.26-.68-.33-.21-.07-.43-.1-.65-.1-.26,0-.46.05-.62.15-.15.1-.23.23-.23.38,0,.17.07.3.21.38.14.08.41.16.81.25.68.14,1.18.36,1.48.65.3.29.45.69.45,1.2,0,.6-.23,1.08-.68,1.45-.45.36-1.05.55-1.8.55-.41,0-.8-.05-1.17-.16-.37-.1-.74-.26-1.1-.48Z"/>
    <path class="cls-4" d="M255.75,149.19h-.02v3.38h-1.73v-8.61h1.73v.91h.02c.23-.36.5-.62.82-.8.32-.18.69-.26,1.1-.26.77,0,1.37.26,1.79.79s.63,1.25.63,2.16c0,.99-.25,1.79-.74,2.39-.49.6-1.14.9-1.96.9-.36,0-.68-.07-.96-.22s-.51-.36-.7-.65ZM255.7,146.76v.52c0,.42.11.76.34,1.03.23.27.53.41.9.41.43,0,.77-.17,1.01-.5.24-.34.36-.81.36-1.43,0-.54-.11-.95-.32-1.22-.21-.27-.53-.41-.95-.41s-.73.15-.97.44c-.25.29-.37.68-.37,1.17Z"/>
    <path class="cls-4" d="M266.67,147.42h-3.92c.03.46.18.8.45,1.03.27.23.64.34,1.11.34.17,0,.41-.05.71-.15.3-.1.59-.26.88-.47l.75,1.01c-.4.3-.82.52-1.24.67-.42.14-.88.21-1.39.21-.95,0-1.69-.27-2.21-.8-.52-.53-.79-1.28-.79-2.23s.28-1.72.83-2.32c.56-.59,1.26-.89,2.11-.89s1.48.25,1.96.75c.49.5.73,1.22.73,2.15v.7ZM265.06,146.33c0-.47-.09-.81-.28-1.02-.19-.21-.46-.31-.82-.31-.31,0-.58.12-.81.36s-.36.56-.41.97h2.31Z"/>
    <path class="cls-4" d="M272.61,149.51c-.3.18-.61.32-.92.41s-.65.13-1.01.13c-.99,0-1.76-.28-2.31-.83s-.83-1.27-.83-2.15c0-1.01.3-1.8.89-2.39.59-.58,1.38-.88,2.36-.88.36,0,.68.04.96.11.28.07.55.18.83.34l-.65,1.17c-.17-.1-.35-.17-.52-.22-.17-.04-.36-.07-.55-.07-.49,0-.87.16-1.14.47-.28.32-.41.76-.41,1.33s.15.98.44,1.29c.29.31.67.46,1.11.46.13,0,.3-.03.49-.08.2-.05.39-.14.59-.27l.68,1.15Z"/>
    <path class="cls-4" d="M274.57,143.16c-.3,0-.55-.09-.74-.27-.19-.18-.29-.41-.29-.68s.09-.51.29-.69c.19-.18.44-.27.74-.27s.55.09.74.27c.19.18.29.41.29.69s-.09.51-.29.69c-.19.18-.44.27-.74.27ZM275.42,149.9h-1.73v-5.95h1.73v5.95Z"/>
    <path class="cls-4" d="M282.03,149.9h-1.65v-.86h-.02c-.2.33-.44.58-.74.75-.3.17-.64.25-1.01.25-.53,0-.97-.16-1.34-.48-.36-.32-.54-.75-.54-1.31s.18-1,.54-1.35c.36-.34.92-.57,1.68-.67l1.46-.2v-.11c0-.31-.09-.54-.28-.69-.19-.16-.45-.23-.78-.23-.25,0-.52.04-.82.13-.29.09-.59.22-.89.41l-.61-1.03c.39-.24.78-.42,1.18-.53.4-.12.83-.17,1.3-.17.86,0,1.5.21,1.92.62.42.42.62,1.04.62,1.88v3.59ZM280.39,147.48v-.42l-1.13.15c-.32.04-.55.13-.71.28-.16.14-.23.33-.23.57,0,.22.08.4.23.54.15.14.36.21.61.21.36,0,.66-.12.89-.37s.34-.56.34-.95Z"/>
    <path class="cls-4" d="M283.58,149.9v-8.59h1.73v8.59h-1.73Z"/>
    <path class="cls-4" d="M287.84,143.16c-.3,0-.55-.09-.74-.27-.19-.18-.29-.41-.29-.68s.09-.51.29-.69c.19-.18.44-.27.74-.27s.55.09.74.27c.19.18.29.41.29.69s-.09.51-.29.69c-.19.18-.44.27-.74.27ZM288.69,149.9h-1.73v-5.95h1.73v5.95Z"/>
    <path class="cls-4" d="M295.06,144.79l-2.91,3.83h2.93v1.29h-5.29v-.7l3.05-3.96h-2.75v-1.29h4.96v.83Z"/>
    <path class="cls-4" d="M301.05,149.9h-1.65v-.86h-.02c-.2.33-.44.58-.74.75-.3.17-.64.25-1.01.25-.53,0-.97-.16-1.34-.48-.36-.32-.54-.75-.54-1.31s.18-1,.54-1.35c.36-.34.92-.57,1.68-.67l1.46-.2v-.11c0-.31-.09-.54-.28-.69-.19-.16-.45-.23-.78-.23-.25,0-.52.04-.82.13-.29.09-.59.22-.89.41l-.61-1.03c.39-.24.78-.42,1.18-.53.4-.12.83-.17,1.3-.17.86,0,1.5.21,1.92.62.42.42.62,1.04.62,1.88v3.59ZM299.42,147.48v-.42l-1.13.15c-.32.04-.55.13-.71.28-.16.14-.23.33-.23.57,0,.22.08.4.23.54.15.14.36.21.61.21.36,0,.66-.12.89-.37s.34-.56.34-.95Z"/>
    <path class="cls-4" d="M306.59,149.06c-.21.33-.47.57-.78.74-.31.17-.67.25-1.08.25-.74,0-1.34-.26-1.79-.79-.45-.53-.68-1.26-.68-2.2,0-.99.25-1.78.75-2.37.5-.59,1.16-.89,1.96-.89.38,0,.71.07.98.21.27.14.49.35.64.63h.02v-3.34h1.73v8.59h-1.73v-.84h-.02ZM304.02,147.01c0,.55.12.97.35,1.26.23.29.55.44.96.44s.71-.15.96-.46c.24-.31.37-.71.37-1.21v-.49c0-.4-.12-.73-.35-1s-.54-.4-.91-.4c-.43,0-.76.17-1,.5-.24.33-.36.79-.36,1.36Z"/>
    <path class="cls-4" d="M312.8,150.05c-.98,0-1.75-.28-2.31-.84s-.84-1.31-.84-2.26c0-.99.3-1.76.88-2.31.58-.55,1.37-.83,2.37-.83s1.74.28,2.29.83c.56.55.83,1.29.83,2.21,0,.98-.29,1.76-.87,2.33s-1.36.86-2.35.86ZM312.86,148.71c.46,0,.81-.15,1.04-.46.23-.31.35-.76.35-1.37s-.12-1.01-.35-1.3-.58-.44-1.04-.44-.81.16-1.06.47c-.25.31-.38.75-.38,1.31s.12,1.03.37,1.33.61.45,1.09.45Z"/>
    <path class="cls-4" d="M251.59,153.38l-2.82,8.13h-2.01l-2.78-8.13h1.91l1.73,5.71c.04.15.08.29.1.42.03.13.05.26.06.38h.03c.02-.13.04-.26.07-.4s.07-.28.11-.43l1.73-5.69h1.85Z"/>
    <path class="cls-4" d="M260.6,161.51h-1.65v-.86h-.02c-.2.33-.44.58-.74.75s-.64.25-1.01.25c-.53,0-.97-.16-1.34-.48s-.54-.75-.54-1.31.18-1,.54-1.35.92-.57,1.68-.67l1.46-.2v-.11c0-.31-.09-.54-.28-.69s-.45-.23-.78-.23c-.25,0-.52.04-.82.13-.29.09-.59.22-.89.41l-.61-1.03c.39-.24.78-.42,1.18-.53.4-.12.83-.17,1.3-.17.86,0,1.5.21,1.92.62.42.42.62,1.04.62,1.88v3.59ZM258.97,159.09v-.42l-1.13.15c-.32.04-.55.13-.71.28s-.23.33-.23.57c0,.22.08.4.23.54.15.14.36.21.61.21.36,0,.66-.12.89-.37s.34-.56.34-.95Z"/>
    <path class="cls-4" d="M272.25,153.38l-2.82,8.13h-2.01l-2.78-8.13h1.91l1.73,5.71c.04.15.08.29.1.42.03.13.05.26.06.38h.03c.02-.13.04-.26.07-.4s.07-.28.11-.43l1.73-5.69h1.85Z"/>
    <path class="cls-4" d="M275.12,161.51h-1.77v-8.13h1.77v8.13Z"/>
    <path class="cls-4" d="M278.88,161.51h-1.77v-8.13h1.77v8.13Z"/>
    <path class="cls-4" d="M282.63,161.51h-1.77v-8.13h1.77v8.13Z"/>
  </g>
  <g>
    <path class="cls-4" d="M397.93,149.48c-.43.2-.84.34-1.25.43s-.84.13-1.31.13c-1.27,0-2.26-.36-2.98-1.07-.72-.71-1.09-1.72-1.09-3.04,0-1.24.4-2.27,1.19-3.08.79-.81,1.83-1.22,3.13-1.22.44,0,.83.03,1.18.1.35.07.71.17,1.07.31l-.54,1.43c-.27-.11-.54-.2-.8-.24s-.54-.07-.85-.07c-.68,0-1.27.24-1.77.71-.49.48-.74,1.12-.74,1.94s.22,1.49.65,1.96c.43.47,1.02.71,1.78.71.22,0,.47-.03.77-.1.3-.07.6-.18.91-.33l.66,1.42Z"/>
    <path class="cls-4" d="M399.94,143.16c-.3,0-.55-.09-.74-.27-.19-.18-.29-.41-.29-.68s.1-.51.29-.69c.19-.18.44-.27.74-.27s.55.09.74.27.29.41.29.69-.1.51-.29.69c-.19.18-.44.27-.74.27ZM400.79,149.9h-1.73v-5.95h1.73v5.95Z"/>
    <path class="cls-4" d="M407.25,149.51c-.3.18-.61.32-.92.41s-.65.13-1.01.13c-.99,0-1.76-.28-2.31-.83-.56-.55-.83-1.27-.83-2.15,0-1.01.3-1.8.89-2.39.59-.58,1.38-.88,2.36-.88.36,0,.68.04.96.11.28.07.55.18.83.34l-.65,1.17c-.17-.1-.35-.17-.52-.22-.17-.04-.36-.07-.55-.07-.49,0-.87.16-1.14.47s-.41.76-.41,1.33.15.98.44,1.29c.29.31.67.46,1.11.46.13,0,.3-.03.49-.08s.4-.14.6-.27l.68,1.15Z"/>
    <path class="cls-4" d="M408.33,149.9v-8.59h1.73v8.59h-1.73Z"/>
    <path class="cls-4" d="M414.51,150.05c-.98,0-1.75-.28-2.31-.84-.56-.56-.84-1.31-.84-2.26,0-.99.3-1.76.88-2.31.58-.55,1.37-.83,2.37-.83s1.74.28,2.29.83c.56.55.83,1.29.83,2.21,0,.98-.29,1.76-.86,2.33s-1.36.86-2.35.86ZM414.58,148.71c.46,0,.81-.15,1.04-.46.23-.31.35-.76.35-1.37s-.12-1.01-.35-1.3-.58-.44-1.05-.44-.81.16-1.06.47-.38.75-.38,1.31.12,1.03.37,1.33c.24.3.61.45,1.08.45Z"/>
    <path class="cls-4" d="M424.17,147.22v2.69h-1.77v-8.13h2.82c1.02,0,1.78.22,2.29.66s.76,1.1.76,1.99c0,.83-.29,1.51-.88,2.02s-1.36.77-2.34.77h-.89ZM424.17,143.15v2.71h.74c.5,0,.87-.11,1.12-.34.25-.23.38-.57.38-1.03s-.12-.79-.37-1.01c-.25-.22-.62-.33-1.12-.33h-.74Z"/>
    <path class="cls-4" d="M433.08,145.4c-.08-.02-.15-.03-.23-.04-.08,0-.17-.01-.26-.01-.47,0-.83.15-1.07.45-.24.3-.36.72-.36,1.25v2.86h-1.73v-5.95h1.73v1.11h.02c.14-.4.34-.71.61-.91.26-.2.59-.3.96-.3.09,0,.18,0,.26.02.08.01.17.03.26.05l-.2,1.48Z"/>
    <path class="cls-4" d="M437,150.05c-.98,0-1.75-.28-2.31-.84-.56-.56-.84-1.31-.84-2.26,0-.99.3-1.76.88-2.31.58-.55,1.37-.83,2.37-.83s1.74.28,2.29.83c.56.55.83,1.29.83,2.21,0,.98-.29,1.76-.86,2.33s-1.36.86-2.35.86ZM437.06,148.71c.46,0,.81-.15,1.04-.46.23-.31.35-.76.35-1.37s-.12-1.01-.35-1.3-.58-.44-1.05-.44-.81.16-1.06.47-.38.75-.38,1.31.12,1.03.37,1.33c.24.3.61.45,1.08.45Z"/>
    <path class="cls-4" d="M445.1,142.59c-.11-.05-.21-.09-.29-.11-.09-.02-.19-.03-.29-.03-.26,0-.45.08-.59.23-.13.15-.2.37-.2.65v.63h1.36v1.28h-1.36v4.66h-1.72v-4.66h-1v-1.28h1v-.74c0-.63.22-1.14.65-1.53s.99-.58,1.68-.58c.25,0,.46.01.63.04s.35.07.54.13l-.4,1.3Z"/>
    <path class="cls-4" d="M451.38,147.41h-3.92c.03.46.18.8.45,1.03.27.23.64.34,1.11.34.17,0,.41-.05.71-.15.3-.1.59-.26.88-.47l.75,1.01c-.4.3-.82.52-1.24.67-.42.14-.88.21-1.39.21-.95,0-1.68-.27-2.21-.8-.53-.53-.79-1.28-.79-2.23s.28-1.72.83-2.32c.55-.59,1.26-.89,2.11-.89s1.48.25,1.96.75c.49.5.73,1.22.73,2.15v.7ZM449.77,146.33c0-.47-.09-.81-.28-1.02-.18-.21-.46-.31-.82-.31-.31,0-.58.12-.81.36s-.36.56-.41.97h2.31Z"/>
    <path class="cls-4" d="M452.02,149.4l.72-1.16c.2.15.44.29.71.39.27.11.57.16.91.16.25,0,.46-.05.62-.14.16-.09.24-.23.24-.42,0-.15-.06-.27-.19-.36-.12-.09-.35-.17-.69-.25-.74-.16-1.27-.38-1.59-.67-.32-.29-.48-.68-.48-1.19,0-.6.24-1.07.71-1.43.47-.36,1.06-.53,1.75-.53.35,0,.69.05,1.01.14.32.09.62.23.9.41l-.65,1.12c-.24-.15-.47-.26-.68-.33-.21-.07-.43-.1-.65-.1-.26,0-.46.05-.62.15-.16.1-.23.23-.23.38,0,.17.07.3.21.38s.41.16.81.25c.68.14,1.18.36,1.48.65.3.29.45.69.45,1.2,0,.6-.23,1.08-.68,1.45-.45.36-1.05.55-1.8.55-.41,0-.8-.05-1.17-.16-.37-.1-.74-.26-1.1-.48Z"/>
    <path class="cls-4" d="M458.79,143.16c-.3,0-.55-.09-.74-.27-.19-.18-.29-.41-.29-.68s.1-.51.29-.69c.19-.18.44-.27.74-.27s.55.09.74.27.29.41.29.69-.1.51-.29.69c-.19.18-.44.27-.74.27ZM459.64,149.9h-1.73v-5.95h1.73v5.95Z"/>
    <path class="cls-4" d="M464.16,150.05c-.98,0-1.75-.28-2.31-.84-.56-.56-.84-1.31-.84-2.26,0-.99.3-1.76.88-2.31.58-.55,1.37-.83,2.37-.83s1.74.28,2.29.83c.56.55.83,1.29.83,2.21,0,.98-.29,1.76-.86,2.33s-1.36.86-2.35.86ZM464.23,148.71c.46,0,.81-.15,1.04-.46.23-.31.35-.76.35-1.37s-.12-1.01-.35-1.3-.58-.44-1.05-.44-.81.16-1.06.47-.38.75-.38,1.31.12,1.03.37,1.33c.24.3.61.45,1.08.45Z"/>
    <path class="cls-4" d="M474.33,149.9h-1.73v-3.32c0-.48-.09-.84-.26-1.08-.17-.24-.43-.36-.77-.36s-.61.13-.83.39c-.22.26-.33.58-.33.98v3.39h-1.73v-5.95h1.73v.95h.02c.22-.37.49-.64.81-.82.32-.18.69-.27,1.11-.27.66,0,1.15.21,1.48.62.33.41.5,1.02.5,1.83v3.64Z"/>
    <path class="cls-4" d="M480.76,149.9h-1.65v-.86h-.02c-.2.33-.44.58-.74.75s-.64.25-1.01.25c-.53,0-.97-.16-1.34-.48-.36-.32-.54-.75-.54-1.31s.18-1,.54-1.35c.36-.34.92-.57,1.68-.67l1.46-.2v-.11c0-.31-.09-.54-.28-.69-.19-.16-.45-.23-.78-.23-.25,0-.52.04-.82.13-.29.09-.59.22-.89.41l-.61-1.03c.39-.24.78-.42,1.18-.53s.83-.17,1.29-.17c.86,0,1.5.21,1.92.62s.62,1.04.62,1.88v3.59ZM479.13,147.48v-.42l-1.13.15c-.32.04-.55.13-.71.28-.16.14-.23.33-.23.57,0,.22.08.4.23.54.15.14.35.21.61.21.36,0,.66-.12.89-.37s.34-.56.34-.95Z"/>
    <path class="cls-4" d="M482.31,149.9v-8.59h1.73v8.59h-1.73Z"/>
    <path class="cls-4" d="M424.65,161.51h-1.77v-8.13h1.77v8.13Z"/>
    <path class="cls-4" d="M433.2,161.51h-2.1l-1.43-2.67s-.05-.12-.08-.21-.05-.2-.08-.33h-.02c-.02.06-.04.14-.07.23-.03.09-.07.2-.12.32l-1.44,2.66h-2.11l2.6-4.07-2.38-4.06h2.16l1.19,2.46c.04.09.09.2.13.31.04.11.08.24.12.37h.02c.03-.09.06-.19.1-.3.04-.12.09-.25.15-.4l1.33-2.44h1.97l-2.44,4.03,2.52,4.1Z"/>
    <path class="cls-4" d="M442.21,161.51h-1.65v-.86h-.02c-.2.33-.44.58-.74.75s-.64.25-1.01.25c-.53,0-.97-.16-1.34-.48-.36-.32-.54-.75-.54-1.31s.18-1,.54-1.35c.36-.34.92-.57,1.68-.67l1.46-.2v-.11c0-.31-.09-.54-.28-.69-.19-.16-.45-.23-.78-.23-.25,0-.52.04-.82.13-.29.09-.59.22-.89.41l-.61-1.03c.39-.24.78-.42,1.18-.53s.83-.17,1.29-.17c.86,0,1.5.21,1.92.62s.62,1.04.62,1.88v3.59ZM440.57,159.09v-.42l-1.13.15c-.32.04-.55.13-.71.28-.16.14-.23.33-.23.57,0,.22.08.4.23.54.15.14.35.21.61.21.36,0,.66-.12.89-.37s.34-.56.34-.95Z"/>
    <path class="cls-4" d="M453.7,161.51h-2.1l-1.43-2.67s-.05-.12-.08-.21-.05-.2-.08-.33h-.02c-.02.06-.04.14-.07.23-.03.09-.07.2-.12.32l-1.44,2.66h-2.11l2.6-4.07-2.38-4.06h2.16l1.19,2.46c.04.09.09.2.13.31.04.11.08.24.12.37h.02c.03-.09.06-.19.1-.3.04-.12.09-.25.15-.4l1.33-2.44h1.97l-2.44,4.03,2.52,4.1Z"/>
  </g>
  <g>
    <rect class="cls-6" x="199.46" y="81.25" width="120.74" height="13.11"/>
    <path class="cls-5" d="M201.15,86.36v2.86h-.71v-7.55h1.95c.79,0,1.4.19,1.83.58s.64.93.64,1.65-.24,1.31-.71,1.77c-.48.46-1.13.69-1.96.69h-1.04ZM201.15,82.31v3.42h1c.65,0,1.14-.15,1.47-.46.34-.31.51-.75.51-1.31s-.15-.96-.46-1.23c-.31-.27-.77-.41-1.39-.41h-1.12Z"/>
    <path class="cls-5" d="M208.85,84.42c-.08-.03-.15-.05-.21-.06-.06-.01-.14-.02-.22-.02-.45,0-.81.21-1.07.62s-.4.95-.4,1.62v2.64h-.67v-5.39h.67v1.13h.02c.12-.39.31-.7.58-.91.26-.21.57-.32.93-.32.09,0,.18,0,.25.02.08.01.16.03.23.05l-.1.62Z"/>
    <path class="cls-5" d="M212.14,89.35c-.79,0-1.42-.26-1.89-.77-.47-.51-.7-1.18-.7-2.01,0-.9.24-1.6.73-2.11.49-.51,1.14-.76,1.95-.77.79,0,1.4.25,1.85.75.45.5.67,1.19.67,2.07s-.23,1.53-.71,2.05-1.11.78-1.91.78ZM212.18,88.76c.6,0,1.07-.2,1.39-.59s.49-.94.49-1.64-.16-1.28-.49-1.67-.79-.58-1.38-.58-1.06.2-1.42.6c-.35.4-.53.96-.53,1.67,0,.67.17,1.2.52,1.6.35.4.82.6,1.41.6Z"/>
    <path class="cls-5" d="M220.23,83.83l-2.65,6.61c-.15.39-.37.7-.64.94-.27.24-.59.37-.97.37-.1,0-.19,0-.28-.02s-.17-.03-.25-.05l.15-.6c.06.02.12.04.17.05.06.01.12.02.18.02.22,0,.41-.07.57-.2.16-.13.29-.31.38-.54l.5-1.21-2.07-5.36h.75l1.54,4.27c.02.06.04.12.06.18.02.06.04.14.06.22h.03s.03-.1.05-.17c.02-.06.04-.13.07-.21l1.63-4.29h.71Z"/>
    <path class="cls-5" d="M225.38,86.63h-3.9c0,.72.18,1.25.52,1.61.34.35.79.53,1.35.53.25,0,.51-.04.76-.12.25-.08.5-.21.75-.39l.34.48c-.3.21-.6.37-.91.46-.31.1-.65.15-1.01.15-.74,0-1.33-.23-1.79-.7-.46-.47-.69-1.17-.69-2.1,0-.83.23-1.51.68-2.04.45-.53,1.04-.8,1.77-.8.68,0,1.21.23,1.59.7s.56,1.1.56,1.91v.32ZM224.68,86.06c-.01-.56-.15-.99-.41-1.31-.26-.31-.61-.47-1.07-.47s-.84.16-1.15.47-.5.75-.56,1.3h3.19Z"/>
    <path class="cls-5" d="M230.38,88.92c-.25.15-.49.26-.74.33-.25.07-.51.1-.81.1-.74,0-1.35-.24-1.82-.73s-.7-1.15-.7-1.99.25-1.57.75-2.12c.5-.54,1.15-.82,1.97-.82.25,0,.48.03.71.09.23.06.46.15.7.27l-.28.52c-.19-.1-.38-.18-.57-.22-.18-.05-.39-.07-.6-.07-.62,0-1.1.21-1.46.64-.35.42-.53.97-.53,1.64s.17,1.23.52,1.61c.35.39.8.58,1.36.58.2,0,.4-.03.59-.08.2-.05.39-.14.59-.27l.31.51Z"/>
    <path class="cls-5" d="M233.94,89.13c-.13.07-.27.12-.41.15-.14.03-.3.05-.47.05-.39,0-.69-.12-.91-.35s-.33-.58-.33-1.03v-3.53h-.95v-.59h.95v-1.37l.67-.22v1.59h1.39v.59h-1.39v3.45c0,.31.06.53.17.67.11.14.28.21.5.21.12,0,.22-.01.32-.04.1-.03.19-.06.26-.11l.19.53Z"/>
    <path class="cls-5" d="M237.21,89.35c-.79,0-1.42-.26-1.89-.77-.47-.51-.7-1.18-.7-2.01,0-.9.24-1.6.73-2.11.49-.51,1.14-.76,1.95-.77.79,0,1.4.25,1.85.75.45.5.67,1.19.67,2.07s-.23,1.53-.71,2.05-1.11.78-1.91.78ZM237.25,88.76c.6,0,1.07-.2,1.39-.59s.49-.94.49-1.64-.16-1.28-.49-1.67-.79-.58-1.38-.58-1.06.2-1.42.6c-.35.4-.53.96-.53,1.67,0,.67.17,1.2.52,1.6.35.4.82.6,1.41.6Z"/>
    <path class="cls-5" d="M249.71,81.68l-2.86,7.55h-.68l-2.75-7.55h.78l2.14,6.03c.04.11.07.22.1.34s.05.23.07.35h.02c.01-.1.04-.21.07-.32s.07-.24.12-.38l2.23-6.02h.75Z"/>
    <path class="cls-5" d="M251.54,89.22h-.71v-7.55h.71v7.55Z"/>
    <path class="cls-5" d="M260.46,83.83l-2.65,6.61c-.15.39-.37.7-.64.94-.27.24-.59.37-.97.37-.1,0-.19,0-.28-.02s-.17-.03-.25-.05l.15-.6c.06.02.12.04.17.05.06.01.12.02.18.02.22,0,.41-.07.57-.2.16-.13.29-.31.38-.54l.5-1.21-2.07-5.36h.75l1.54,4.27c.02.06.04.12.06.18.02.06.04.14.06.22h.03s.03-.1.05-.17c.02-.06.04-.13.07-.21l1.63-4.29h.71Z"/>
    <path class="cls-5" d="M269.92,81.68l-2.86,7.55h-.68l-2.75-7.55h.78l2.14,6.03c.04.11.07.22.1.34.03.12.05.23.07.35h.02c.01-.1.04-.21.07-.32s.07-.24.12-.38l2.23-6.02h.75Z"/>
    <path class="cls-5" d="M271.75,89.22h-.71v-7.55h.71v7.55Z"/>
    <path class="cls-5" d="M274.41,89.22h-.71v-7.55h.71v7.55Z"/>
    <path class="cls-5" d="M277.08,89.22h-.71v-7.55h.71v7.55Z"/>
  </g>
  <g>
    <path class="cls-9" d="M6.62,143.69l-.76-.44c.17-.26.29-.51.35-.74.07-.23.1-.48.1-.75,0-.33-.07-.59-.21-.78s-.35-.29-.62-.29c-.24,0-.43.08-.57.24-.14.16-.27.43-.38.81-.17.6-.39,1.03-.65,1.31-.26.28-.61.42-1.06.42-.48,0-.88-.18-1.2-.54s-.48-.85-.48-1.47c0-.27.03-.54.09-.81.06-.26.16-.52.29-.78l.78.38c-.12.22-.2.43-.25.63-.05.2-.08.41-.08.62,0,.3.07.54.2.72.13.17.32.26.56.26.22,0,.39-.08.51-.24.12-.16.25-.43.37-.83.18-.61.4-1.04.67-1.31.27-.27.65-.4,1.12-.4.51,0,.93.18,1.25.54.33.36.49.88.49,1.55,0,.34-.04.67-.13.99-.09.32-.22.62-.39.9Z"/>
    <path class="cls-9" d="M5.17,135.1v2.9c.4-.02.71-.14.92-.35.21-.21.32-.52.32-.91,0-.15-.03-.33-.1-.54-.06-.2-.17-.41-.31-.61l.6-.43c.19.27.33.54.41.81s.13.57.13.9c0,.66-.19,1.17-.57,1.54-.38.37-.91.55-1.6.55-.68,0-1.23-.19-1.65-.57-.42-.38-.63-.87-.63-1.46s.18-1.02.54-1.35c.36-.33.86-.49,1.52-.49h.42ZM4.51,136.02c-.36,0-.64.08-.83.24-.19.16-.28.38-.28.68,0,.28.1.51.3.7s.47.31.81.35v-1.97Z"/>
    <path class="cls-9" d="M7.05,127.77v.96h-2.43c-.4,0-.69.07-.87.2s-.28.34-.28.63c0,.26.11.47.34.64.23.17.51.26.84.26h2.4v.96h-2.49c-.36,0-.64.07-.82.21-.18.14-.27.35-.27.62s.11.48.33.65.51.25.86.25h2.39v.97H2.8v-.97h.67v-.02c-.24-.14-.43-.33-.57-.56-.14-.23-.2-.49-.2-.78s.07-.54.22-.75.35-.37.62-.46c-.28-.16-.49-.36-.63-.59-.14-.24-.21-.51-.21-.82,0-.46.14-.81.43-1.05s.72-.35,1.29-.35h2.63Z"/>
    <path class="cls-9" d="M5.17,122.97v2.9c.4-.02.71-.14.92-.35.21-.21.32-.52.32-.91,0-.15-.03-.33-.1-.54-.06-.2-.17-.41-.31-.61l.6-.43c.19.27.33.54.41.81s.13.57.13.9c0,.66-.19,1.17-.57,1.54-.38.37-.91.55-1.6.55-.68,0-1.23-.19-1.65-.57-.42-.38-.63-.87-.63-1.46s.18-1.02.54-1.35c.36-.33.86-.49,1.52-.49h.42ZM4.51,123.89c-.36,0-.64.08-.83.24-.19.16-.28.38-.28.68,0,.28.1.51.3.7s.47.31.81.35v-1.97Z"/>
    <path class="cls-9" d="M6.72,122.38l-.68-.42c.11-.16.21-.34.28-.52s.11-.39.11-.61c0-.24-.04-.42-.13-.55-.09-.13-.22-.2-.39-.2-.14,0-.26.06-.35.17s-.17.3-.23.56c-.12.53-.29.9-.49,1.11s-.47.32-.81.32c-.39,0-.7-.15-.95-.46-.24-.3-.37-.7-.37-1.18,0-.24.03-.46.09-.68.06-.22.16-.42.29-.63l.66.38c-.11.18-.19.35-.24.5-.05.15-.07.3-.07.46,0,.23.04.41.13.54s.21.19.36.19.27-.06.35-.18c.08-.12.15-.34.22-.64.11-.46.27-.8.48-1.01.21-.21.49-.32.84-.32.41,0,.73.15.98.45s.37.71.37,1.22c0,.28-.04.54-.11.79-.07.25-.18.49-.32.72Z"/>
    <path class="cls-9" d="M6.99,115.94c.05.12.09.25.12.38s.04.28.04.43c0,.4-.1.7-.31.91-.21.21-.52.32-.93.32h-2.34v.71h-.75v-.71h-.96l-.29-.96h1.25v-1.02h.75v1.02h2.26c.21,0,.36-.04.45-.12s.14-.19.14-.35c0-.08,0-.15-.03-.22-.02-.07-.04-.13-.07-.19l.68-.2Z"/>
    <path class="cls-9" d="M3.61,112.75c-.01.05-.02.11-.03.16,0,.05-.01.11-.01.18,0,.34.13.6.38.78.25.18.59.28,1,.28h2.1v.97H2.8v-.97h.82v-.02c-.29-.1-.52-.24-.67-.44s-.22-.42-.22-.69c0-.07,0-.14.01-.2,0-.06.02-.12.04-.18l.83.13Z"/>
    <path class="cls-9" d="M5.17,108.3v2.9c.4-.02.71-.14.92-.35.21-.21.32-.52.32-.91,0-.15-.03-.33-.1-.54-.06-.2-.17-.41-.31-.61l.6-.43c.19.27.33.54.41.81s.13.57.13.9c0,.66-.19,1.17-.57,1.54-.38.37-.91.55-1.6.55-.68,0-1.23-.19-1.65-.57-.42-.38-.63-.87-.63-1.46s.18-1.02.54-1.35c.36-.33.86-.49,1.52-.49h.42ZM4.51,109.22c-.36,0-.64.08-.83.24-.19.16-.28.38-.28.68,0,.28.1.51.3.7s.47.31.81.35v-1.97Z"/>
    <path class="cls-9" d="M6.72,107.72l-.68-.42c.11-.16.21-.34.28-.52s.11-.39.11-.61c0-.24-.04-.42-.13-.55-.09-.13-.22-.2-.39-.2-.14,0-.26.06-.35.17s-.17.3-.23.56c-.12.53-.29.9-.49,1.11s-.47.32-.81.32c-.39,0-.7-.15-.95-.46-.24-.3-.37-.7-.37-1.18,0-.24.03-.46.09-.68.06-.22.16-.42.29-.63l.66.38c-.11.18-.19.35-.24.5-.05.15-.07.3-.07.46,0,.23.04.41.13.54s.21.19.36.19.27-.06.35-.18c.08-.12.15-.34.22-.64.11-.46.27-.8.48-1.01.21-.21.49-.32.84-.32.41,0,.73.15.98.45s.37.71.37,1.22c0,.28-.04.54-.11.79-.07.25-.18.49-.32.72Z"/>
  </g>
</svg>