<?xml version="1.0" encoding="UTF-8"?>
<svg id="Capa_1" data-name="Capa 1" xmlns="http://www.w3.org/2000/svg" viewBox="0 0 270.84 337.95">
  <defs>
    <style>
      .cls-1 {
        fill: #fad2c5;
      }

      .cls-2, .cls-3 {
        fill: none;
      }

      .cls-3 {
        stroke: #9d9d9d;
        stroke-miterlimit: 10;
        stroke-width: .75px;
      }

      .cls-4 {
        fill: #f29375;
      }

      .cls-5 {
        fill: #2d2d2d;
      }

      .cls-6 {
        fill: #b6b6b5;
      }
    </style>
  </defs>
  <rect class="cls-4" x="103.34" y="90.8" width="125" height="228.18"/>
  <rect class="cls-1" x="103.34" y="52.98" width="125" height="37.82"/>
  <line class="cls-3" x1="33.34" y1="19.48" x2="33.34" y2="318.98"/>
  <g>
    <rect class="cls-2" x="21.59" y="313.35" width="11.14" height="12.63"/>
    <path class="cls-5" d="M24.56,321.63c-.79,0-1.4-.33-1.82-.99-.42-.66-.64-1.61-.64-2.84,0-1.34.22-2.37.67-3.08.45-.71,1.09-1.06,1.94-1.06s1.44.33,1.84.99c.4.66.6,1.64.6,2.96s-.23,2.29-.68,2.98-1.09,1.04-1.91,1.04ZM24.67,314.46c-.53,0-.93.27-1.19.82-.26.55-.39,1.37-.39,2.47,0,1.02.13,1.79.39,2.3s.65.77,1.17.77.91-.26,1.16-.78c.25-.52.38-1.3.38-2.35s-.12-1.89-.37-2.42-.63-.8-1.13-.8Z"/>
  </g>
  <g>
    <rect class="cls-2" x="22.59" y="221.04" width="11.14" height="12.63"/>
    <path class="cls-5" d="M27.49,221.42v5.15h.84v.86h-.84v1.82h-.95v-1.82h-3.62v-.83c.34-.38.68-.79,1.02-1.23.34-.43.67-.88.99-1.32.31-.45.6-.9.87-1.35s.49-.88.67-1.29h1.02ZM23.98,226.56h2.57v-3.72c-.26.46-.51.86-.74,1.23-.23.36-.45.69-.66.99-.21.3-.42.58-.61.82-.2.24-.38.47-.55.69Z"/>
  </g>
  <g>
    <rect class="cls-2" x="22.59" y="267.04" width="11.14" height="12.63"/>
    <path class="cls-5" d="M23.31,275.18v-.4c0-.33.04-.63.12-.89s.2-.5.37-.73c.16-.23.38-.45.64-.68.26-.22.58-.47.96-.74.27-.19.5-.38.69-.56.19-.18.34-.36.45-.54.1-.15.18-.32.24-.52s.08-.39.08-.6c0-.41-.12-.74-.35-1s-.56-.39-.98-.39c-.33,0-.65.07-.95.2-.3.13-.58.34-.85.61l-.58-.56c.34-.35.71-.62,1.11-.79s.84-.26,1.33-.26c.72,0,1.28.21,1.66.63.38.42.57.91.57,1.46,0,.3-.04.58-.12.85-.08.26-.19.5-.33.71-.15.22-.33.43-.54.64s-.46.41-.74.62c-.34.24-.63.45-.86.62s-.41.33-.54.48c-.14.16-.23.31-.29.46-.06.15-.09.33-.09.52h3.78v.85h-4.79Z"/>
  </g>
  <g>
    <rect class="cls-2" x="23.59" y="174.7" width="11.14" height="12.63"/>
    <path class="cls-5" d="M29.08,180.39c0,.78-.23,1.4-.69,1.88s-1.04.71-1.74.71c-.78,0-1.39-.3-1.83-.91-.44-.61-.66-1.48-.66-2.62,0-.56.05-1.13.16-1.69s.33-1.08.66-1.54c.3-.42.63-.72,1.01-.91.38-.19.82-.29,1.33-.29.27,0,.54.04.8.13.26.08.52.22.78.41l-.49.65c-.18-.13-.36-.23-.54-.29-.18-.06-.38-.09-.6-.09-.32,0-.6.07-.84.2-.25.13-.48.34-.7.64-.19.26-.33.58-.44.96-.1.38-.15.8-.15,1.26h.02c.22-.29.48-.5.79-.64.31-.14.62-.21.96-.21.66,0,1.19.22,1.58.66s.6,1.01.6,1.72ZM28.12,180.45c0-.55-.13-.96-.38-1.24-.25-.28-.58-.42-.99-.42-.48,0-.86.15-1.14.45-.28.3-.42.66-.42,1.08,0,.54.14.98.41,1.33.28.34.64.52,1.08.52s.78-.15,1.04-.44c.26-.29.39-.72.39-1.27Z"/>
  </g>
  <g>
    <rect class="cls-2" x="19.95" y="84.38" width="13.79" height="12.63"/>
    <path class="cls-5" d="M22.93,92.52h-.96v-6.53c-.14.12-.37.26-.7.41-.33.16-.63.27-.89.34l-.27-.83c.42-.11.86-.29,1.32-.53.46-.24.83-.49,1.1-.74h.4v7.87Z"/>
    <path class="cls-5" d="M27.27,92.66c-.79,0-1.4-.33-1.82-.99-.42-.66-.64-1.61-.64-2.84,0-1.34.22-2.37.67-3.08.45-.71,1.09-1.06,1.94-1.06s1.44.33,1.84.99c.4.66.6,1.64.6,2.96s-.23,2.29-.68,2.98-1.09,1.04-1.91,1.04ZM27.38,85.49c-.53,0-.93.27-1.19.82-.26.55-.39,1.37-.39,2.47,0,1.02.13,1.79.39,2.3s.65.77,1.17.77.91-.26,1.16-.78c.25-.52.38-1.3.38-2.35s-.12-1.89-.37-2.42-.63-.81-1.13-.81Z"/>
  </g>
  <g>
    <rect class="cls-2" x="21.59" y="128.38" width="11.14" height="12.63"/>
    <path class="cls-5" d="M22.11,134.38c0-.41.12-.8.37-1.19s.6-.66,1.05-.83c-.33-.19-.6-.43-.79-.73-.2-.29-.3-.62-.3-.97,0-.57.21-1.04.63-1.41.42-.37.94-.56,1.56-.56s1.16.19,1.57.56.62.85.62,1.41c0,.35-.1.68-.3.97-.2.29-.46.53-.79.72.45.17.79.45,1.04.83.25.39.37.78.37,1.19,0,.67-.23,1.21-.7,1.63s-1.07.63-1.82.63-1.35-.21-1.82-.63c-.47-.42-.7-.97-.7-1.64ZM23.12,134.3c0,.47.14.85.42,1.12s.64.41,1.09.41.8-.14,1.08-.41.43-.65.43-1.11c0-.42-.14-.78-.41-1.07-.27-.3-.64-.45-1.1-.45-.43,0-.79.14-1.08.43-.29.28-.43.65-.43,1.09ZM23.39,130.74c0,.36.12.66.36.9.24.24.53.36.88.36s.63-.12.88-.36c.25-.24.37-.54.37-.89s-.12-.67-.36-.91c-.24-.24-.54-.36-.88-.36-.37,0-.67.12-.9.37-.23.25-.34.54-.34.9Z"/>
  </g>
  <g>
    <rect class="cls-2" x="114.91" y="169.48" width="101.28" height="57.5"/>
    <path class="cls-5" d="M124.07,176.88v-7h2.23c1.39,0,2.44.28,3.13.85.7.57,1.04,1.42,1.04,2.56,0,1.08-.39,1.95-1.16,2.6-.77.66-1.8.98-3.09.98h-2.16ZM125.07,170.67v5.42h1.15c1.01,0,1.79-.24,2.36-.72.56-.48.84-1.17.84-2.05s-.26-1.54-.79-1.98c-.53-.44-1.31-.66-2.36-.66h-1.2Z"/>
    <path class="cls-5" d="M132.48,170.67c-.19,0-.36-.06-.48-.17s-.19-.25-.19-.42.06-.31.19-.42c.13-.11.29-.17.48-.17s.36.06.49.17c.13.11.2.25.2.42s-.07.3-.2.42-.29.17-.49.17ZM132.96,176.88h-.98v-5.12h.98v5.12Z"/>
    <path class="cls-5" d="M134.42,176.5l.46-.65c.24.14.48.25.72.33s.5.11.79.11c.38,0,.68-.06.88-.19.2-.13.3-.31.3-.56,0-.21-.09-.38-.27-.52-.18-.14-.46-.25-.84-.34-.71-.16-1.21-.36-1.47-.61-.27-.25-.4-.56-.4-.93,0-.43.18-.79.55-1.07.37-.28.87-.42,1.51-.42.31,0,.6.04.88.11.28.07.56.19.84.35l-.42.64c-.26-.14-.49-.24-.69-.3-.21-.06-.42-.09-.63-.09-.36,0-.64.06-.84.18s-.29.29-.29.52.1.39.29.51c.19.12.51.22.95.32.59.14,1.03.33,1.32.58.29.25.44.58.44.99,0,.47-.19.85-.57,1.13-.38.28-.91.42-1.56.42-.36,0-.7-.04-1.03-.13-.33-.09-.63-.21-.91-.37Z"/>
    <path class="cls-5" d="M144.6,174.51h-4.06c.02.57.19,1,.51,1.31.32.3.78.46,1.36.46.25,0,.51-.04.78-.1.27-.07.53-.19.8-.34l.45.61c-.33.2-.67.34-1.01.43-.34.09-.71.14-1.11.14-.87,0-1.55-.23-2.04-.69-.49-.46-.73-1.1-.74-1.93,0-.82.24-1.49.74-1.99.5-.5,1.14-.75,1.93-.75s1.34.22,1.76.65c.42.43.63,1.04.63,1.81v.42ZM143.62,173.83c0-.47-.13-.84-.38-1.1-.25-.26-.6-.39-1.04-.39s-.8.13-1.1.4c-.3.27-.48.63-.55,1.09h3.06Z"/>
    <path class="cls-5" d="M150.89,176.88h-.98v-2.92c0-.53-.11-.93-.33-1.2s-.55-.4-.98-.4-.83.15-1.12.45c-.3.3-.45.68-.45,1.15v2.92h-.98v-5.12h.98v.85h.02c.22-.32.48-.56.8-.73s.68-.24,1.09-.24c.63,0,1.11.18,1.45.54.33.36.5.88.5,1.57v3.13ZM150.23,169.64c0,.35-.09.64-.27.86-.18.22-.42.33-.73.33-.13,0-.27-.02-.42-.06s-.31-.1-.47-.19c-.14-.08-.27-.13-.38-.16-.11-.03-.2-.05-.28-.05-.16,0-.28.05-.36.14-.08.09-.12.23-.12.42h-.54c0-.36.09-.65.27-.86.18-.21.43-.32.75-.32.12,0,.25.02.39.06s.28.11.44.19c.14.07.27.12.38.16.12.04.22.05.32.05.15,0,.27-.05.35-.14.08-.1.12-.24.12-.43h.57Z"/>
    <path class="cls-5" d="M156.82,176.88h-.97v-.81h-.02c-.2.31-.44.54-.74.69-.29.16-.63.23-1.02.23-.54,0-.98-.14-1.31-.42-.33-.28-.5-.65-.5-1.11s.17-.81.51-1.1c.34-.29.82-.47,1.46-.55l1.64-.2v-.12c0-.41-.11-.71-.33-.89-.22-.18-.52-.27-.89-.27-.3,0-.59.05-.87.15s-.55.25-.8.45l-.53-.53c.33-.27.67-.46,1.05-.59.37-.13.78-.19,1.22-.19.7,0,1.23.16,1.59.48s.54.81.54,1.45v3.31ZM155.85,174.79v-.49l-1.37.17c-.42.05-.74.15-.95.28s-.31.35-.31.64.1.51.29.67c.2.16.44.24.73.24.48,0,.87-.14,1.17-.43.29-.28.44-.65.44-1.09Z"/>
    <path class="cls-5" d="M162.62,176.02c-.21.33-.48.57-.81.73-.33.17-.71.25-1.16.25-.73,0-1.31-.23-1.74-.69s-.65-1.08-.65-1.88c0-.85.24-1.53.72-2.04.48-.51,1.12-.76,1.92-.76.4,0,.74.07,1.02.21.29.14.52.34.7.62h.02v-2.98h.98v7.4h-.98v-.86h-.02ZM159.26,174.39c0,.59.15,1.05.46,1.38.3.33.71.5,1.22.5s.93-.16,1.24-.49.47-.74.47-1.24v-.73c0-.41-.15-.76-.45-1.04-.3-.28-.68-.42-1.15-.42-.55,0-.99.18-1.31.54-.32.36-.48.86-.48,1.49Z"/>
    <path class="cls-5" d="M167.97,177c-.86,0-1.55-.24-2.06-.72-.51-.48-.77-1.12-.77-1.91,0-.86.26-1.53.79-2.01.53-.48,1.25-.72,2.16-.73.87,0,1.54.23,2.03.71.49.47.73,1.12.73,1.95s-.26,1.48-.79,1.97-1.23.74-2.11.74ZM168.03,176.28c.59,0,1.04-.17,1.35-.51.31-.34.47-.82.47-1.45s-.16-1.12-.47-1.46-.76-.51-1.35-.51-1.04.18-1.38.53c-.34.35-.51.84-.51,1.46s.17,1.08.51,1.42c.34.34.8.51,1.38.51Z"/>
    <path class="cls-5" d="M175.29,172.5c-.07-.02-.14-.03-.2-.04-.06,0-.14-.01-.22-.01-.47,0-.83.17-1.1.52-.27.35-.4.79-.4,1.33v2.59h-.98v-5.12h.98v1.02h.02c.13-.36.33-.64.6-.82.27-.19.58-.28.94-.28.11,0,.21,0,.29.01.08,0,.16.02.23.04l-.15.77Z"/>
    <path class="cls-5" d="M180.11,169.88l-3.73,8.05h-.83l3.73-8.05h.83Z"/>
    <path class="cls-5" d="M185.21,176.88h-.97v-.81h-.02c-.2.31-.44.54-.74.69-.29.16-.63.23-1.02.23-.54,0-.98-.14-1.31-.42-.33-.28-.5-.65-.5-1.11s.17-.81.51-1.1c.34-.29.82-.47,1.46-.55l1.64-.2v-.12c0-.41-.11-.71-.33-.89-.22-.18-.52-.27-.89-.27-.3,0-.59.05-.87.15s-.55.25-.8.45l-.53-.53c.33-.27.67-.46,1.05-.59.37-.13.78-.19,1.22-.19.7,0,1.23.16,1.59.48s.54.81.54,1.45v3.31ZM184.24,174.79v-.49l-1.37.17c-.42.05-.74.15-.95.28s-.31.35-.31.64.1.51.29.67c.2.16.44.24.73.24.48,0,.87-.14,1.17-.43.29-.28.44-.65.44-1.09Z"/>
    <path class="cls-5" d="M194.24,176.56c-.28.16-.55.27-.83.34-.27.07-.57.1-.88.1-.83,0-1.5-.23-2.02-.68-.52-.45-.78-1.08-.78-1.89s.26-1.52.79-2.03c.53-.51,1.25-.77,2.17-.77.3,0,.58.03.85.1.27.06.54.17.81.3l-.41.63c-.21-.11-.42-.19-.62-.24-.2-.05-.42-.07-.65-.07-.63,0-1.11.18-1.44.55-.34.37-.5.84-.5,1.42,0,.62.18,1.1.53,1.44.35.33.8.5,1.36.5.19,0,.38-.03.58-.08.2-.05.41-.14.62-.26l.43.62Z"/>
    <path class="cls-5" d="M198.02,177c-.86,0-1.55-.24-2.06-.72-.51-.48-.77-1.12-.77-1.91,0-.86.26-1.53.79-2.01.53-.48,1.25-.72,2.16-.73.87,0,1.54.23,2.03.71.49.47.73,1.12.73,1.95s-.26,1.48-.79,1.97-1.23.74-2.11.74ZM198.09,176.28c.59,0,1.04-.17,1.35-.51.31-.34.47-.82.47-1.45s-.16-1.12-.47-1.46-.76-.51-1.35-.51-1.04.18-1.38.53c-.34.35-.51.84-.51,1.46s.17,1.08.51,1.42c.34.34.8.51,1.38.51Z"/>
    <path class="cls-5" d="M207.27,176.88h-.98v-2.92c0-.53-.11-.93-.33-1.2s-.55-.4-.98-.4-.83.15-1.12.45c-.3.3-.45.68-.45,1.15v2.92h-.98v-5.12h.98v.85h.02c.22-.32.48-.56.8-.73s.68-.24,1.09-.24c.63,0,1.11.18,1.45.54.33.36.5.88.5,1.57v3.13Z"/>
    <path class="cls-5" d="M144.5,189.88h-.98v-2.94c0-.56-.1-.96-.29-1.21s-.52-.37-.97-.37c-.39,0-.72.16-.99.47s-.4.69-.4,1.13v2.92h-.98v-3.04c0-.5-.11-.87-.32-1.11-.21-.25-.54-.37-.96-.37-.4,0-.73.15-.99.44-.26.3-.39.68-.39,1.16v2.92h-.98v-5.12h.98v.81h.02c.21-.31.46-.54.76-.7s.65-.23,1.04-.23.74.1,1.03.29c.29.19.49.45.61.77.21-.35.48-.62.8-.79.32-.18.69-.26,1.11-.26.63,0,1.11.17,1.43.52.32.35.48.87.48,1.57v3.16Z"/>
    <path class="cls-5" d="M150.96,187.51h-4.06c.02.57.19,1,.51,1.31.32.3.78.46,1.36.46.25,0,.51-.04.78-.1.27-.07.53-.19.8-.34l.45.61c-.33.2-.67.34-1.01.43-.34.09-.71.14-1.11.14-.87,0-1.55-.23-2.04-.69-.49-.46-.73-1.1-.74-1.93,0-.82.24-1.49.74-1.99.5-.5,1.14-.75,1.93-.75s1.34.22,1.76.65c.42.43.63,1.04.63,1.81v.42ZM149.98,186.83c0-.47-.13-.84-.38-1.1-.25-.26-.6-.39-1.04-.39s-.8.13-1.1.4c-.3.27-.48.63-.55,1.09h3.06Z"/>
    <path class="cls-5" d="M157.25,189.88h-.98v-2.92c0-.53-.11-.93-.33-1.2s-.55-.4-.98-.4-.83.15-1.12.45c-.3.3-.45.68-.45,1.15v2.92h-.98v-5.12h.98v.85h.02c.22-.32.48-.56.8-.73s.68-.24,1.09-.24c.63,0,1.11.18,1.45.54.33.36.5.88.5,1.57v3.13Z"/>
    <path class="cls-5" d="M163.16,189.56c-.28.16-.55.27-.83.34-.27.07-.57.1-.88.1-.83,0-1.5-.23-2.02-.68-.52-.45-.78-1.08-.78-1.89s.26-1.52.79-2.03c.53-.51,1.25-.77,2.17-.77.3,0,.58.03.85.1.27.06.54.17.81.3l-.41.63c-.21-.11-.42-.19-.62-.24-.2-.05-.42-.07-.65-.07-.63,0-1.11.18-1.44.55-.34.37-.5.84-.5,1.42,0,.62.18,1.1.53,1.44.35.33.8.5,1.36.5.19,0,.38-.03.58-.08.2-.05.41-.14.62-.26l.43.62Z"/>
    <path class="cls-5" d="M165,183.67c-.19,0-.36-.06-.48-.17s-.19-.25-.19-.42.06-.31.19-.42c.13-.11.29-.17.48-.17s.36.06.49.17c.13.11.2.25.2.42s-.07.3-.2.42-.29.17-.49.17ZM165.47,189.88h-.98v-5.12h.98v5.12Z"/>
    <path class="cls-5" d="M169.89,190c-.86,0-1.55-.24-2.06-.72-.51-.48-.77-1.12-.77-1.91,0-.86.26-1.53.79-2.01.53-.48,1.25-.72,2.16-.73.87,0,1.54.23,2.03.71.49.47.73,1.12.73,1.95s-.26,1.48-.79,1.97-1.23.74-2.11.74ZM169.96,189.28c.59,0,1.04-.17,1.35-.51.31-.34.47-.82.47-1.45s-.16-1.12-.47-1.46-.76-.51-1.35-.51-1.04.18-1.38.53c-.34.35-.51.84-.51,1.46s.17,1.08.51,1.42c.34.34.8.51,1.38.51ZM169.93,183.84h-.75l1.25-1.6h.97l-1.47,1.6Z"/>
    <path class="cls-5" d="M179.14,189.88h-.98v-2.92c0-.53-.11-.93-.33-1.2s-.55-.4-.98-.4-.83.15-1.12.45c-.3.3-.45.68-.45,1.15v2.92h-.98v-5.12h.98v.85h.02c.22-.32.48-.56.8-.73s.68-.24,1.09-.24c.63,0,1.11.18,1.45.54.33.36.5.88.5,1.57v3.13Z"/>
    <path class="cls-5" d="M188.68,187.51h-4.06c.02.57.19,1,.51,1.31.32.3.78.46,1.36.46.25,0,.51-.04.78-.1.27-.07.53-.19.8-.34l.45.61c-.33.2-.67.34-1.01.43-.34.09-.71.14-1.11.14-.87,0-1.55-.23-2.04-.69-.49-.46-.73-1.1-.74-1.93,0-.82.24-1.49.74-1.99.5-.5,1.14-.75,1.93-.75s1.34.22,1.76.65c.42.43.63,1.04.63,1.81v.42ZM187.7,186.83c0-.47-.13-.84-.38-1.1-.25-.26-.6-.39-1.04-.39s-.8.13-1.1.4c-.3.27-.48.63-.55,1.09h3.06Z"/>
    <path class="cls-5" d="M194.97,189.88h-.98v-2.92c0-.53-.11-.93-.33-1.2s-.55-.4-.98-.4-.83.15-1.12.45c-.3.3-.45.68-.45,1.15v2.92h-.98v-5.12h.98v.85h.02c.22-.32.48-.56.8-.73s.68-.24,1.09-.24c.63,0,1.11.18,1.45.54.33.36.5.88.5,1.57v3.13Z"/>
    <path class="cls-5" d="M141.52,195.88l-2.9,7h-1.11l-2.84-7h1.11l2.13,5.49c.04.09.07.19.09.29.03.11.05.22.07.33h.02c.01-.1.04-.21.07-.31s.07-.22.11-.33l2.17-5.48h1.08Z"/>
    <path class="cls-5" d="M143.12,196.67c-.19,0-.36-.06-.48-.17s-.19-.25-.19-.42.06-.31.19-.42c.13-.11.29-.17.48-.17s.36.06.49.17c.13.11.2.25.2.42s-.07.3-.2.42-.29.17-.49.17ZM143.6,202.88h-.98v-5.12h.98v5.12Z"/>
    <path class="cls-5" d="M145.06,202.5l.46-.65c.24.14.48.25.72.33s.5.11.79.11c.38,0,.68-.06.88-.19.2-.13.3-.31.3-.56,0-.21-.09-.38-.27-.52-.18-.14-.46-.25-.84-.34-.71-.16-1.21-.36-1.47-.61-.27-.25-.4-.56-.4-.93,0-.43.18-.79.55-1.07.37-.28.87-.42,1.51-.42.31,0,.6.04.88.11.28.07.56.19.84.35l-.42.64c-.26-.14-.49-.24-.69-.3-.21-.06-.42-.09-.63-.09-.36,0-.64.06-.84.18s-.29.29-.29.52.1.39.29.51c.19.12.51.22.95.32.59.14,1.03.33,1.32.58.29.25.44.58.44.99,0,.47-.19.85-.57,1.13-.38.28-.91.42-1.56.42-.36,0-.7-.04-1.03-.13-.33-.09-.63-.21-.91-.37Z"/>
    <path class="cls-5" d="M155.29,202.88h-.98v-.82h-.02c-.19.31-.44.55-.74.7s-.65.23-1.05.23c-.69,0-1.2-.18-1.54-.54-.34-.36-.51-.91-.51-1.64v-3.06h.98v2.93c0,.53.11.93.34,1.19.23.26.57.4,1.03.4s.81-.14,1.09-.43.43-.67.43-1.14v-2.94h.98v5.12Z"/>
    <path class="cls-5" d="M161.33,202.88h-.97v-.81h-.02c-.2.31-.44.54-.74.69-.29.16-.63.23-1.02.23-.54,0-.98-.14-1.31-.42-.33-.28-.5-.65-.5-1.11s.17-.81.51-1.1c.34-.29.82-.47,1.46-.55l1.64-.2v-.12c0-.41-.11-.71-.33-.89-.22-.18-.52-.27-.89-.27-.3,0-.59.05-.87.15s-.55.25-.8.45l-.53-.53c.33-.27.67-.46,1.05-.59.37-.13.78-.19,1.22-.19.7,0,1.23.16,1.59.48s.54.81.54,1.45v3.31ZM160.37,200.79v-.49l-1.37.17c-.42.05-.74.15-.95.28s-.31.35-.31.64.1.51.29.67c.2.16.44.24.73.24.48,0,.87-.14,1.17-.43.29-.28.44-.65.44-1.09Z"/>
    <path class="cls-5" d="M163.15,202.88v-7.4h.98v7.4h-.98Z"/>
    <path class="cls-5" d="M166.53,196.67c-.19,0-.36-.06-.48-.17s-.19-.25-.19-.42.06-.31.19-.42c.13-.11.29-.17.48-.17s.36.06.49.17c.13.11.2.25.2.42s-.07.3-.2.42-.29.17-.49.17ZM167.01,202.88h-.98v-5.12h.98v5.12Z"/>
    <path class="cls-5" d="M172.96,202.02c-.21.33-.48.57-.81.73-.33.17-.71.25-1.16.25-.73,0-1.31-.23-1.74-.69s-.65-1.08-.65-1.88c0-.85.24-1.53.72-2.04.48-.51,1.12-.76,1.92-.76.4,0,.74.07,1.02.21.29.14.52.34.7.62h.02v-2.98h.98v7.4h-.98v-.86h-.02ZM169.6,200.39c0,.59.15,1.05.46,1.38.3.33.71.5,1.22.5s.93-.16,1.24-.49.47-.74.47-1.24v-.73c0-.41-.15-.76-.45-1.04-.3-.28-.68-.42-1.15-.42-.55,0-.99.18-1.31.54-.32.36-.48.86-.48,1.49Z"/>
    <path class="cls-5" d="M180.01,202.88h-.97v-.81h-.02c-.2.31-.44.54-.74.69-.29.16-.63.23-1.02.23-.54,0-.98-.14-1.31-.42-.33-.28-.5-.65-.5-1.11s.17-.81.51-1.1c.34-.29.82-.47,1.46-.55l1.64-.2v-.12c0-.41-.11-.71-.33-.89-.22-.18-.52-.27-.89-.27-.3,0-.59.05-.87.15s-.55.25-.8.45l-.53-.53c.33-.27.67-.46,1.05-.59.37-.13.78-.19,1.22-.19.7,0,1.23.16,1.59.48s.54.81.54,1.45v3.31ZM179.05,200.79v-.49l-1.37.17c-.42.05-.74.15-.95.28s-.31.35-.31.64.1.51.29.67c.2.16.44.24.73.24.48,0,.87-.14,1.17-.43.29-.28.44-.65.44-1.09Z"/>
    <path class="cls-5" d="M185.81,202.02c-.21.33-.48.57-.81.73-.33.17-.71.25-1.16.25-.73,0-1.31-.23-1.74-.69s-.65-1.08-.65-1.88c0-.85.24-1.53.72-2.04.48-.51,1.12-.76,1.92-.76.4,0,.74.07,1.02.21.29.14.52.34.7.62h.02v-2.98h.98v7.4h-.98v-.86h-.02ZM182.45,200.39c0,.59.15,1.05.46,1.38.3.33.71.5,1.22.5s.93-.16,1.24-.49.47-.74.47-1.24v-.73c0-.41-.15-.76-.45-1.04-.3-.28-.68-.42-1.15-.42-.55,0-.99.18-1.31.54-.32.36-.48.86-.48,1.49Z"/>
    <path class="cls-5" d="M196.47,197.76l-2.69,6.04c-.21.48-.48.84-.81,1.08-.33.24-.72.36-1.17.36-.12,0-.23,0-.34-.02s-.2-.03-.29-.05l.19-.73c.07.02.14.04.21.05s.13.01.2.01c.24,0,.45-.06.61-.17s.3-.28.4-.48l.47-.98-2.26-5.11h1.08l1.53,3.88s.03.08.05.15c.02.07.04.16.07.26h.03s.03-.1.05-.17c.02-.07.04-.15.07-.24l1.61-3.89h1.01Z"/>
    <path class="cls-5" d="M155.71,215.88h-1v-4.65c0-.19,0-.4.02-.63s.03-.48.06-.75h-.03c-.04.16-.08.3-.12.42-.04.12-.08.21-.11.28l-2.62,5.32h-.54l-2.61-5.28c-.04-.08-.08-.18-.12-.3-.04-.12-.08-.27-.12-.44h-.03c.02.16.03.36.04.59,0,.23.01.51.01.82v4.61h-.96v-7h1.35l2.34,4.81c.09.18.17.34.23.49.06.14.1.26.13.36h.03c.08-.19.15-.36.21-.51.06-.14.12-.27.16-.36l2.39-4.79h1.29v7Z"/>
    <path class="cls-5" d="M162.41,213.51h-4.06c.02.57.19,1,.51,1.31.32.3.78.46,1.36.46.25,0,.51-.04.78-.1.27-.07.53-.19.8-.34l.45.61c-.33.2-.67.34-1.01.43-.34.09-.71.14-1.11.14-.87,0-1.55-.23-2.04-.69-.49-.46-.73-1.1-.74-1.93,0-.82.24-1.49.74-1.99.5-.5,1.14-.75,1.93-.75s1.34.22,1.76.65c.42.43.63,1.04.63,1.81v.42ZM161.43,212.83c0-.47-.13-.84-.38-1.1-.25-.26-.6-.39-1.04-.39s-.8.13-1.1.4c-.3.27-.48.63-.55,1.09h3.06Z"/>
    <path class="cls-5" d="M167.84,215.02c-.21.33-.48.57-.81.73-.33.17-.71.25-1.16.25-.73,0-1.31-.23-1.74-.69s-.65-1.08-.65-1.88c0-.85.24-1.53.72-2.04.48-.51,1.12-.76,1.92-.76.4,0,.74.07,1.02.21.29.14.52.34.7.62h.02v-2.98h.98v7.4h-.98v-.86h-.02ZM164.48,213.39c0,.59.15,1.05.46,1.38.3.33.71.5,1.22.5s.93-.16,1.24-.49.47-.74.47-1.24v-.73c0-.41-.15-.76-.45-1.04-.3-.28-.68-.42-1.15-.42-.55,0-.99.18-1.31.54-.32.36-.48.86-.48,1.49Z"/>
    <path class="cls-5" d="M171.24,209.67c-.19,0-.36-.06-.48-.17s-.19-.25-.19-.42.06-.31.19-.42c.13-.11.29-.17.48-.17s.36.06.49.17c.13.11.2.25.2.42s-.07.3-.2.42-.29.17-.49.17ZM171.72,215.88h-.98v-5.12h.98v5.12Z"/>
    <path class="cls-5" d="M176.14,216c-.86,0-1.55-.24-2.06-.72-.51-.48-.77-1.12-.77-1.91,0-.86.26-1.53.79-2.01.53-.48,1.25-.72,2.16-.73.87,0,1.54.23,2.03.71.49.47.73,1.12.73,1.95s-.26,1.48-.79,1.97-1.23.74-2.11.74ZM176.2,215.28c.59,0,1.04-.17,1.35-.51.31-.34.47-.82.47-1.45s-.16-1.12-.47-1.46-.76-.51-1.35-.51-1.04.18-1.38.53c-.34.35-.51.84-.51,1.46s.17,1.08.51,1.42c.34.34.8.51,1.38.51Z"/>
    <path class="cls-5" d="M180.04,215.5l.46-.65c.24.14.48.25.72.33s.5.11.79.11c.38,0,.68-.06.88-.19.2-.13.3-.31.3-.56,0-.21-.09-.38-.27-.52-.18-.14-.46-.25-.84-.34-.71-.16-1.21-.36-1.47-.61-.27-.25-.4-.56-.4-.93,0-.43.18-.79.55-1.07.37-.28.87-.42,1.51-.42.31,0,.6.04.88.11.28.07.56.19.84.35l-.42.64c-.26-.14-.49-.24-.69-.3-.21-.06-.42-.09-.63-.09-.36,0-.64.06-.84.18s-.29.29-.29.52.1.39.29.51c.19.12.51.22.95.32.59.14,1.03.33,1.32.58.29.25.44.58.44.99,0,.47-.19.85-.57,1.13-.38.28-.91.42-1.56.42-.36,0-.7-.04-1.03-.13-.33-.09-.63-.21-.91-.37Z"/>
  </g>
  <g>
    <rect class="cls-2" x="114.91" y="67.18" width="101.28" height="9.8"/>
    <path class="cls-5" d="M132.03,75.32v-7.7h2.46c1.53,0,2.68.31,3.44.94.76.62,1.15,1.56,1.15,2.82,0,1.19-.42,2.14-1.27,2.87s-1.98,1.08-3.4,1.08h-2.37ZM133.13,68.48v5.96h1.26c1.11,0,1.97-.27,2.59-.8.62-.53.93-1.28.93-2.26s-.29-1.69-.87-2.18c-.58-.49-1.44-.73-2.6-.73h-1.32Z"/>
    <path class="cls-5" d="M141.29,68.49c-.21,0-.39-.06-.53-.19-.14-.12-.21-.28-.21-.46s.07-.34.21-.46c.14-.12.32-.19.53-.19s.39.06.54.19c.14.12.21.28.21.46s-.07.33-.21.46c-.14.12-.32.19-.54.19ZM141.82,75.32h-1.08v-5.63h1.08v5.63Z"/>
    <path class="cls-5" d="M143.42,74.9l.5-.72c.27.16.53.28.79.36.26.08.55.12.87.12.42,0,.75-.07.97-.21s.33-.34.33-.62c0-.23-.1-.42-.29-.57s-.5-.28-.92-.37c-.79-.18-1.33-.4-1.62-.67-.29-.27-.44-.62-.44-1.02,0-.47.2-.87.61-1.18.41-.31.96-.47,1.66-.47.34,0,.66.04.96.12s.61.21.92.38l-.47.71c-.28-.16-.54-.27-.76-.33s-.46-.09-.69-.09c-.4,0-.71.07-.92.2-.21.13-.32.32-.32.57s.11.43.31.56c.21.13.56.25,1.05.36.65.15,1.13.37,1.45.64.32.27.48.64.48,1.09,0,.52-.21.93-.63,1.24-.42.31-1,.46-1.72.46-.39,0-.77-.05-1.13-.14-.36-.09-.69-.23-1-.41Z"/>
    <path class="cls-5" d="M154.62,72.72h-4.46c.02.62.21,1.1.56,1.44.36.33.85.5,1.49.5.28,0,.56-.04.86-.12.29-.08.58-.2.88-.38l.49.67c-.37.21-.74.37-1.11.47-.37.1-.78.15-1.22.15-.96,0-1.71-.25-2.24-.76s-.81-1.21-.81-2.12c0-.91.27-1.64.81-2.19.55-.55,1.25-.83,2.13-.83s1.48.24,1.94.72c.46.48.69,1.14.69,2v.46ZM153.54,71.96c0-.52-.14-.92-.42-1.21-.28-.29-.66-.43-1.14-.43s-.88.15-1.21.44c-.33.3-.53.69-.6,1.2h3.37Z"/>
    <path class="cls-5" d="M161.54,75.32h-1.08v-3.21c0-.59-.12-1.03-.36-1.32s-.6-.44-1.08-.44-.91.17-1.23.5c-.33.33-.49.75-.49,1.26v3.22h-1.08v-5.63h1.08v.94h.02c.24-.36.53-.62.88-.8s.75-.27,1.2-.27c.69,0,1.22.2,1.59.6.37.4.55.97.55,1.72v3.45ZM160.81,67.35c0,.39-.1.71-.3.95-.2.24-.46.36-.8.36-.15,0-.3-.02-.47-.07-.17-.05-.34-.11-.52-.2-.16-.08-.3-.14-.42-.18-.12-.04-.22-.06-.3-.06-.18,0-.31.05-.4.15s-.13.25-.13.46h-.59c0-.4.1-.71.29-.95.2-.23.47-.35.83-.35.13,0,.28.02.43.07.15.05.31.12.48.21.15.08.29.14.42.18s.24.06.35.06c.17,0,.3-.05.38-.16.08-.1.13-.26.13-.47h.62Z"/>
    <path class="cls-5" d="M168.06,75.32h-1.07v-.89h-.02c-.22.34-.49.59-.81.76-.32.17-.7.26-1.12.26-.6,0-1.08-.15-1.45-.46-.37-.31-.55-.71-.55-1.22s.19-.89.56-1.21c.37-.31.91-.52,1.6-.61l1.8-.21v-.13c0-.46-.12-.78-.37-.98-.24-.2-.57-.3-.98-.3-.33,0-.64.06-.96.17s-.61.28-.88.5l-.59-.58c.36-.29.74-.51,1.15-.65s.86-.21,1.35-.21c.77,0,1.36.18,1.75.53.39.35.59.89.59,1.59v3.64ZM167,73.02v-.54l-1.51.18c-.46.06-.81.16-1.04.31s-.34.39-.34.71.11.57.32.74c.22.17.49.26.81.26.53,0,.96-.16,1.28-.47s.48-.71.48-1.2Z"/>
    <path class="cls-5" d="M174.44,74.37c-.23.36-.53.63-.89.81-.36.18-.79.27-1.27.27-.8,0-1.44-.25-1.91-.76s-.72-1.19-.72-2.06c0-.93.26-1.68.79-2.24.53-.56,1.23-.84,2.11-.84.44,0,.81.08,1.12.23s.57.38.77.68h.02v-3.28h1.08v8.14h-1.08v-.95h-.02ZM170.74,72.58c0,.64.17,1.15.5,1.52.33.37.78.55,1.34.55s1.02-.18,1.36-.54c.34-.36.51-.81.51-1.36v-.81c0-.45-.17-.83-.5-1.14-.33-.31-.75-.47-1.26-.47-.61,0-1.09.2-1.44.6-.35.4-.52.95-.52,1.64Z"/>
    <path class="cls-5" d="M180.33,75.45c-.95,0-1.7-.26-2.27-.79s-.84-1.23-.84-2.1c0-.94.29-1.68.87-2.21.58-.53,1.37-.8,2.38-.8.95,0,1.7.25,2.24.78.54.52.81,1.24.81,2.15s-.29,1.63-.87,2.17c-.58.54-1.35.81-2.32.81ZM180.4,74.66c.65,0,1.14-.19,1.49-.56s.52-.91.52-1.59-.17-1.23-.52-1.6c-.35-.37-.84-.56-1.48-.56s-1.15.19-1.52.58-.56.92-.56,1.6.19,1.18.56,1.56.88.57,1.52.57Z"/>
    <path class="cls-5" d="M188.38,70.5c-.08-.02-.16-.04-.22-.05s-.15-.02-.25-.02c-.51,0-.92.19-1.21.58s-.44.87-.44,1.46v2.85h-1.08v-5.63h1.08v1.12h.02c.14-.4.37-.7.66-.9.3-.21.64-.31,1.03-.31.12,0,.23,0,.32.02s.17.03.25.05l-.17.85Z"/>
    <path class="cls-5" d="M193.68,67.61l-4.1,8.86h-.91l4.11-8.86h.91Z"/>
    <path class="cls-5" d="M199.29,75.32h-1.07v-.89h-.02c-.22.34-.49.59-.81.76-.32.17-.7.26-1.12.26-.6,0-1.08-.15-1.45-.46-.37-.31-.55-.71-.55-1.22s.19-.89.56-1.21c.37-.31.91-.52,1.6-.61l1.8-.21v-.13c0-.46-.12-.78-.37-.98-.24-.2-.57-.3-.98-.3-.33,0-.64.06-.96.17s-.61.28-.88.5l-.59-.58c.36-.29.74-.51,1.15-.65s.86-.21,1.35-.21c.77,0,1.36.18,1.75.53.39.35.59.89.59,1.59v3.64ZM198.23,73.02v-.54l-1.51.18c-.46.06-.81.16-1.04.31s-.34.39-.34.71.11.57.32.74c.22.17.49.26.81.26.53,0,.96-.16,1.28-.47s.48-.71.48-1.2Z"/>
  </g>
  <g>
    <path class="cls-6" d="M130.3,328.92h-2.01v6h-1.19v-6h-2.01v-1.01h5.21v1.01Z"/>
    <path class="cls-6" d="M131.89,328.89c-.21,0-.39-.07-.52-.2-.14-.13-.21-.3-.21-.49,0-.21.07-.37.21-.5.14-.13.31-.2.52-.2s.39.06.53.2.21.3.21.5-.07.36-.21.5c-.14.13-.32.2-.53.2ZM132.46,334.92h-1.16v-5.12h1.16v5.12Z"/>
    <path class="cls-6" d="M136.89,334.84c-.15.06-.3.11-.46.14-.16.03-.34.04-.52.04-.48,0-.85-.13-1.1-.38-.25-.25-.38-.63-.38-1.12v-2.83h-.85v-.9h.85v-1.16l1.16-.35v1.51h1.23v.9h-1.23v2.72c0,.25.05.44.14.55.09.11.24.17.43.17.09,0,.18-.01.27-.03.08-.02.16-.05.23-.08l.24.83Z"/>
    <path class="cls-6" d="M142.36,334.92h-1.16v-.8h-.02c-.18.31-.4.54-.67.69-.27.16-.57.23-.92.23-.6,0-1.05-.18-1.35-.54-.3-.36-.45-.9-.45-1.63v-3.08h1.16v2.94c0,.46.09.8.27,1.04.18.23.45.35.8.35s.63-.13.85-.38c.22-.25.33-.59.33-1v-2.94h1.16v5.12Z"/>
    <path class="cls-6" d="M143.91,334.92v-7.4h1.16v7.4h-1.16Z"/>
    <path class="cls-6" d="M148.93,335.04c-.8,0-1.44-.24-1.91-.72-.47-.48-.7-1.12-.7-1.93,0-.85.25-1.52.73-2,.48-.48,1.14-.72,1.97-.72.8,0,1.43.23,1.88.71.45.47.68,1.12.68,1.93s-.24,1.5-.72,1.99c-.48.49-1.12.74-1.94.74ZM148.98,334.12c.46,0,.81-.15,1.05-.46.24-.3.36-.75.36-1.32s-.12-1-.36-1.3c-.24-.3-.6-.45-1.06-.45s-.82.16-1.08.47c-.26.31-.39.75-.39,1.31s.13.99.39,1.29c.26.3.62.45,1.09.45Z"/>
    <path class="cls-6" d="M156.89,332.48v2.44h-1.19v-7h2.19c.81,0,1.43.19,1.86.56.43.38.64.92.64,1.64s-.24,1.27-.72,1.7c-.48.44-1.13.65-1.94.65h-.84ZM156.89,328.89v2.63h.74c.5,0,.87-.11,1.13-.34s.38-.56.38-1-.12-.76-.36-.97c-.24-.21-.61-.32-1.09-.32h-.8Z"/>
    <path class="cls-6" d="M164.39,330.77c-.07-.02-.13-.03-.19-.04s-.13-.01-.21-.01c-.41,0-.72.15-.94.46-.22.31-.33.71-.33,1.21v2.53h-1.17v-5.12h1.17v.99h.02c.12-.36.29-.62.53-.8.23-.18.51-.27.83-.27.09,0,.17,0,.24.01s.15.02.21.04l-.15,1.01Z"/>
    <path class="cls-6" d="M167.7,335.04c-.8,0-1.44-.24-1.91-.72-.47-.48-.7-1.12-.7-1.93,0-.85.25-1.52.73-2,.48-.48,1.14-.72,1.97-.72.8,0,1.43.23,1.88.71.45.47.68,1.12.68,1.93s-.24,1.5-.72,1.99c-.48.49-1.12.74-1.94.74ZM167.76,334.12c.46,0,.81-.15,1.05-.46.24-.3.36-.75.36-1.32s-.12-1-.36-1.3c-.24-.3-.6-.45-1.06-.45s-.82.16-1.08.47c-.26.31-.39.75-.39,1.31s.13.99.39,1.29c.26.3.62.45,1.09.45Z"/>
    <path class="cls-6" d="M174.36,328.4c-.09-.04-.18-.07-.25-.08-.08-.02-.16-.02-.24-.02-.25,0-.43.07-.56.21-.12.14-.19.34-.19.59v.7h1.18v.9h-1.18v4.22h-1.16v-4.22h-.86v-.9h.86v-.76c0-.51.17-.92.5-1.22s.77-.45,1.32-.45c.17,0,.32.01.44.03s.26.06.4.1l-.27.89Z"/>
    <path class="cls-6" d="M179.56,332.66h-3.5c.02.48.16.85.42,1.11.26.25.62.38,1.1.38.19,0,.4-.04.65-.11.25-.08.49-.2.74-.37l.52.73c-.32.23-.65.39-.98.5s-.69.16-1.08.16c-.79,0-1.41-.23-1.86-.69s-.67-1.1-.67-1.93c0-.82.23-1.48.69-1.99.46-.51,1.05-.76,1.76-.76s1.23.22,1.62.65c.39.43.59,1.04.59,1.83v.5ZM178.45,331.86c0-.44-.1-.77-.29-1s-.46-.34-.82-.34c-.33,0-.61.12-.84.36s-.37.57-.42.97h2.38Z"/>
    <path class="cls-6" d="M180.26,334.52l.51-.82c.2.14.4.25.63.33.22.08.47.13.74.13.29,0,.51-.05.67-.16s.24-.26.24-.47c0-.17-.07-.31-.2-.42-.14-.11-.36-.2-.67-.28-.64-.15-1.08-.35-1.34-.6-.26-.25-.38-.57-.38-.98,0-.47.18-.85.55-1.14.37-.29.84-.44,1.42-.44.29,0,.56.04.82.11.26.07.51.19.76.35l-.46.8c-.22-.14-.42-.23-.6-.29-.18-.06-.37-.09-.56-.09-.28,0-.49.05-.65.16-.16.1-.23.25-.23.43s.07.33.22.42c.15.09.41.18.77.27.56.13.96.33,1.22.58.26.25.39.59.39,1.01,0,.49-.18.89-.54,1.18-.36.3-.85.44-1.47.44-.33,0-.65-.04-.96-.13s-.59-.22-.87-.39Z"/>
    <path class="cls-6" d="M185.82,328.89c-.21,0-.39-.07-.52-.2-.14-.13-.21-.3-.21-.49,0-.21.07-.37.21-.5.14-.13.31-.2.52-.2s.39.06.53.2.21.3.21.5-.07.36-.21.5c-.14.13-.32.2-.53.2ZM186.39,334.92h-1.16v-5.12h1.16v5.12Z"/>
    <path class="cls-6" d="M190.31,335.04c-.8,0-1.44-.24-1.91-.72-.47-.48-.7-1.12-.7-1.93,0-.85.25-1.52.73-2,.48-.48,1.14-.72,1.97-.72.8,0,1.43.23,1.88.71.45.47.68,1.12.68,1.93s-.24,1.5-.72,1.99c-.48.49-1.12.74-1.94.74ZM190.36,334.12c.46,0,.81-.15,1.05-.46.24-.3.36-.75.36-1.32s-.12-1-.36-1.3c-.24-.3-.6-.45-1.06-.45s-.82.16-1.08.47c-.26.31-.39.75-.39,1.31s.13.99.39,1.29c.26.3.62.45,1.09.45Z"/>
    <path class="cls-6" d="M198.77,334.92h-1.16v-2.89c0-.48-.09-.83-.26-1.07-.17-.24-.43-.36-.77-.36s-.64.13-.86.4-.34.6-.34,1v2.92h-1.16v-5.12h1.16v.83h.02c.19-.32.42-.55.7-.71.28-.16.6-.24.96-.24.56,0,.99.18,1.28.53.29.36.44.88.44,1.58v3.13Z"/>
    <path class="cls-6" d="M204.16,334.92h-1.12v-.78h-.02c-.17.3-.39.52-.65.67-.26.15-.56.23-.89.23-.47,0-.86-.14-1.16-.41-.3-.28-.45-.65-.45-1.12s.15-.84.46-1.13c.3-.29.76-.48,1.36-.57l1.36-.18v-.11c0-.35-.09-.6-.27-.76-.18-.16-.42-.24-.73-.24-.24,0-.49.04-.74.13-.25.09-.5.22-.74.4l-.5-.69c.31-.24.63-.41.97-.53.34-.11.7-.17,1.1-.17.68,0,1.19.17,1.52.51s.5.85.5,1.53v3.21ZM203.05,332.83v-.43l-1.1.15c-.33.05-.57.13-.73.26-.16.13-.24.32-.24.57s.08.44.23.58c.15.14.35.21.59.21.37,0,.68-.13.91-.38s.35-.57.35-.96Z"/>
    <path class="cls-6" d="M205.65,334.92v-7.4h1.16v7.4h-1.16Z"/>
  </g>
  <g>
    <path class="cls-6" d="M4.85,8.5H.91V1.5h3.79v1.01h-2.6v1.95h2.42v1h-2.42v2.04h2.76v1Z"/>
    <path class="cls-6" d="M10.74,8.02c0,.88-.25,1.58-.74,2.08-.49.5-1.19.76-2.1.76-.36,0-.7-.04-1.01-.1-.31-.07-.62-.18-.94-.33l.38-.83c.26.12.52.21.76.27.25.06.52.08.81.08.53,0,.94-.15,1.23-.46.29-.31.44-.74.44-1.3v-.49h-.02c-.19.31-.42.54-.7.7-.28.15-.61.23-.98.23-.64,0-1.16-.23-1.54-.69-.39-.46-.58-1.07-.58-1.84,0-.85.21-1.54.64-2.06.43-.52.99-.78,1.69-.78.33,0,.62.06.87.19.25.13.45.32.61.59h.02v-.66h1.16v4.64ZM9.58,6.12v-.6c0-.37-.12-.69-.35-.95-.24-.26-.54-.39-.9-.39-.44,0-.78.16-1.03.47-.25.32-.37.78-.37,1.39,0,.52.12.93.35,1.22.23.29.55.44.96.44s.72-.15.97-.44.37-.67.37-1.14Z"/>
    <path class="cls-6" d="M15.15,4.36c-.07-.02-.13-.03-.19-.04s-.13-.01-.21-.01c-.41,0-.72.15-.94.46-.22.31-.33.71-.33,1.21v2.53h-1.17V3.38h1.17v.99h.02c.12-.35.29-.62.53-.8s.51-.27.83-.27c.09,0,.17,0,.24.01s.15.02.21.04l-.15,1.01Z"/>
    <path class="cls-6" d="M20.51,6.24h-3.5c.02.49.16.85.42,1.11.26.25.62.38,1.1.38.19,0,.4-.04.65-.11.25-.08.49-.2.74-.37l.52.73c-.32.23-.65.39-.98.5-.33.1-.69.16-1.08.16-.79,0-1.41-.23-1.86-.69s-.67-1.1-.67-1.93c0-.82.23-1.48.69-1.99.46-.51,1.05-.76,1.76-.76s1.23.22,1.62.65c.39.43.59,1.04.59,1.83v.5ZM19.4,5.44c0-.44-.1-.77-.29-1s-.46-.34-.82-.34c-.33,0-.61.12-.84.36-.23.24-.37.57-.42.97h2.38Z"/>
    <path class="cls-6" d="M21.22,8.1l.51-.82c.2.14.4.25.63.33.22.08.47.13.74.13.29,0,.51-.05.67-.16.16-.1.24-.26.24-.47,0-.17-.07-.31-.2-.42-.14-.11-.36-.2-.67-.28-.64-.15-1.08-.35-1.34-.6-.26-.25-.38-.57-.38-.98,0-.46.18-.85.55-1.14.37-.29.84-.44,1.42-.44.29,0,.56.04.82.11s.51.19.76.35l-.46.8c-.22-.14-.42-.23-.6-.29-.18-.06-.37-.09-.56-.09-.28,0-.49.05-.65.16-.16.1-.23.25-.23.43s.07.33.22.42c.15.09.41.18.77.27.56.13.96.33,1.22.58.26.25.39.59.39,1.01,0,.49-.18.89-.54,1.18-.36.3-.85.44-1.47.44-.33,0-.65-.04-.96-.13s-.59-.22-.87-.39Z"/>
    <path class="cls-6" d="M30.11,8.5h-1.12v-.78h-.02c-.17.3-.39.52-.65.67-.26.15-.56.23-.89.23-.47,0-.86-.14-1.16-.41-.3-.28-.45-.65-.45-1.12s.15-.84.46-1.13c.3-.29.76-.48,1.36-.57l1.36-.18v-.11c0-.34-.09-.6-.27-.76-.18-.16-.42-.24-.73-.24-.24,0-.49.04-.74.13-.25.09-.5.22-.74.4l-.5-.69c.31-.24.63-.41.97-.53.34-.11.7-.17,1.1-.17.68,0,1.19.17,1.52.51.33.34.5.85.5,1.53v3.21ZM29,6.41v-.43l-1.1.15c-.33.05-.57.13-.73.26-.16.13-.24.32-.24.57s.08.44.23.58c.15.14.35.21.59.21.37,0,.68-.12.91-.38.23-.25.35-.57.35-.96Z"/>
    <path class="cls-6" d="M35.08,7.71c-.18.31-.41.54-.69.69-.28.15-.61.23-.99.23-.64,0-1.16-.23-1.54-.68-.39-.46-.58-1.08-.58-1.88,0-.85.21-1.53.64-2.04.43-.51,1-.76,1.7-.76.34,0,.63.06.88.19.24.13.44.32.59.58h.02V1.1h1.17v7.4h-1.17v-.8h-.02ZM32.46,6.01c0,.53.12.95.36,1.24s.56.45.96.45.72-.15.97-.44c.25-.3.37-.68.37-1.15v-.59c0-.38-.12-.7-.35-.95-.24-.26-.54-.38-.91-.38-.43,0-.77.16-1.02.49-.25.33-.37.77-.37,1.34Z"/>
    <path class="cls-6" d="M40.12,8.62c-.8,0-1.44-.24-1.91-.72-.47-.48-.7-1.12-.7-1.93,0-.85.25-1.52.73-2,.48-.48,1.14-.72,1.97-.72.8,0,1.43.23,1.88.71.45.48.68,1.12.68,1.93s-.24,1.5-.72,1.99-1.12.74-1.94.74ZM40.17,7.7c.46,0,.81-.15,1.05-.46.24-.3.36-.75.36-1.32s-.12-1-.36-1.3c-.24-.3-.6-.45-1.06-.45s-.82.16-1.08.47c-.26.31-.39.75-.39,1.31s.13.99.39,1.29c.26.3.62.45,1.09.45Z"/>
    <path class="cls-6" d="M43.54,8.1l.51-.82c.2.14.4.25.63.33.22.08.47.13.74.13.29,0,.51-.05.67-.16.16-.1.24-.26.24-.47,0-.17-.07-.31-.2-.42-.14-.11-.36-.2-.67-.28-.64-.15-1.08-.35-1.34-.6-.26-.25-.38-.57-.38-.98,0-.46.18-.85.55-1.14.37-.29.84-.44,1.42-.44.29,0,.56.04.82.11s.51.19.76.35l-.46.8c-.22-.14-.42-.23-.6-.29-.18-.06-.37-.09-.56-.09-.28,0-.49.05-.65.16-.16.1-.23.25-.23.43s.07.33.22.42c.15.09.41.18.77.27.56.13.96.33,1.22.58.26.25.39.59.39,1.01,0,.49-.18.89-.54,1.18-.36.3-.85.44-1.47.44-.33,0-.65-.04-.96-.13s-.59-.22-.87-.39Z"/>
  </g>
  <g>
    <rect class="cls-2" x="20" y="46.26" width="13.79" height="12.63"/>
    <path class="cls-5" d="M22.98,54.4h-.96v-6.53c-.14.12-.37.26-.7.41-.33.16-.63.27-.89.34l-.27-.83c.42-.11.86-.29,1.32-.53.46-.24.83-.49,1.1-.74h.4v7.87Z"/>
    <path class="cls-5" d="M25.07,54.4v-.4c0-.33.04-.63.12-.89s.2-.5.37-.73c.16-.23.38-.45.64-.68.26-.22.58-.47.96-.74.27-.19.5-.38.69-.56.19-.18.34-.36.45-.54.1-.15.18-.32.24-.52s.08-.39.08-.6c0-.41-.12-.74-.35-1s-.56-.39-.98-.39c-.33,0-.65.07-.95.2-.3.13-.58.34-.85.61l-.58-.56c.34-.35.71-.62,1.11-.79s.84-.26,1.33-.26c.72,0,1.28.21,1.66.63.38.42.57.91.57,1.46,0,.3-.04.58-.12.85-.08.26-.19.5-.33.71-.15.22-.33.43-.54.64-.21.2-.46.41-.74.62-.34.24-.63.45-.86.62s-.41.33-.54.48c-.14.16-.23.31-.29.46-.06.15-.09.33-.09.52h3.78v.85h-4.79Z"/>
  </g>
  <line class="cls-3" x1="33.34" y1="319.48" x2="270.84" y2="319.48"/>
</svg>